<svg xmlns="http://www.w3.org/2000/svg" width="1440" height="900" viewBox="0 0 1440 900">
  <defs>
    <style>
      .bg { fill: #eef3f8; }
      .panel { fill: #ffffff; stroke: #dbe3ee; stroke-width: 1; }
      .nav { fill: #0f2f4f; }
      .nav-soft { fill: #173f66; }
      .text { fill: #142033; font-family: Arial, sans-serif; }
      .muted { fill: #66758a; font-family: Arial, sans-serif; }
      .white { fill: #ffffff; font-family: Arial, sans-serif; }
      .teal { fill: #0f766e; }
      .blue { fill: #2563eb; }
      .amber { fill: #f59e0b; }
      .red { fill: #dc2626; }
      .soft-blue { fill: #eaf2ff; }
      .soft-teal { fill: #e7f7f3; }
      .soft-amber { fill: #fff7e6; }
      .soft-red { fill: #fff1f2; }
      .line { stroke: #dbe3ee; stroke-width: 1; }
      .shadow { filter: drop-shadow(0 10px 24px rgba(20, 32, 51, 0.08)); }
      .title { font-size: 34px; font-weight: 700; }
      .h2 { font-size: 22px; font-weight: 700; }
      .h3 { font-size: 18px; font-weight: 700; }
      .body { font-size: 15px; }
      .small { font-size: 12px; font-weight: 700; }
      .tiny { font-size: 11px; }
    </style>
  </defs>

  <rect class="bg" width="1440" height="900"/>

  <rect x="54" y="48" width="1332" height="804" rx="18" fill="#f8fafc" stroke="#dbe3ee"/>
  <rect class="nav" x="54" y="48" width="220" height="804" rx="18"/>
  <rect class="nav" x="226" y="48" width="48" height="804"/>

  <text x="86" y="104" class="white" font-size="24" font-weight="700">D2-6 Match</text>
  <text x="86" y="130" class="white" font-size="13" opacity="0.72">Tư vấn chọn trường Hàn</text>

  <rect x="78" y="178" width="170" height="44" rx="8" fill="#ffffff" opacity="0.14"/>
  <circle cx="99" cy="200" r="7" fill="#2dd4bf"/>
  <text x="119" y="205" class="white body" font-weight="700">Tư vấn</text>
  <circle cx="99" cy="254" r="7" fill="#93c5fd"/>
  <text x="119" y="259" class="white body" opacity="0.78">Trường</text>
  <circle cx="99" cy="308" r="7" fill="#fbbf24"/>
  <text x="119" y="313" class="white body" opacity="0.78">So sánh</text>
  <circle cx="99" cy="362" r="7" fill="#fb7185"/>
  <text x="119" y="367" class="white body" opacity="0.78">Tài liệu</text>

  <rect x="78" y="725" width="170" height="84" rx="12" class="nav-soft"/>
  <text x="96" y="756" class="white h3">Cộng đồng Zalo</text>
  <text x="96" y="781" class="white tiny" opacity="0.72">Nhận checklist và tư vấn</text>

  <text x="318" y="108" class="text title">Tư vấn chọn trường Visa D2-6</text>
  <text x="318" y="138" class="muted body">Nhập hồ sơ học sinh, nhận Top 3 trường phù hợp và rủi ro cần kiểm tra.</text>
  <rect x="1124" y="82" width="206" height="44" rx="8" class="blue"/>
  <text x="1166" y="109" class="white body" font-weight="700">Phân tích hồ sơ</text>

  <rect x="318" y="174" width="536" height="360" rx="14" class="panel shadow"/>
  <text x="346" y="216" class="text h2">Nhập hồ sơ</text>
  <text x="346" y="240" class="muted body">Thông tin cơ bản để sàng lọc ban đầu</text>

  <rect x="346" y="272" width="224" height="62" rx="8" fill="#f8fafc" stroke="#dbe3ee"/>
  <text x="364" y="296" class="muted small">Giới tính</text>
  <text x="364" y="318" class="text body" font-weight="700">Nữ</text>

  <rect x="598" y="272" width="224" height="62" rx="8" fill="#f8fafc" stroke="#dbe3ee"/>
  <text x="616" y="296" class="muted small">Tuổi</text>
  <text x="616" y="318" class="text body" font-weight="700">21</text>

  <rect x="346" y="354" width="224" height="62" rx="8" fill="#f8fafc" stroke="#dbe3ee"/>
  <text x="364" y="378" class="muted small">GPA cấp 3</text>
  <text x="364" y="400" class="text body" font-weight="700">6.5</text>

  <rect x="598" y="354" width="224" height="62" rx="8" fill="#f8fafc" stroke="#dbe3ee"/>
  <text x="616" y="378" class="muted small">Tiếng Hàn</text>
  <text x="616" y="400" class="text body" font-weight="700">TOPIK 2</text>

  <text x="346" y="454" class="text h3">Ưu tiên chính</text>
  <rect x="346" y="474" width="94" height="34" rx="17" class="soft-teal"/>
  <text x="369" y="496" class="teal small">Visa tốt</text>
  <rect x="452" y="474" width="114" height="34" rx="17" class="soft-blue"/>
  <text x="475" y="496" class="blue small">Việc làm</text>
  <rect x="578" y="474" width="86" height="34" rx="17" class="soft-amber"/>
  <text x="603" y="496" class="amber small">E7</text>
  <rect x="676" y="474" width="118" height="34" rx="17" fill="#f1f5f9"/>
  <text x="699" y="496" class="muted small">Gần Seoul</text>

  <rect x="884" y="174" width="446" height="526" rx="14" class="panel shadow"/>
  <text x="912" y="216" class="text h2">Top 3 trường phù hợp</text>
  <text x="912" y="240" class="muted body">Kết quả đề xuất theo hồ sơ mẫu</text>

  <rect x="912" y="272" width="390" height="112" rx="12" fill="#f8fafc" stroke="#dbe3ee"/>
  <text x="936" y="305" class="text h3">#1 Yeonsung</text>
  <text x="936" y="329" class="muted body">Gần Seoul · Visa tốt · Hồ sơ cân bằng</text>
  <rect x="936" y="348" width="94" height="24" rx="12" class="soft-teal"/>
  <text x="956" y="365" class="teal tiny" font-weight="700">Rất phù hợp</text>
  <text x="1244" y="322" class="teal" font-family="Arial, sans-serif" font-size="30" font-weight="700">91%</text>

  <rect x="912" y="404" width="390" height="112" rx="12" fill="#f8fafc" stroke="#dbe3ee"/>
  <text x="936" y="437" class="text h3">#2 Osan</text>
  <text x="936" y="461" class="muted body">Việc làm nhiều · E7 tốt · Cần lưu ý PV</text>
  <rect x="936" y="480" width="70" height="24" rx="12" class="soft-blue"/>
  <text x="957" y="497" class="blue tiny" font-weight="700">E7</text>
  <rect x="1014" y="480" width="82" height="24" rx="12" class="soft-amber"/>
  <text x="1032" y="497" class="amber tiny" font-weight="700">PV khó</text>
  <text x="1244" y="454" class="teal" font-family="Arial, sans-serif" font-size="30" font-weight="700">88%</text>

  <rect x="912" y="536" width="390" height="112" rx="12" fill="#f8fafc" stroke="#dbe3ee"/>
  <text x="936" y="569" class="text h3">#3 Dong-Eui</text>
  <text x="936" y="593" class="muted body">Busan · Việc làm tốt · Tỷ lệ visa ổn</text>
  <rect x="936" y="612" width="86" height="24" rx="12" class="soft-teal"/>
  <text x="958" y="629" class="teal tiny" font-weight="700">Visa tốt</text>
  <text x="1244" y="586" class="teal" font-family="Arial, sans-serif" font-size="30" font-weight="700">86%</text>

  <rect x="318" y="564" width="536" height="136" rx="14" class="panel shadow"/>
  <text x="346" y="604" class="text h2">So sánh nhanh</text>
  <line x1="346" y1="628" x2="826" y2="628" class="line"/>
  <text x="346" y="660" class="muted small">Trường</text>
  <text x="482" y="660" class="muted small">Visa</text>
  <text x="606" y="660" class="muted small">Chi phí</text>
  <text x="724" y="660" class="muted small">E7</text>
  <text x="346" y="686" class="text body">Yeonsung</text>
  <text x="482" y="686" class="teal body" font-weight="700">5/5</text>
  <text x="606" y="686" class="amber body" font-weight="700">3/5</text>
  <text x="724" y="686" class="blue body" font-weight="700">4/5</text>

  <rect x="318" y="730" width="536" height="78" rx="12" class="soft-amber" stroke="#fde68a"/>
  <circle cx="354" cy="769" r="13" class="amber"/>
  <text x="350" y="774" class="white small">!</text>
  <text x="382" y="760" class="text h3">Rủi ro cần lưu ý</text>
  <text x="382" y="786" class="muted body">Kiểm tra lại MOU, tài chính, lịch tuyển sinh và yêu cầu trường mới nhất.</text>

  <rect x="1170" y="600" width="132" height="240" rx="22" fill="#0f172a" opacity="0.18"/>
  <rect x="1156" y="584" width="132" height="240" rx="22" fill="#111827"/>
  <rect x="1165" y="606" width="114" height="196" rx="14" fill="#f8fafc"/>
  <text x="1178" y="632" class="text tiny" font-weight="700">Top 3 phù hợp</text>
  <rect x="1176" y="650" width="92" height="42" rx="8" class="soft-teal"/>
  <text x="1188" y="674" class="teal tiny" font-weight="700">Yeonsung 91%</text>
  <rect x="1176" y="702" width="92" height="42" rx="8" class="soft-blue"/>
  <text x="1196" y="726" class="blue tiny" font-weight="700">Osan 88%</text>
  <rect x="1176" y="754" width="92" height="42" rx="8" class="soft-amber"/>
  <text x="1188" y="778" class="amber tiny" font-weight="700">Dong-Eui 86%</text>
</svg>
