<svg width="1400" height="420" viewBox="0 0 1400 420" fill="none" xmlns="http://www.w3.org/2000/svg">
  <defs>
    <style>
      @import url('https://fonts.googleapis.com/css2?family=Be+Vietnam+Pro:wght@400;600;700;800;900&display=swap');
      text { font-family: 'Be Vietnam Pro', Arial, sans-serif; }
    </style>
    <linearGradient id="bgGrad" x1="0" y1="0" x2="1400" y2="420" gradientUnits="userSpaceOnUse">
      <stop offset="0" stop-color="#071B34"/>
      <stop offset="1" stop-color="#08223F"/>
    </linearGradient>
    <linearGradient id="iconGrad" x1="48" y1="48" x2="371" y2="371" gradientUnits="userSpaceOnUse">
      <stop offset="0" stop-color="#20E3B2"/>
      <stop offset="0.5" stop-color="#2F80ED"/>
      <stop offset="1" stop-color="#8B5CF6"/>
    </linearGradient>
    <radialGradient id="glow" cx="210" cy="210" r="180" gradientUnits="userSpaceOnUse">
      <stop offset="0" stop-color="#FBBF24" stop-opacity="0.15"/>
      <stop offset="1" stop-color="#FBBF24" stop-opacity="0"/>
    </radialGradient>
  </defs>

  <!-- Background -->
  <rect width="1400" height="420" rx="86" fill="url(#bgGrad)"/>
  <rect x="2" y="2" width="1396" height="416" rx="84" fill="none" stroke="#1E3A5F" stroke-width="2"/>

  <!-- Icon container -->
  <rect x="42" y="42" width="336" height="336" rx="84" fill="url(#iconGrad)"/>

  <!-- Document icon (larger version) -->
  <g transform="translate(128,100)">
    <rect x="4" y="6" width="168" height="220" rx="24" fill="rgba(255,255,255,0.15)" stroke="rgba(255,255,255,0.4)" stroke-width="3"/>
    <path d="M130 6V42C130 50.8 137.2 58 146 58H176" fill="rgba(255,255,255,0.08)" stroke="rgba(255,255,255,0.3)" stroke-width="2"/>
    <rect x="28" y="72" width="120" height="8" rx="4" fill="rgba(255,255,255,0.45)"/>
    <rect x="28" y="92" width="96" height="8" rx="4" fill="rgba(255,255,255,0.3)"/>
    <rect x="28" y="112" width="108" height="8" rx="4" fill="rgba(255,255,255,0.3)"/>
    <rect x="28" y="132" width="72" height="8" rx="4" fill="rgba(255,255,255,0.3)"/>
    <rect x="28" y="160" width="120" height="8" rx="4" fill="rgba(255,255,255,0.45)"/>
    <rect x="28" y="180" width="96" height="8" rx="4" fill="rgba(255,255,255,0.3)"/>
    <path d="M88 30L97 48L116 52L103 64L106 84L88 74L70 84L73 64L60 52L79 48L88 30Z" fill="#FBBF24"/>
    <path d="M58 192L82 216L118 178" stroke="#20E3B2" stroke-width="8" stroke-linecap="round" stroke-linejoin="round"/>
  </g>

  <circle cx="210" cy="210" r="180" fill="url(#glow)"/>

  <!-- Main headline: H? S? Du H?c (2 lines) -->
  <text x="458" y="185" fill="white" font-size="105" font-weight="900" letter-spacing="-5">HỒ SƠ</text>
  <text x="458" y="275" fill="white" font-size="105" font-weight="900" letter-spacing="-5">DU HỌC</text>

  <!-- Tagline pill -->
  <rect x="456" y="306" width="280" height="50" rx="25" fill="rgba(153,246,228,0.1)" stroke="rgba(153,246,228,0.2)" stroke-width="2"/>
  <text x="596" y="338" text-anchor="middle" fill="#99F6E4" font-size="22" font-weight="800" letter-spacing="2">TỰ LÀM HỒ SƠ</text>

  <!-- Separator line -->
  <line x1="790" y1="90" x2="790" y2="330" stroke="#1E3A5F" stroke-width="3" stroke-dasharray="12 8"/>

  <!-- Value props -->
  <text x="850" y="145" fill="#CCFBF1" font-size="26" font-weight="600" letter-spacing="1">Tra cứu trường</text>
  <text x="850" y="178" fill="#94A3B8" font-size="16" font-weight="400">Danh sách trường Hàn Quốc</text>

  <text x="850" y="238" fill="#60A5FA" font-size="26" font-weight="600" letter-spacing="1">So sánh lựa chọn</text>
  <text x="850" y="271" fill="#94A3B8" font-size="16" font-weight="400">Chi phí, khu vực, điều kiện</text>

  <text x="850" y="331" fill="#FCD34D" font-size="26" font-weight="600" letter-spacing="1">Chuẩn bị hồ sơ</text>
  <text x="850" y="364" fill="#94A3B8" font-size="16" font-weight="400">Checklist + AI tư vấn</text>
</svg>