<svg width="1400" height="420" viewBox="0 0 1400 420" fill="none" xmlns="http://www.w3.org/2000/svg">
  <defs>
    
    <linearGradient id="bgGrad" x1="0" y1="0" x2="1400" y2="420" gradientUnits="userSpaceOnUse">
      <stop offset="0" stop-color="#071B34"/>
      <stop offset="1" stop-color="#08223F"/>
    </linearGradient>
    <linearGradient id="iconGrad" x1="48" y1="48" x2="371" y2="371" gradientUnits="userSpaceOnUse">
      <stop offset="0" stop-color="#20E3B2"/>
      <stop offset="0.5" stop-color="#2F80ED"/>
      <stop offset="1" stop-color="#8B5CF6"/>
    </linearGradient>
    <radialGradient id="glow" cx="210" cy="210" r="180" gradientUnits="userSpaceOnUse">
      <stop offset="0" stop-color="#FBBF24" stop-opacity="0.15"/>
      <stop offset="1" stop-color="#FBBF24" stop-opacity="0"/>
    </radialGradient>
  </defs>

  <!-- Background -->
  <rect width="1400" height="420" rx="86" fill="url(#bgGrad)"/>
  <rect x="2" y="2" width="1396" height="416" rx="84" fill="none" stroke="#1E3A5F" stroke-width="2"/>

  <!-- Icon container -->
  <rect x="42" y="42" width="336" height="336" rx="84" fill="url(#iconGrad)"/>

  <!-- Document icon (larger version) -->
  <g transform="translate(128,100)">
    <rect x="4" y="6" width="168" height="220" rx="24" fill="rgba(255,255,255,0.15)" stroke="rgba(255,255,255,0.4)" stroke-width="3"/>
    <path d="M130 6V42C130 50.8 137.2 58 146 58H176" fill="rgba(255,255,255,0.08)" stroke="rgba(255,255,255,0.3)" stroke-width="2"/>
    <rect x="28" y="72" width="120" height="8" rx="4" fill="rgba(255,255,255,0.45)"/>
    <rect x="28" y="92" width="96" height="8" rx="4" fill="rgba(255,255,255,0.3)"/>
    <rect x="28" y="112" width="108" height="8" rx="4" fill="rgba(255,255,255,0.3)"/>
    <rect x="28" y="132" width="72" height="8" rx="4" fill="rgba(255,255,255,0.3)"/>
    <rect x="28" y="160" width="120" height="8" rx="4" fill="rgba(255,255,255,0.45)"/>
    <rect x="28" y="180" width="96" height="8" rx="4" fill="rgba(255,255,255,0.3)"/>
    <path d="M88 30L97 48L116 52L103 64L106 84L88 74L70 84L73 64L60 52L79 48L88 30Z" fill="#FBBF24"/>
    <path d="M58 192L82 216L118 178" stroke="#20E3B2" stroke-width="8" stroke-linecap="round" stroke-linejoin="round"/>
  </g>

  <circle cx="210" cy="210" r="180" fill="url(#glow)"/>

  <!-- Main headline: H? S? Du H?c (2 lines) -->
  <path fill="white" d="M484.46 185L464.30 185L464.30 107.30L484.46 107.30L484.46 136.49L510.08 136.49L510.08 107.30L530.24 107.30L530.24 185L510.08 185L510.08 153.71L484.46 153.71L484.46 185M610.77 86.30L596.81 86.41L584.84 67.51L602.69 67.51L610.77 86.30M573.08 100.06L558.27 100.06L572.45 83.36L587.88 83.36L602.06 100.06L587.25 100.06L580.22 91.55L573.08 100.06M580.12 186.05Q570.03 186.05 562.47 182.64Q554.91 179.22 549.88 173.50Q544.83 167.78 542.26 160.64Q539.69 153.50 539.69 146.05Q539.69 138.59 542.26 131.50Q544.83 124.41 549.88 118.75Q554.91 113.08 562.47 109.66Q570.03 106.25 580.12 106.25Q590.19 106.25 597.75 109.66Q605.31 113.08 610.41 118.75Q615.50 124.41 618.02 131.50Q620.54 138.59 620.54 146.05Q620.54 153.50 618.02 160.64Q615.50 167.78 610.41 173.50Q605.31 179.22 597.75 182.64Q590.19 186.05 580.12 186.05M580.12 168.09Q586.63 168.09 590.93 164.89Q595.24 161.69 597.39 156.60Q599.54 151.50 599.54 146.05Q599.54 140.59 597.39 135.55Q595.24 130.50 590.93 127.30Q586.63 124.10 580.12 124.10Q573.71 124.10 569.40 127.30Q565.10 130.50 562.95 135.55Q560.79 140.59 560.79 146.05Q560.79 151.50 562.95 156.60Q565.10 161.69 569.40 164.89Q573.71 168.09 580.12 168.09M685.11 186.05Q677.03 186.05 671.31 184.16Q665.58 182.27 661.86 179.33Q658.13 176.39 655.92 173.03Q653.72 169.67 652.67 166.73Q651.62 163.79 651.30 161.90Q650.99 160.01 650.99 160.01L671.36 160.01Q671.36 160.01 671.78 161.48Q672.20 162.95 673.62 164.89Q675.03 166.84 677.97 168.31Q680.91 169.78 685.95 169.78Q692.15 169.78 694.62 167.41Q697.08 165.05 697.08 162.32Q697.08 159.80 695.25 158.28Q693.41 156.75 688.89 156.02L678.50 154.34Q671.78 153.19 665.79 150.66Q659.81 148.15 656.08 143.42Q652.35 138.69 652.35 131.03Q652.35 123.68 656.08 118.12Q659.81 112.55 666.74 109.40Q673.67 106.25 683.22 106.25Q690.68 106.25 695.93 107.98Q701.18 109.72 704.64 112.50Q708.11 115.28 710.21 118.33Q712.31 121.37 713.36 124.15Q714.41 126.94 714.72 128.67Q715.04 130.40 715.04 130.40L695.19 130.40Q695.19 130.40 694.83 129.19Q694.46 127.98 693.20 126.46Q691.94 124.94 689.47 123.73Q687 122.53 682.80 122.53Q678.81 122.53 676.45 123.68Q674.09 124.84 673.09 126.52Q672.09 128.19 672.09 129.88Q672.09 132.92 674.98 134.34Q677.87 135.75 682.07 136.49L692.99 138.28Q699.50 139.32 705.01 142Q710.52 144.68 713.88 149.35Q717.24 154.03 717.24 161.06Q717.24 168.31 713.46 173.97Q709.68 179.65 702.54 182.85Q695.40 186.05 685.11 186.05M764.60 186.05Q754.52 186.05 746.96 182.64Q739.40 179.22 734.36 173.50Q729.32 167.78 726.75 160.64Q724.17 153.50 724.17 146.05Q724.17 138.59 726.75 131.50Q729.32 124.41 734.36 118.75Q739.40 113.08 746.96 109.66Q754.52 106.25 764.60 106.25Q766.28 106.25 767.85 106.36L780.77 106.36Q787.28 106.36 787.28 99.84L787.28 93.97L803.76 93.97L803.76 102.37Q803.76 108.77 801.09 112.18Q798.41 115.59 792.53 116.33Q798.72 122.11 801.87 129.98Q805.02 137.86 805.02 146.05Q805.02 153.50 802.50 160.64Q799.98 167.78 794.89 173.50Q789.80 179.22 782.24 182.64Q774.68 186.05 764.60 186.05M764.60 168.09Q771.11 168.09 775.41 164.89Q779.72 161.69 781.87 156.60Q784.02 151.50 784.02 146.05Q784.02 140.59 781.87 135.55Q779.72 130.50 775.41 127.30Q771.11 124.10 764.60 124.10Q758.19 124.10 753.89 127.30Q749.58 130.50 747.43 135.55Q745.28 140.59 745.28 146.05Q745.28 151.50 747.43 156.60Q749.58 161.69 753.89 164.89Q758.19 168.09 764.60 168.09" />
  <path fill="white" d="M496.43 275L464.30 275L464.30 197.30L496.43 197.30Q506.09 197.30 513.39 200.61Q520.68 203.92 525.57 209.48Q530.45 215.05 532.87 221.97Q535.28 228.91 535.28 236.15Q535.28 243.40 532.87 250.32Q530.45 257.25 525.57 262.82Q520.68 268.38 513.39 271.69Q506.09 275 496.43 275M495.49 214.94L484.46 214.94L484.46 257.05L495.49 257.05Q502.31 257.05 506.62 253.95Q510.92 250.85 512.97 246.02Q515.01 241.19 515.01 235.94Q515.01 230.69 512.97 225.91Q510.92 221.13 506.62 218.04Q502.31 214.94 495.49 214.94M577.59 276.05Q571.61 276.05 565.73 274.37Q559.85 272.69 555.13 268.91Q550.40 265.13 547.56 258.88Q544.73 252.63 544.73 243.50L544.73 197.30L564.89 197.30L564.89 243.50Q564.89 249.17 567.93 253.16Q570.98 257.15 577.59 257.15Q584.21 257.15 587.25 253.16Q590.30 249.17 590.30 243.50L590.30 197.30L610.46 197.30L610.46 243.50Q610.46 252.63 607.63 258.88Q604.79 265.13 600.06 268.91Q595.34 272.69 589.46 274.37Q583.58 276.05 577.59 276.05M667.37 275L647.21 275L647.21 197.30L667.37 197.30L667.37 226.49L692.99 226.49L692.99 197.30L713.15 197.30L713.15 275L692.99 275L692.99 243.71L667.37 243.71L667.37 275M763.02 276.05Q752.94 276.05 745.38 272.64Q737.82 269.23 732.78 263.50Q727.74 257.78 725.17 250.64Q722.60 243.50 722.60 236.05Q722.60 228.59 725.17 221.50Q727.74 214.41 732.78 208.75Q737.82 203.07 745.38 199.66Q752.94 196.25 763.02 196.25Q773.10 196.25 780.66 199.66Q788.22 203.07 793.32 208.75Q798.41 214.41 800.93 221.50Q803.45 228.59 803.45 236.05Q803.45 243.50 800.93 250.64Q798.41 257.78 793.32 263.50Q788.22 269.23 780.66 272.64Q773.10 276.05 763.02 276.05M763.02 258.10Q769.53 258.10 773.84 254.89Q778.14 251.69 780.30 246.60Q782.45 241.50 782.45 236.05Q782.45 230.59 780.30 225.55Q778.14 220.50 773.84 217.30Q769.53 214.10 763.02 214.10Q756.62 214.10 752.31 217.30Q748.01 220.50 745.86 225.55Q743.70 230.59 743.70 236.05Q743.70 241.50 745.86 246.60Q748.01 251.69 752.31 254.89Q756.62 258.10 763.02 258.10M763.02 302.30Q758.82 302.30 756.25 299.52Q753.68 296.74 753.68 292.95Q753.68 289.07 756.25 286.34Q758.82 283.61 763.02 283.61Q767.01 283.61 769.69 286.34Q772.37 289.07 772.37 292.95Q772.37 296.74 769.69 299.52Q767.01 302.30 763.02 302.30M849.44 276.05Q839.57 276.05 832.11 272.64Q824.66 269.23 819.72 263.50Q814.79 257.78 812.27 250.64Q809.75 243.50 809.75 236.05Q809.75 228.59 812.27 221.50Q814.79 214.41 819.72 208.75Q824.66 203.07 832.11 199.66Q839.57 196.25 849.44 196.25Q857.84 196.25 863.82 198.35Q869.81 200.45 873.80 203.76Q877.79 207.06 880.15 210.79Q882.51 214.52 883.72 217.83Q884.93 221.13 885.30 223.24Q885.66 225.34 885.66 225.34L865.71 225.34Q865.71 225.34 865.19 223.66Q864.66 221.97 863.09 219.72Q861.51 217.46 858.26 215.78Q855 214.10 849.65 214.10Q843.35 214.10 839.10 217.30Q834.84 220.50 832.74 225.55Q830.64 230.59 830.64 236.05Q830.64 241.50 832.74 246.55Q834.84 251.59 839.10 254.84Q843.35 258.10 849.65 258.10Q855 258.10 858.26 256.42Q861.51 254.74 863.09 252.53Q864.66 250.32 865.19 248.65Q865.71 246.97 865.71 246.97L885.66 246.97Q885.66 246.97 885.30 249.06Q884.93 251.16 883.72 254.47Q882.51 257.78 880.15 261.51Q877.79 265.24 873.80 268.54Q869.81 271.85 863.82 273.95Q857.84 276.05 849.44 276.05" />

  <!-- Tagline pill -->
  <rect x="456" y="306" width="280" height="50" rx="25" fill="rgba(153,246,228,0.1)" stroke="rgba(153,246,228,0.2)" stroke-width="2"/>
  <path fill="#99F6E4" d="M522.54 338L518.71 338L518.71 325.02L513.76 325.02L513.76 321.72L527.49 321.72L527.49 325.02L522.54 325.02L522.54 338M536.51 338.22Q535.21 338.22 534 337.86Q532.79 337.49 531.84 336.70Q530.88 335.91 530.32 334.63Q529.76 333.36 529.76 331.55L529.76 321.72L533.56 321.72L533.56 331.55Q533.56 332.85 534.28 333.74Q534.99 334.63 536.51 334.63Q538.03 334.63 538.75 333.74Q539.46 332.85 539.46 331.55L539.46 321.72L541.97 321.72Q542.83 321.72 542.83 320.84L542.83 319.19L545.82 319.19L545.82 320.99Q545.82 322.20 545.17 322.88Q544.52 323.55 543.29 323.55L543.27 323.55L543.27 331.55Q543.27 333.36 542.71 334.63Q542.14 335.91 541.19 336.70Q540.23 337.49 539.02 337.86Q537.81 338.22 536.51 338.22M536.56 343.57Q535.74 343.57 535.21 343.03Q534.69 342.49 534.69 341.72Q534.69 340.95 535.21 340.41Q535.74 339.87 536.56 339.87Q537.35 339.87 537.88 340.41Q538.40 340.95 538.40 341.72Q538.40 342.49 537.88 343.03Q537.35 343.57 536.56 343.57M562.82 338L551.19 338L551.19 321.72L554.99 321.72L554.99 334.70L562.82 334.70L562.82 338M574.07 320.14L571.36 320.16L568.90 316.20L572.33 316.20L574.07 320.14M568.61 338L564.63 338L570.11 321.72L575.21 321.72L580.69 338L576.71 338L575.76 335.03L569.56 335.03L568.61 338M572.66 325.37L570.59 331.77L574.73 331.77L572.66 325.37M586.41 338L582.65 338L582.65 321.72L587.79 321.72L591.16 329.64L594.66 321.72L599.63 321.72L599.63 338L595.87 338L595.87 327.59L592.90 334.30L589.38 334.30L586.41 327.55L586.41 338M611.31 338L607.51 338L607.51 321.72L611.31 321.72L611.31 328.03L617.16 328.03L617.16 321.72L620.97 321.72L620.97 338L617.16 338L617.16 331.29L611.31 331.29L611.31 338M637.60 317.25L634.90 317.28L632.43 313.32L635.86 313.32L637.60 317.25M629.99 320.14L627.13 320.14L630.03 316.68L632.98 316.68L635.89 320.14L633.03 320.14L631.51 318.29L629.99 320.14M631.51 338.22Q629.42 338.22 627.86 337.50Q626.29 336.79 625.25 335.59Q624.20 334.39 623.68 332.90Q623.15 331.40 623.15 329.84Q623.15 328.28 623.68 326.79Q624.20 325.31 625.25 324.12Q626.29 322.93 627.86 322.21Q629.42 321.50 631.51 321.50Q633.58 321.50 635.14 322.21Q636.70 322.93 637.74 324.12Q638.79 325.31 639.32 326.79Q639.85 328.28 639.85 329.84Q639.85 331.40 639.32 332.90Q638.79 334.39 637.74 335.59Q636.70 336.79 635.14 337.50Q633.58 338.22 631.51 338.22M631.51 334.81Q632.94 334.81 633.92 334.08Q634.90 333.36 635.39 332.23Q635.89 331.09 635.89 329.84Q635.89 328.61 635.39 327.47Q634.90 326.34 633.92 325.61Q632.94 324.89 631.51 324.89Q630.06 324.89 629.08 325.61Q628.10 326.34 627.61 327.47Q627.13 328.61 627.13 329.84Q627.13 331.09 627.61 332.23Q628.10 333.36 629.08 334.08Q630.06 334.81 631.51 334.81M653.38 338.22Q651.73 338.22 650.57 337.83Q649.42 337.45 648.66 336.83Q647.90 336.22 647.45 335.54Q647 334.85 646.79 334.24Q646.58 333.62 646.51 333.24Q646.45 332.85 646.45 332.85L650.30 332.85Q650.30 332.85 650.38 333.19Q650.47 333.53 650.79 333.97Q651.11 334.41 651.76 334.75Q652.41 335.10 653.51 335.10Q654.87 335.10 655.48 334.55Q656.08 334 656.08 333.29Q656.08 332.65 655.63 332.28Q655.18 331.91 654.17 331.71L651.99 331.33Q650.63 331.09 649.43 330.56Q648.23 330.04 647.49 329.07Q646.75 328.10 646.75 326.56Q646.75 325.04 647.51 323.91Q648.27 322.78 649.68 322.14Q651.09 321.50 653 321.50Q654.50 321.50 655.55 321.86Q656.61 322.23 657.31 322.79Q658.02 323.35 658.45 323.98Q658.88 324.60 659.08 325.17Q659.29 325.75 659.36 326.10Q659.43 326.45 659.43 326.45L655.66 326.45Q655.66 326.45 655.59 326.18Q655.51 325.90 655.23 325.54Q654.96 325.17 654.41 324.89Q653.86 324.60 652.91 324.60Q651.59 324.60 651.04 325.16Q650.49 325.72 650.49 326.34Q650.49 327.02 651.10 327.37Q651.70 327.73 652.63 327.90L654.94 328.30Q656.28 328.54 657.40 329.11Q658.52 329.68 659.21 330.65Q659.89 331.62 659.89 333.05Q659.89 334.52 659.13 335.70Q658.37 336.88 656.92 337.55Q655.47 338.22 653.38 338.22M669.94 338.22Q667.85 338.22 666.29 337.50Q664.73 336.79 663.68 335.59Q662.64 334.39 662.11 332.90Q661.58 331.40 661.58 329.84Q661.58 328.28 662.11 326.79Q662.64 325.31 663.68 324.12Q664.73 322.93 666.29 322.21Q667.85 321.50 669.94 321.50Q670.25 321.50 670.54 321.52L673.42 321.52Q674.67 321.52 674.67 320.25L674.67 318.99L677.84 318.99L677.84 320.66Q677.84 321.96 677.29 322.65Q676.74 323.35 675.55 323.48Q676.92 324.69 677.60 326.38Q678.28 328.08 678.28 329.84Q678.28 331.40 677.75 332.90Q677.22 334.39 676.18 335.59Q675.13 336.79 673.57 337.50Q672.01 338.22 669.94 338.22M669.94 334.81Q671.37 334.81 672.35 334.08Q673.33 333.36 673.82 332.23Q674.32 331.09 674.32 329.84Q674.32 328.61 673.82 327.47Q673.33 326.34 672.35 325.61Q671.37 324.89 669.94 324.89Q668.49 324.89 667.51 325.61Q666.53 326.34 666.05 327.47Q665.56 328.61 665.56 329.84Q665.56 331.09 666.05 332.23Q666.53 333.36 667.51 334.08Q668.49 334.81 669.94 334.81" />

  <!-- Separator line -->
  <line x1="790" y1="90" x2="790" y2="330" stroke="#1E3A5F" stroke-width="3" stroke-dasharray="12 8"/>

  <!-- Value props -->
  <path fill="#CCFBF1" d="M860.53 145L856.99 145L856.99 128.83L851.07 128.83L851.07 125.76L866.46 125.76L866.46 128.83L860.53 128.83L860.53 145M871.09 145L867.63 145L867.63 131.22L871.06 131.22L871.06 133.12L871.19 133.12Q871.55 132.31 872.39 131.64Q873.22 130.96 874.88 130.96Q875.40 130.96 875.74 131.03Q876.08 131.09 876.08 131.09L876.08 134.44Q876.08 134.44 875.70 134.39Q875.32 134.34 874.78 134.34Q872.96 134.34 872.02 135.35Q871.09 136.37 871.09 138.63L871.09 145M883.62 130.96Q884.94 130.96 885.80 131.39Q886.66 131.82 887.15 132.32Q887.65 132.83 887.83 133.14L887.99 133.14L887.99 131.22L891.44 131.22L891.44 145L887.99 145L887.99 143.08L887.83 143.08Q887.65 143.39 887.15 143.91Q886.66 144.43 885.80 144.84Q884.94 145.26 883.62 145.26Q882.08 145.26 880.94 144.65Q879.80 144.04 879.03 143.01Q878.26 141.98 877.88 140.71Q877.51 139.44 877.51 138.11Q877.51 136.78 877.88 135.51Q878.26 134.24 879.03 133.21Q879.80 132.18 880.94 131.57Q882.08 130.96 883.62 130.96M884.53 133.79Q883.36 133.79 882.57 134.43Q881.77 135.07 881.38 136.06Q880.99 137.04 880.99 138.11Q880.99 139.18 881.38 140.16Q881.77 141.15 882.57 141.79Q883.36 142.43 884.53 142.43Q885.70 142.43 886.48 141.79Q887.26 141.15 887.65 140.16Q888.04 139.18 888.04 138.11Q888.04 137.04 887.65 136.06Q887.26 135.07 886.48 134.43Q885.70 133.79 884.53 133.79M907.49 145.26Q905.72 145.26 904.39 144.65Q903.07 144.04 902.18 143.01Q901.30 141.98 900.87 140.71Q900.44 139.44 900.44 138.11Q900.44 136.78 900.87 135.51Q901.30 134.24 902.17 133.21Q903.04 132.18 904.37 131.57Q905.69 130.96 907.49 130.96Q909.25 130.96 910.42 131.48Q911.59 132 912.28 132.78Q912.97 133.56 913.31 134.33Q913.65 135.09 913.75 135.61Q913.86 136.13 913.86 136.13L910.61 136.13Q910.61 136.13 910.50 135.78Q910.40 135.43 910.09 134.96Q909.77 134.50 909.16 134.13Q908.55 133.77 907.54 133.77Q906.34 133.77 905.52 134.38Q904.70 134.99 904.29 135.98Q903.87 136.97 903.87 138.11Q903.87 139.25 904.29 140.24Q904.70 141.23 905.52 141.84Q906.34 142.45 907.54 142.45Q908.55 142.45 909.16 142.09Q909.77 141.72 910.09 141.26Q910.40 140.79 910.50 140.44Q910.61 140.09 910.61 140.09L913.86 140.09Q913.86 140.09 913.75 140.61Q913.65 141.13 913.31 141.89Q912.97 142.66 912.28 143.44Q911.59 144.22 910.42 144.74Q909.25 145.26 907.49 145.26M927.04 124.56L924.23 129.24L921.58 129.22L923.74 124.56L927.04 124.56M921.53 145.26Q919.37 145.26 918.26 143.93Q917.16 142.61 917.16 140.53L917.16 131.22L920.59 131.22L920.59 139.96Q920.59 141.07 921.19 141.74Q921.79 142.40 922.88 142.40Q923.84 142.40 924.44 141.91Q925.04 141.41 925.31 140.63Q925.58 139.85 925.58 139.02L925.58 131.22L928.10 131.22Q929.12 131.22 929.12 130.15L929.12 128.41L931.95 128.41L931.95 130.26Q931.95 131.58 931.26 132.34Q930.57 133.09 929.22 133.09L929.04 133.09L929.04 145L925.58 145L925.58 143.02L925.43 143.02Q925.17 143.49 924.69 144.01Q924.20 144.53 923.44 144.90Q922.67 145.26 921.53 145.26M937.98 145.26Q935.83 145.26 934.72 143.93Q933.62 142.61 933.62 140.53L933.62 131.22L937.05 131.22L937.05 139.96Q937.05 141.07 937.65 141.74Q938.24 142.40 939.34 142.40Q940.30 142.40 940.90 141.91Q941.49 141.41 941.77 140.63Q942.04 139.85 942.04 139.02L942.04 131.22L945.50 131.22L945.50 145L942.04 145L942.04 143.02L941.88 143.02Q941.62 143.49 941.14 144.01Q940.66 144.53 939.90 144.90Q939.13 145.26 937.98 145.26M960.92 145.26Q959.51 145.26 958.60 144.84Q957.69 144.43 957.19 143.75Q956.68 143.08 956.47 142.27Q956.26 141.46 956.26 140.68L956.26 134L953.90 134L953.90 131.22L956.26 131.22L956.26 127.79L959.72 127.79L959.72 131.22L962.81 131.22L962.81 134L959.72 134L959.72 140.61Q959.72 142.45 961.80 142.45Q962.29 142.45 962.72 142.39Q963.15 142.32 963.15 142.32L963.15 145.03Q963.15 145.03 962.49 145.14Q961.83 145.26 960.92 145.26M969.44 145L965.99 145L965.99 131.22L969.42 131.22L969.42 133.12L969.55 133.12Q969.91 132.31 970.74 131.64Q971.58 130.96 973.24 130.96Q973.76 130.96 974.10 131.03Q974.44 131.09 974.44 131.09L974.44 134.44Q974.44 134.44 974.06 134.39Q973.68 134.34 973.14 134.34Q971.32 134.34 970.38 135.35Q969.44 136.37 969.44 138.63L969.44 145M981.17 145.26Q979.01 145.26 977.91 143.93Q976.80 142.61 976.80 140.53L976.80 131.22L980.23 131.22L980.23 139.96Q980.23 141.07 980.83 141.74Q981.43 142.40 982.52 142.40Q983.48 142.40 984.08 141.91Q984.68 141.41 984.95 140.63Q985.23 139.85 985.23 139.02L985.23 131.22L987.75 131.22Q988.76 131.22 988.76 130.15L988.76 128.41L991.60 128.41L991.60 130.26Q991.60 131.58 990.91 132.34Q990.22 133.09 988.87 133.09L988.68 133.09L988.68 145L985.23 145L985.23 143.02L985.07 143.02Q984.81 143.49 984.33 144.01Q983.85 144.53 983.08 144.90Q982.31 145.26 981.17 145.26M1000.88 129.22L998.23 129.24L995.44 124.56L998.75 124.56L1000.88 129.22M999.47 145.26Q997.19 145.26 995.61 144.25Q994.04 143.23 993.22 141.61Q992.40 139.98 992.40 138.11Q992.40 136.24 993.22 134.61Q994.04 132.99 995.61 131.97Q997.19 130.96 999.47 130.96L1002.85 130.96Q1003.87 130.96 1003.87 129.89L1003.87 128.15L1006.73 128.15L1006.73 130Q1006.73 131.22 1006.14 131.95Q1005.56 132.68 1004.39 132.81Q1005.45 133.82 NaN 135.20Q1006.55 136.58 1006.55 138.11Q1006.55 139.98 1005.73 141.61Q1004.91 143.23 1003.34 144.25Q1001.76 145.26 999.47 145.26M999.47 142.37Q1000.62 142.37 1001.42 141.78Q1002.23 141.18 1002.65 140.20Q1003.06 139.23 1003.06 138.11Q1003.06 136.97 1002.65 136Q1002.23 135.04 1001.42 134.44Q1000.62 133.85 999.47 133.85Q998.33 133.85 997.52 134.44Q996.72 135.04 996.30 136Q995.89 136.97 995.89 138.11Q995.89 139.23 996.30 140.20Q996.72 141.18 997.52 141.78Q998.33 142.37 999.47 142.37M1013.07 145L1009.61 145L1009.61 131.22L1013.07 131.22L1013.07 133.20L1013.23 133.20Q1013.44 132.83 1013.88 132.30Q1014.32 131.77 1015.10 131.36Q1015.88 130.96 1017.08 130.96Q1018.66 130.96 1019.69 131.68Q1020.72 132.39 1021.22 133.56Q1021.73 134.73 1021.73 136.08L1021.73 145L1018.27 145L1018.27 136.55Q1018.27 135.43 1017.65 134.63Q1017.02 133.82 1015.78 133.82Q1014.81 133.82 1014.22 134.30Q1013.62 134.78 1013.35 135.54Q1013.07 136.29 1013.07 137.12L1013.07 145M1031.77 150.51Q1029.92 150.51 1028.71 150.03Q1027.50 149.55 1026.80 148.86Q1026.10 148.17 1025.76 147.47Q1025.42 146.77 1025.32 146.30Q1025.21 145.83 1025.21 145.83L1028.59 145.83Q1028.59 145.83 1028.70 146.12Q1028.80 146.40 1029.13 146.78Q1029.45 147.16 1030.08 147.44Q1030.70 147.73 1031.74 147.73Q1033.56 147.73 1034.37 146.69Q1035.17 145.65 1035.17 144.17L1035.17 142.63L1035.02 142.63Q1034.73 143.08 1034.20 143.60Q1033.66 144.12 1032.82 144.48Q1031.97 144.84 1030.78 144.84Q1029.24 144.84 1028.10 144.25Q1026.96 143.65 1026.18 142.66Q1025.40 141.67 1025.02 140.44Q1024.64 139.20 1024.64 137.90Q1024.64 136.60 1025.02 135.37Q1025.40 134.13 1026.18 133.13Q1026.96 132.13 1028.10 131.54Q1029.24 130.96 1030.78 130.96Q1031.97 130.96 1032.82 131.32Q1033.66 131.69 1034.20 132.19Q1034.73 132.70 1035.02 133.14L1035.17 133.14L1035.17 131.22L1038.63 131.22L1038.63 144.14Q1038.63 145.94 1037.88 147.38Q1037.12 148.82 1035.60 149.67Q1034.08 150.51 1031.77 150.51M1031.69 142.06Q1032.86 142.06 1033.64 141.45Q1034.42 140.84 1034.81 139.89Q1035.20 138.94 1035.20 137.90Q1035.20 136.84 1034.81 135.89Q1034.42 134.94 1033.64 134.34Q1032.86 133.74 1031.69 133.74Q1030.49 133.74 1029.70 134.34Q1028.91 134.94 1028.52 135.89Q1028.13 136.84 1028.13 137.90Q1028.13 138.94 1028.52 139.89Q1028.91 140.84 1029.70 141.45Q1030.49 142.06 1031.69 142.06" />
  <path fill="#94A3B8" d="M855.12 178L851.28 178L851.28 166.16L855.12 166.16Q856.54 166.16 857.60 166.66Q858.66 167.17 859.36 168.02Q860.06 168.86 860.42 169.92Q860.77 170.98 860.77 172.08Q860.77 173.18 860.42 174.24Q860.06 175.30 859.36 176.14Q858.66 176.99 857.60 177.50Q856.54 178 855.12 178M855.06 167.54L852.85 167.54L852.85 176.62L855.06 176.62Q856.10 176.62 856.87 176.24Q857.65 175.86 858.17 175.21Q858.69 174.56 858.94 173.74Q859.20 172.93 859.20 172.08Q859.20 171.23 858.94 170.42Q858.69 169.60 858.17 168.95Q857.65 168.30 856.87 167.92Q856.10 167.54 855.06 167.54M866.45 169.36Q867.25 169.36 867.79 169.62Q868.34 169.87 868.67 170.22Q869.01 170.56 869.18 170.86L869.28 170.86L869.28 169.52L870.80 169.52L870.80 178L869.28 178L869.28 176.66L869.18 176.66Q869.01 176.96 868.67 177.31Q868.34 177.66 867.79 177.91Q867.25 178.16 866.45 178.16Q865.49 178.16 864.77 177.78Q864.05 177.41 863.57 176.78Q863.09 176.14 862.85 175.36Q862.61 174.58 862.61 173.76Q862.61 172.94 862.85 172.16Q863.09 171.38 863.57 170.74Q864.05 170.11 864.77 169.74Q865.49 169.36 866.45 169.36M866.70 170.66Q865.86 170.66 865.28 171.11Q864.70 171.57 864.42 172.27Q864.14 172.98 864.14 173.76Q864.14 174.53 864.42 175.24Q864.70 175.95 865.28 176.41Q865.86 176.86 866.70 176.86Q867.55 176.86 868.12 176.41Q868.69 175.95 868.97 175.24Q869.25 174.53 869.25 173.76Q869.25 172.98 868.97 172.27Q868.69 171.57 868.12 171.11Q867.55 170.66 866.70 170.66M874.56 178L873.04 178L873.04 169.52L874.56 169.52L874.56 170.75L874.66 170.75Q874.77 170.56 875.03 170.22Q875.30 169.89 875.79 169.62Q876.29 169.36 877.04 169.36Q877.97 169.36 878.62 169.78Q879.28 170.21 879.62 170.93Q879.97 171.65 879.97 172.54L879.97 178L878.45 178L878.45 172.64Q878.45 171.79 877.98 171.23Q877.50 170.67 876.61 170.67Q875.89 170.67 875.44 171.03Q874.99 171.39 874.78 171.98Q874.56 172.56 874.56 173.22L874.56 178M883.89 178L882.37 178L882.37 165.84L883.89 165.84L883.89 170.75L883.98 170.75Q884.10 170.56 884.36 170.22Q884.62 169.89 885.12 169.62Q885.62 169.36 886.37 169.36Q887.30 169.36 887.95 169.78Q888.61 170.21 888.95 170.93Q889.30 171.65 889.30 172.54L889.30 178L887.78 178L887.78 172.64Q887.78 171.79 887.30 171.23Q886.83 170.67 885.94 170.67Q885.22 170.67 884.77 171.03Q884.32 171.39 884.10 171.98Q883.89 172.56 883.89 173.22L883.89 178M898.32 178.16Q897.34 178.16 896.71 177.89Q896.08 177.62 895.71 177.21Q895.34 176.80 895.17 176.39Q894.99 175.98 894.94 175.71Q894.90 175.44 894.90 175.44L896.43 175.44Q896.43 175.44 896.49 175.66Q896.54 175.87 896.73 176.15Q896.91 176.43 897.30 176.65Q897.70 176.86 898.35 176.86Q899.10 176.86 899.52 176.50Q899.94 176.14 899.94 175.62Q899.94 175.15 899.61 174.88Q899.28 174.61 898.67 174.46L897.52 174.19Q896.88 174.03 896.32 173.76Q895.76 173.49 895.42 173.02Q895.07 172.54 895.07 171.84Q895.07 170.75 895.89 170.06Q896.70 169.36 898.02 169.36Q898.90 169.36 899.47 169.61Q900.05 169.86 900.39 170.22Q900.74 170.59 900.90 170.96Q901.07 171.33 901.12 171.58Q901.17 171.82 901.17 171.82L899.70 171.82Q899.70 171.82 899.65 171.64Q899.60 171.46 899.43 171.22Q899.26 170.99 898.93 170.81Q898.59 170.62 898.03 170.62Q897.26 170.62 896.91 170.98Q896.56 171.33 896.56 171.74Q896.56 172.14 896.89 172.39Q897.22 172.64 897.74 172.77L898.91 173.04Q900 173.30 900.71 173.88Q901.42 174.46 901.42 175.55Q901.42 176.26 901.06 176.86Q900.69 177.46 900 177.81Q899.31 178.16 898.32 178.16M909.58 165.34L907.94 168.24L906.64 168.22L908.02 165.34L909.58 165.34M906.94 169.36Q907.74 169.36 908.29 169.62Q908.83 169.87 909.17 170.22Q909.50 170.56 909.68 170.86L909.78 170.86L909.78 169.52L911.30 169.52L911.30 178L909.78 178L909.78 176.66L909.68 176.66Q909.50 176.96 909.17 177.31Q908.83 177.66 908.29 177.91Q907.74 178.16 906.94 178.16Q905.98 178.16 905.26 177.78Q904.54 177.41 904.06 176.78Q903.58 176.14 903.34 175.36Q903.10 174.58 903.10 173.76Q903.10 172.94 903.34 172.16Q903.58 171.38 904.06 170.74Q904.54 170.11 905.26 169.74Q905.98 169.36 906.94 169.36M907.20 170.66Q906.35 170.66 905.78 171.11Q905.20 171.57 904.92 172.27Q904.64 172.98 904.64 173.76Q904.64 174.53 904.92 175.24Q905.20 175.95 905.78 176.41Q906.35 176.86 907.20 176.86Q908.05 176.86 908.62 176.41Q909.18 175.95 909.46 175.24Q909.74 174.53 909.74 173.76Q909.74 172.98 909.46 172.27Q909.18 171.57 908.62 171.11Q908.05 170.66 907.20 170.66M917.65 178.16Q916.61 178.16 915.82 177.78Q915.04 177.41 914.52 176.78QNaN 176.14 913.74 175.36Q913.47 174.58 913.47 173.76Q913.47 172.94 913.73 172.17Q913.98 171.39 914.50 170.75Q915.02 170.11 915.81 169.74Q916.59 169.36 917.65 169.36Q918.67 169.36 919.34 169.66Q920.02 169.97 920.42 170.42Q920.83 170.88 921.03 171.34Q921.23 171.79 921.30 172.10Q921.36 172.40 921.36 172.40L919.89 172.40Q919.89 172.40 919.81 172.14Q919.73 171.87 919.50 171.54Q919.28 171.20 918.83 170.94Q918.38 170.67 917.65 170.67Q916.77 170.67 916.17 171.11Q915.57 171.55 915.27 172.26Q914.98 172.96 914.98 173.76Q914.98 174.56 915.27 175.26Q915.57 175.97 916.17 176.41Q916.77 176.85 917.65 176.85Q918.38 176.85 918.83 176.58Q919.28 176.32 919.50 175.98Q919.73 175.65 919.81 175.38Q919.89 175.12 919.89 175.12L921.36 175.12Q921.36 175.12 921.30 175.42Q921.23 175.73 921.03 176.18Q920.83 176.64 920.42 177.10Q920.02 177.55 919.34 177.86Q918.67 178.16 917.65 178.16M925.12 178L923.60 178L923.60 165.84L925.12 165.84L925.12 170.75L925.22 170.75Q925.33 170.56 925.59 170.22Q925.86 169.89 926.35 169.62Q926.85 169.36 927.60 169.36Q928.53 169.36 929.18 169.78Q929.84 170.21 930.18 170.93Q930.53 171.65 930.53 172.54L930.53 178L929.01 178L929.01 172.64Q929.01 171.79 928.54 171.23Q928.06 170.67 927.17 170.67Q926.45 170.67 926 171.03Q925.55 171.39 925.34 171.98Q925.12 172.56 925.12 173.22L925.12 178M940.05 178.16Q938.74 178.16 938.07 177.49Q937.41 176.82 937.41 175.60L937.41 170.77L935.89 170.77L935.89 169.52L937.41 169.52L937.41 167.39L938.93 167.39L938.93 169.52L940.99 169.52L940.99 170.77L938.93 170.77L938.93 175.60Q938.93 176.24 939.28 176.54Q939.63 176.83 940.30 176.83Q940.66 176.83 940.98 176.78Q941.30 176.74 941.30 176.74L941.30 178.03Q941.30 178.03 940.93 178.10Q940.56 178.16 940.05 178.16M944.82 178L943.30 178L943.30 169.52L944.82 169.52L944.82 170.58L944.88 170.58Q945.15 170.10 945.68 169.73Q946.21 169.36 947.17 169.36Q947.44 169.36 947.66 169.38Q947.89 169.41 947.89 169.41L947.89 170.86Q947.89 170.86 947.64 170.84Q947.39 170.82 947.12 170.82Q946.02 170.82 945.42 171.45Q944.82 172.08 944.82 173.50L944.82 178M952.34 178.16Q951.07 178.16 950.32 177.38Q949.57 176.59 949.57 175.20L949.57 169.52L951.09 169.52L951.09 175.12Q951.09 175.95 951.54 176.40Q952 176.85 952.75 176.85Q953.52 176.85 953.98 176.45Q954.45 176.05 954.66 175.42Q954.86 174.80 954.86 174.14L954.86 169.52L956.16 169.52Q956.78 169.52 956.78 168.86L956.78 167.90L958.13 167.90L958.13 168.86Q958.13 169.60 957.74 170.05Q957.36 170.50 956.58 170.50L956.38 170.50L956.38 178L954.86 178L954.86 176.78L954.77 176.78Q954.67 176.98 954.40 177.30Q954.13 177.63 953.63 177.90Q953.14 178.16 952.34 178.16M963.84 168.22L962.54 168.24L960.90 165.34L962.46 165.34L963.84 168.22M963.12 178.16Q961.76 178.16 960.83 177.53Q959.90 176.90 959.42 175.89Q958.94 174.88 958.94 173.76Q958.94 172.62 959.42 171.62Q959.90 170.62 960.83 169.99Q961.76 169.36 963.12 169.36L965.30 169.36Q965.92 169.36 965.92 168.70L965.92 167.74L967.26 167.74L967.26 168.70Q967.26 169.41 966.91 169.85Q966.56 170.29 965.86 170.34Q966.56 170.96 966.93 171.86Q967.30 172.77 967.30 173.76Q967.30 174.88 966.82 175.89Q966.34 176.90 965.41 177.53Q964.48 178.16 963.12 178.16M963.12 176.83Q963.98 176.83 964.57 176.39Q965.15 175.95 965.45 175.25Q965.74 174.54 965.74 173.76Q965.74 172.96 965.45 172.26Q965.15 171.57 964.57 171.13Q963.98 170.69 963.12 170.69Q962.27 170.69 961.68 171.13Q961.09 171.57 960.79 172.26Q960.50 172.96 960.50 173.76Q960.50 174.54 960.79 175.25Q961.09 175.95 961.68 176.39Q962.27 176.83 963.12 176.83M970.98 178L969.46 178L969.46 169.52L970.98 169.52L970.98 170.75L971.07 170.75Q971.18 170.56 971.45 170.22Q971.71 169.89 972.21 169.62Q972.70 169.36 973.46 169.36Q974.38 169.36 975.04 169.78Q975.70 170.21 976.04 170.93Q976.38 171.65 976.38 172.54L976.38 178L974.86 178L974.86 172.64Q974.86 171.79 974.39 171.23Q973.92 170.67 973.02 170.67Q972.30 170.67 971.86 171.03Q971.41 171.39 971.19 171.98Q970.98 172.56 970.98 173.22L970.98 178M982.70 181.36Q981.65 181.36 980.94 181.08Q980.24 180.80 979.82 180.38Q979.39 179.95 979.18 179.54Q978.98 179.12 978.91 178.84Q978.85 178.56 978.85 178.56L980.37 178.56Q980.37 178.56 980.45 178.78Q980.53 179.01 980.76 179.30Q980.99 179.58 981.46 179.81Q981.92 180.03 982.70 180.03Q983.63 180.03 984.16 179.67Q984.69 179.31 984.92 178.74Q985.15 178.16 985.15 177.52L985.15 176.54L985.07 176.54Q984.91 176.82 984.57 177.16Q984.22 177.50 983.66 177.75Q983.10 178 982.29 178Q981.33 178 980.61 177.63Q979.89 177.26 979.42 176.64Q978.94 176.02 978.70 175.25Q978.46 174.48 978.46 173.68Q978.46 172.88 978.70 172.11Q978.94 171.34 979.42 170.72Q979.89 170.10 980.61 169.73Q981.33 169.36 982.29 169.36Q983.10 169.36 983.66 169.61Q984.22 169.86 984.57 170.19Q984.91 170.53 985.07 170.82L985.15 170.82L985.15 169.52L986.67 169.52L986.67 177.50Q986.67 179.28 985.64 180.32Q984.61 181.36 982.70 181.36M982.58 176.70Q983.42 176.70 983.99 176.26Q984.56 175.82 984.84 175.14Q985.12 174.45 985.12 173.68Q985.12 172.91 984.84 172.22Q984.56 171.52 983.99 171.09Q983.42 170.66 982.58 170.66Q981.73 170.66 981.15 171.09Q980.58 171.52 980.30 172.22Q980.02 172.91 980.02 173.68Q980.02 174.45 980.30 175.14Q980.58 175.82 981.15 176.26Q981.73 176.70 982.58 176.70M994.32 178L992.75 178L992.75 166.16L994.32 166.16L994.32 171.30L999.97 171.30L999.97 166.16L1001.54 166.16L1001.54 178L999.97 178L999.97 172.70L994.32 172.70L994.32 178M1008.77 168.22L1007.47 168.24L1005.82 165.34L1007.39 165.34L1008.77 168.22M1007.70 169.36Q1008.50 169.36 1009.04 169.62Q1009.58 169.87 1009.92 170.22Q1010.26 170.56 1010.43 170.86L1010.53 170.86L1010.53 169.52L1012.05 169.52L1012.05 178L1010.53 178L1010.53 176.66L1010.43 176.66Q1010.26 176.96 1009.92 177.31Q1009.58 177.66 1009.04 177.91Q1008.50 178.16 1007.70 178.16Q1006.74 178.16 1006.02 177.78Q1005.30 177.41 1004.82 176.78Q1004.34 176.14 1004.10 175.36Q1003.86 174.58 1003.86 173.76Q1003.86 172.94 1004.10 172.16Q1004.34 171.38 1004.82 170.74Q1005.30 170.11 1006.02 169.74Q1006.74 169.36 1007.70 169.36M1007.95 170.66Q1007.10 170.66 1006.53 171.11Q1005.95 171.57 1005.67 172.27Q1005.39 172.98 1005.39 173.76Q1005.39 174.53 1005.67 175.24Q1005.95 175.95 1006.53 176.41Q1007.10 176.86 1007.95 176.86Q1008.80 176.86 1009.37 176.41Q1009.94 175.95 1010.22 175.24Q1010.50 174.53 1010.50 173.76Q1010.50 172.98 1010.22 172.27Q1009.94 171.57 1009.37 171.11Q1008.80 170.66 1007.95 170.66M1015.90 178L1014.38 178L1014.38 169.52L1015.90 169.52L1015.90 170.75L1016 170.75Q1016.11 170.56 1016.38 170.22Q1016.64 169.89 1017.14 169.62Q1017.63 169.36 1018.38 169.36Q1019.31 169.36 1019.97 169.78Q1020.62 170.21 1020.97 170.93Q1021.31 171.65 1021.31 172.54L1021.31 178L1019.79 178L1019.79 172.64Q1019.79 171.79 1019.32 171.23Q1018.85 170.67 1017.95 170.67Q1017.23 170.67 1016.78 171.03Q1016.34 171.39 1016.12 171.98Q1015.90 172.56 1015.90 173.22L1015.90 178M1032.72 178.16Q1031.31 178.16 1030.24 177.64Q1029.17 177.12 1028.45 176.25Q1027.73 175.38 1027.36 174.29Q1026.99 173.20 1026.99 172.06Q1026.99 170.93 1027.36 169.85Q1027.73 168.77 1028.45 167.90Q1029.17 167.04 1030.24 166.52Q1031.31 166 1032.72 166Q1034.13 166 1035.20 166.52Q1036.27 167.04 1036.99 167.90Q1037.71 168.77 1038.08 169.85Q1038.45 170.93 1038.45 172.06Q1038.45 173.20 1038.09 174.29Q1037.73 175.38 1037.01 176.24L1038.78 178L1036.80 178L1035.98 177.18Q1035.33 177.65 1034.51 177.90Q1033.70 178.16 1032.72 178.16M1032.72 176.70Q1033.36 176.70 1033.90 176.54Q1034.43 176.38 1034.88 176.10L1032.99 174.22L1034.02 173.26L1035.90 175.14Q1036.37 174.50 1036.61 173.70Q1036.85 172.91 1036.85 172.06Q1036.85 171.18 1036.58 170.36Q1036.30 169.54 1035.78 168.88Q1035.26 168.22 1034.50 167.84Q1033.73 167.46 1032.72 167.46Q1031.71 167.46 1030.94 167.84Q1030.18 168.22 1029.66 168.88Q1029.14 169.54 1028.86 170.36Q1028.59 171.18 1028.59 172.06Q1028.59 172.96 1028.86 173.79Q1029.14 174.62 1029.66 175.28Q1030.18 175.94 1030.94 176.32Q1031.71 176.70 1032.72 176.70M1043.15 178.16Q1041.89 178.16 1041.14 177.38Q1040.38 176.59 1040.38 175.20L1040.38 169.52L1041.90 169.52L1041.90 175.12Q1041.90 175.95 1042.36 176.40Q1042.82 176.85 1043.57 176.85Q1044.34 176.85 1044.80 176.45Q1045.26 176.05 1045.47 175.42Q1045.68 174.80 1045.68 174.14L1045.68 169.52L1047.20 169.52L1047.20 178L1045.68 178L1045.68 176.78L1045.58 176.78Q1045.49 176.98 1045.22 177.30Q1044.94 177.63 1044.45 177.90Q1043.95 178.16 1043.15 178.16M1058.26 163.34L1056.61 166.24L1055.31 166.22L1056.69 163.34L1058.26 163.34M1052.32 168.29L1050.94 168.29L1052.88 165.94L1054.18 165.94L1056.11 168.29L1054.74 168.29L1053.52 166.82L1052.32 168.29M1053.54 178.16Q1052.18 178.16 1051.25 177.53Q1050.32 176.90 1049.84 175.89Q1049.36 174.88 1049.36 173.76Q1049.36 172.62 1049.84 171.62Q1050.32 170.62 1051.25 169.99Q1052.18 169.36 1053.54 169.36Q1054.90 169.36 1055.82 169.99Q1056.75 170.62 1057.23 171.62Q1057.71 172.62 1057.71 173.76Q1057.71 174.88 1057.23 175.89Q1056.75 176.90 1055.82 177.53Q1054.90 178.16 1053.54 178.16M1053.54 176.83Q1054.40 176.83 1054.98 176.39Q1055.57 175.95 1055.86 175.25Q1056.16 174.54 1056.16 173.76Q1056.16 172.96 1055.86 172.26Q1055.57 171.57 1054.98 171.13Q1054.40 170.69 1053.54 170.69Q1052.69 170.69 1052.10 171.13Q1051.50 171.57 1051.21 172.26Q1050.91 172.96 1050.91 173.76Q1050.91 174.54 1051.21 175.25Q1051.50 175.95 1052.10 176.39Q1052.69 176.83 1053.54 176.83M1063.81 178.16Q1062.77 178.16 1061.98 177.78Q1061.20 177.41 1060.68 176.78Q1060.16 176.14 1059.90 175.36Q1059.63 174.58 1059.63 173.76Q1059.63 172.94 1059.89 172.17Q1060.14 171.39 1060.66 170.75Q1061.18 170.11 1061.97 169.74Q1062.75 169.36 1063.81 169.36Q1064.83 169.36 1065.50 169.66Q1066.18 169.97 1066.58 170.42Q1066.99 170.88 1067.19 171.34Q1067.39 171.79 1067.46 172.10Q1067.52 172.40 1067.52 172.40L1066.05 172.40Q1066.05 172.40 1065.97 172.14Q1065.89 171.87 1065.66 171.54Q1065.44 171.20 1064.99 170.94Q1064.54 170.67 1063.81 170.67Q1062.93 170.67 1062.33 171.11Q1061.73 171.55 1061.43 172.26Q1061.14 172.96 1061.14 173.76Q1061.14 174.56 1061.43 175.26Q1061.73 175.97 1062.33 176.41Q1062.93 176.85 1063.81 176.85Q1064.54 176.85 1064.99 176.58Q1065.44 176.32 1065.66 175.98Q1065.89 175.65 1065.97 175.38Q1066.05 175.12 1066.05 175.12L1067.52 175.12Q1067.52 175.12 1067.46 175.42Q1067.39 175.73 1067.19 176.18Q1066.99 176.64 1066.58 177.10Q1066.18 177.55 1065.50 177.86Q1064.83 178.16 1063.81 178.16" />

  <path fill="#60A5FA" d="M858.81 238.26Q857.02 238.26 855.75 237.82Q854.47 237.38 853.63 236.67Q852.78 235.97 852.29 235.18Q851.79 234.39 851.55 233.68Q851.30 232.98 851.22 232.54Q851.14 232.10 851.14 232.10L854.73 232.10Q854.73 232.10 854.80 232.41Q854.86 232.72 855.10 233.20Q855.33 233.68 855.78 234.15Q856.24 234.62 857.01 234.94Q857.77 235.27 858.92 235.27Q860.69 235.27 861.61 234.48Q862.53 233.68 862.53 232.51Q862.53 231.53 861.83 230.94Q861.13 230.36 859.75 230.07L857.20 229.52Q855.72 229.21 854.43 228.59Q853.15 227.96 852.37 226.90Q851.59 225.83 851.59 224.17Q851.59 222.43 852.46 221.15Q853.33 219.88 854.86 219.19Q856.40 218.50 858.45 218.50Q860.40 218.50 861.67 219.07Q862.95 219.64 863.72 220.48Q864.48 221.31 864.85 222.14Q865.21 222.97 865.33 223.54Q865.44 224.12 865.44 224.12L861.99 224.12Q861.99 224.12 861.88 223.71Q861.78 223.31 861.41 222.79Q861.05 222.27 860.32 221.87Q859.59 221.46 858.37 221.46Q856.63 221.46 855.84 222.24Q855.04 223.02 855.04 223.93Q855.04 224.87 855.77 225.39Q856.50 225.91 857.72 226.20L860.45 226.77Q861.99 227.11 863.26 227.78Q864.53 228.46 865.29 229.56Q866.04 230.67 866.04 232.31Q866.04 233.97 865.21 235.32Q864.38 236.67 862.77 237.47Q861.15 238.26 858.81 238.26M875.53 238.26Q873.27 238.26 871.68 237.25Q870.10 236.23 869.28 234.61Q868.46 232.98 868.46 231.11Q868.46 229.24 869.28 227.61Q870.10 225.99 871.68 224.97Q873.27 223.96 875.53 223.96Q877.82 223.96 879.39 224.97Q880.97 225.99 881.79 227.61Q882.60 229.24 882.60 231.11Q882.60 232.98 881.79 234.61Q880.97 236.23 879.39 237.25Q877.82 238.26 875.53 238.26M875.53 235.37Q876.70 235.37 877.50 234.78Q878.29 234.18 878.70 233.20Q879.12 232.23 879.12 231.11Q879.12 229.97 878.70 229Q878.29 228.04 877.50 227.44Q876.70 226.85 875.53 226.85Q874.39 226.85 873.58 227.44Q872.78 228.04 872.36 229Q871.94 229.97 871.94 231.11Q871.94 232.23 872.36 233.20Q872.78 234.18 873.58 234.78Q874.39 235.37 875.53 235.37M897.16 238.26Q895.47 238.26 894.38 237.81Q893.29 237.35 892.65 236.66Q892.02 235.97 891.70 235.30Q891.39 234.62 891.30 234.16Q891.21 233.71 891.21 233.71L894.49 233.71Q894.49 233.71 894.58 234Q894.67 234.28 894.94 234.66Q895.21 235.04 895.79 235.32Q896.36 235.61 897.29 235.61Q898.41 235.61 898.91 235.13Q899.40 234.65 899.40 234.05Q899.40 233.48 898.97 233.13Q898.54 232.77 897.71 232.59L895.81 232.20Q894.67 231.97 893.68 231.51Q892.69 231.06 892.07 230.26Q891.44 229.47 891.44 228.22Q891.44 226.38 892.85 225.17Q894.25 223.96 896.67 223.96Q898.20 223.96 899.21 224.38Q900.21 224.79 900.82 225.42Q901.43 226.04 901.73 226.66Q902.03 227.29 902.12 227.72Q902.21 228.15 902.21 228.15L899.04 228.15Q899.04 228.15 898.96 227.90Q898.88 227.65 898.63 227.34Q898.39 227.03 897.91 226.78Q897.42 226.53 896.62 226.53Q895.53 226.53 895.07 227Q894.62 227.47 894.62 227.99Q894.62 228.56 895.11 228.87Q895.60 229.19 896.38 229.34L898.18 229.73Q900.10 230.12 901.34 231.08Q902.57 232.05 902.57 233.87Q902.57 235.09 901.94 236.09Q901.30 237.09 900.09 237.68Q898.88 238.26 897.16 238.26M916.25 217.56L913.44 222.24L910.81 222.22L912.95 217.56L916.25 217.56M911.13 223.96Q912.45 223.96 913.31 224.39Q914.17 224.82 914.66 225.32Q915.16 225.83 915.34 226.14L915.49 226.14L915.49 224.22L918.95 224.22L918.95 238L915.49 238L915.49 236.08L915.34 236.08Q915.16 236.39 914.66 236.91Q914.17 237.43 913.31 237.84Q912.45 238.26 911.13 238.26Q909.59 238.26 908.45 237.65Q907.30 237.04 906.54 236.01Q905.77 234.98 905.39 233.71Q905.02 232.44 905.02 231.11Q905.02 229.78 905.39 228.51Q905.77 227.24 906.54 226.21Q907.30 225.18 908.45 224.57Q909.59 223.96 911.13 223.96M912.04 226.79Q910.87 226.79 910.07 227.43Q909.28 228.07 908.89 229.06Q908.50 230.04 908.50 231.11Q908.50 232.18 908.89 233.16Q909.28 234.15 910.07 234.79Q910.87 235.43 912.04 235.43Q913.21 235.43 913.99 234.79Q914.77 234.15 915.16 233.16Q915.55 232.18 915.55 231.11Q915.55 230.04 915.16 229.06Q914.77 228.07 913.99 227.43Q913.21 226.79 912.04 226.79M925.82 238L922.36 238L922.36 224.22L925.82 224.22L925.82 226.20L925.97 226.20Q926.18 225.83 926.62 225.30Q927.06 224.77 927.84 224.36Q928.62 223.96 929.82 223.96Q931.41 223.96 932.43 224.68Q933.46 225.39 933.97 226.56Q934.47 227.73 934.47 229.08L934.47 238L931.02 238L931.02 229.55Q931.02 228.43 930.39 227.63Q929.77 226.82 928.52 226.82Q927.56 226.82 926.96 227.30Q926.36 227.78 926.09 228.54Q925.82 229.29 925.82 230.12L925.82 238M941.42 238L937.96 238L937.96 218.24L941.42 218.24L941.42 226.20L941.57 226.20Q941.78 225.83 942.22 225.30Q942.66 224.77 943.44 224.36Q944.22 223.96 945.42 223.96Q947.01 223.96 948.03 224.68Q949.06 225.39 949.57 226.56Q950.07 227.73 950.07 229.08L950.07 238L946.62 238L946.62 229.55Q946.62 228.43 945.99 227.63Q945.37 226.82 944.12 226.82Q943.16 226.82 942.56 227.30Q941.96 227.78 941.69 228.54Q941.42 229.29 941.42 230.12L941.42 238M963 238L959.54 238L959.56 218.24L963 218.24L963 238M971.13 238.26Q968.98 238.26 967.87 236.93Q966.77 235.61 966.77 233.53L966.77 224.22L970.20 224.22L970.20 232.96Q970.20 234.07 970.80 234.74Q971.39 235.40 972.49 235.40Q973.45 235.40 974.05 234.91Q974.64 234.41 974.92 233.63Q975.19 232.85 975.19 232.02L975.19 224.22L977.71 224.22Q978.73 224.22 978.73 223.15L978.73 221.41L981.56 221.41L981.56 223.26Q981.56 224.58 980.87 225.34Q980.18 226.09 978.83 226.09L978.65 226.09L978.65 238L975.19 238L975.19 236.02L975.03 236.02Q974.77 236.49 974.29 237.01Q973.81 237.53 973.05 237.90Q972.28 238.26 971.13 238.26M972.51 244.24Q971.65 244.24 971.11 243.67Q970.56 243.10 970.56 242.32Q970.56 241.51 971.11 240.94Q971.65 240.37 972.51 240.37Q973.34 240.37 973.89 240.94Q974.44 241.51 974.44 242.32Q974.44 243.10 973.89 243.67Q973.34 244.24 972.51 244.24M988.42 223.96Q989.75 223.96 990.61 224.39Q991.47 224.82 991.96 225.32Q992.45 225.83 992.64 226.14L992.79 226.14L992.79 224.22L996.25 224.22L996.25 238L992.79 238L992.79 236.08L992.64 236.08Q992.45 236.39 991.96 236.91Q991.47 237.43 990.61 237.84Q989.75 238.26 988.42 238.26Q986.89 238.26 985.75 237.65Q984.60 237.04 983.84 236.01Q983.07 234.98 982.69 233.71Q982.31 232.44 982.31 231.11Q982.31 229.78 982.69 228.51Q983.07 227.24 983.84 226.21Q984.60 225.18 985.75 224.57Q986.89 223.96 988.42 223.96M989.33 226.79Q988.16 226.79 987.37 227.43Q986.58 228.07 986.19 229.06Q985.80 230.04 985.80 231.11Q985.80 232.18 986.19 233.16Q986.58 234.15 987.37 234.79Q988.16 235.43 989.33 235.43Q990.50 235.43 991.28 234.79Q992.06 234.15 992.45 233.16Q992.84 232.18 992.84 231.11Q992.84 230.04 992.45 229.06Q992.06 228.07 991.28 227.43Q990.50 226.79 989.33 226.79M1012.29 238.26Q1010.52 238.26 1009.20 237.65Q1007.87 237.04 1006.99 236.01Q1006.10 234.98 1005.68 233.71Q1005.25 232.44 1005.25 231.11Q1005.25 229.78 1005.68 228.51Q1006.10 227.24 1006.98 226.21Q1007.85 225.18 1009.17 224.57Q1010.50 223.96 1012.29 223.96Q1014.06 223.96 1015.23 224.48Q1016.40 225 1017.09 225.78Q1017.78 226.56 1018.12 227.33Q1018.45 228.09 1018.56 228.61Q1018.66 229.13 1018.66 229.13L1015.41 229.13Q1015.41 229.13 1015.31 228.78Q1015.20 228.43 1014.89 227.96Q1014.58 227.50 1013.97 227.13Q1013.36 226.77 1012.34 226.77Q1011.15 226.77 1010.33 227.38Q1009.51 227.99 1009.09 228.98Q1008.68 229.97 1008.68 231.11Q1008.68 232.25 1009.09 233.24Q1009.51 234.23 1010.33 234.84Q1011.15 235.45 1012.34 235.45Q1013.36 235.45 1013.97 235.09Q1014.58 234.72 1014.89 234.26Q1015.20 233.79 1015.31 233.44Q1015.41 233.09 1015.41 233.09L1018.66 233.09Q1018.66 233.09 1018.56 233.61Q1018.45 234.13 1018.12 234.89Q1017.78 235.66 1017.09 236.44Q1016.40 237.22 1015.23 237.74Q1014.06 238.26 1012.29 238.26M1025.40 238L1021.94 238L1021.94 218.24L1025.40 218.24L1025.40 226.20L1025.55 226.20Q1025.76 225.83 1026.20 225.30Q1026.64 224.77 1027.42 224.36Q1028.20 223.96 1029.40 223.96Q1030.99 223.96 1032.01 224.68Q1033.04 225.39 1033.55 226.56Q1034.05 227.73 1034.05 229.08L1034.05 238L1030.60 238L1030.60 229.55Q1030.60 228.43 1029.97 227.63Q1029.35 226.82 1028.10 226.82Q1027.14 226.82 1026.54 227.30Q1025.94 227.78 1025.67 228.54Q1025.40 229.29 1025.40 230.12L1025.40 238M1044.09 238.26Q1041.80 238.26 1040.23 237.25Q1038.66 236.23 1037.84 234.61Q1037.02 232.98 1037.02 231.11Q1037.02 229.24 1037.84 227.61Q1038.66 225.99 1040.23 224.97Q1041.80 223.96 1044.09 223.96Q1046.38 223.96 1047.95 224.97Q1049.52 225.99 1050.34 227.61Q1051.16 229.24 1051.16 231.11Q1051.16 232.98 1050.34 234.61Q1049.52 236.23 1047.95 237.25Q1046.38 238.26 1044.09 238.26M1044.09 235.37Q1045.23 235.37 1046.04 234.78Q1046.85 234.18 1047.26 233.20Q1047.68 232.23 1047.68 231.11Q1047.68 229.97 1047.26 229Q1046.85 228.04 1046.04 227.44Q1045.23 226.85 1044.09 226.85Q1042.95 226.85 1042.14 227.44Q1041.33 228.04 1040.92 229Q1040.50 229.97 1040.50 231.11Q1040.50 232.23 1040.92 233.20Q1041.33 234.18 1042.14 234.78Q1042.95 235.37 1044.09 235.37M1044.09 244.24Q1043.23 244.24 1042.69 243.67Q1042.14 243.10 1042.14 242.32Q1042.14 241.51 1042.69 240.94Q1043.23 240.37 1044.09 240.37Q1044.92 240.37 1045.47 240.94Q1046.01 241.51 1046.01 242.32Q1046.01 243.10 1045.47 243.67Q1044.92 244.24 1044.09 244.24M1057.58 238L1054.13 238L1054.13 224.22L1057.58 224.22L1057.58 226.20L1057.74 226.20Q1057.95 225.83 1058.39 225.30Q1058.83 224.77 1059.61 224.36Q1060.39 223.96 1061.59 223.96Q1063.17 223.96 1064.20 224.68Q1065.23 225.39 1065.74 226.56Q1066.24 227.73 1066.24 229.08L1066.24 238L1062.78 238L1062.78 229.55Q1062.78 228.43 1062.16 227.63Q1061.54 226.82 1060.29 226.82Q1059.33 226.82 1058.73 227.30Q1058.13 227.78 1057.86 228.54Q1057.58 229.29 1057.58 230.12" />
  <path fill="#94A3B8" d="M856.48 271.16Q855.09 271.16 854.03 270.64Q852.98 270.12 852.28 269.25Q851.58 268.38 851.23 267.30Q850.88 266.22 850.88 265.08Q850.88 263.94 851.23 262.86Q851.58 261.77 852.28 260.90Q852.98 260.02 854.03 259.51Q855.09 259 856.48 259Q857.63 259 858.46 259.30Q859.28 259.59 859.83 260.06Q860.38 260.52 860.73 261.05Q861.07 261.58 861.24 262.04Q861.41 262.50 861.46 262.80Q861.52 263.10 861.52 263.10L859.95 263.10Q859.95 263.10 859.89 262.83Q859.82 262.57 859.63 262.18Q859.44 261.78 859.06 261.38Q858.67 260.98 858.05 260.72Q857.42 260.46 856.50 260.46Q855.49 260.46 854.74 260.85Q853.98 261.24 853.48 261.90Q852.98 262.57 852.73 263.39Q852.48 264.22 852.48 265.08Q852.48 265.94 852.73 266.77Q852.98 267.59 853.48 268.26Q853.98 268.92 854.74 269.31Q855.49 269.70 856.50 269.70Q857.42 269.70 858.05 269.43Q858.67 269.16 859.06 268.77Q859.44 268.38 859.63 267.98Q859.82 267.59 859.89 267.32Q859.95 267.05 859.95 267.05L861.52 267.05Q861.52 267.05 861.46 267.34Q861.41 267.64 861.24 268.11Q861.07 268.58 860.73 269.10Q860.38 269.62 859.83 270.10Q859.28 270.57 858.46 270.86Q857.63 271.16 856.48 271.16M865.20 271L863.68 271L863.68 258.84L865.20 258.84L865.20 263.75L865.30 263.75Q865.41 263.56 865.67 263.22Q865.94 262.89 866.43 262.62Q866.93 262.36 867.68 262.36Q868.61 262.36 869.26 262.78Q869.92 263.21 870.26 263.93Q870.61 264.65 870.61 265.54L870.61 271L869.09 271L869.09 265.64Q869.09 264.79 868.62 264.23Q868.14 263.67 867.25 263.67Q866.53 263.67 866.08 264.03Q865.63 264.39 865.42 264.98Q865.20 265.56 865.20 266.22L865.20 271M873.84 260.90Q873.41 260.90 873.13 260.62Q872.85 260.33 872.85 259.93Q872.85 259.51 873.13 259.22Q873.41 258.94 873.84 258.94Q874.26 258.94 874.54 259.22Q874.83 259.51 874.83 259.93Q874.83 260.33 874.54 260.62Q874.26 260.90 873.84 260.90M874.61 271L873.09 271L873.09 262.52L874.61 262.52L874.61 271M882.43 274.14L880.91 274.14L880.91 262.52L882.43 262.52L882.43 263.86L882.53 263.86Q882.72 263.56 883.05 263.21Q883.38 262.86 883.92 262.61Q884.46 262.36 885.26 262.36Q886.22 262.36 886.94 262.74Q887.66 263.11 888.14 263.74Q888.62 264.38 888.86 265.16Q889.10 265.94 889.10 266.76Q889.10 267.58 888.86 268.36Q888.62 269.14 888.14 269.78Q887.66 270.41 886.94 270.78Q886.22 271.16 885.26 271.16Q884.46 271.16 883.92 270.90Q883.38 270.65 883.05 270.30Q882.72 269.94 882.53 269.66L882.43 269.66L882.43 274.14M882.46 266.76Q882.46 267.53 882.74 268.24Q883.02 268.95 883.59 269.41Q884.16 269.86 885.01 269.86Q885.87 269.86 886.44 269.41Q887.01 268.95 887.29 268.24Q887.57 267.53 887.57 266.76Q887.57 265.98 887.29 265.27Q887.01 264.57 886.44 264.11Q885.87 263.66 885.01 263.66Q884.16 263.66 883.59 264.11Q883.02 264.57 882.74 265.27Q882.46 265.98 882.46 266.76M892.86 271L891.34 271L891.34 258.84L892.86 258.84L892.86 263.75L892.96 263.75Q893.07 263.56 893.34 263.22Q893.60 262.89 894.10 262.62Q894.59 262.36 895.34 262.36Q896.27 262.36 896.93 262.78Q897.58 263.21 897.93 263.93Q898.27 264.65 898.27 265.54L898.27 271L896.75 271L896.75 265.64Q896.75 264.79 896.28 264.23Q895.81 263.67 894.91 263.67Q894.19 263.67 893.74 264.03Q893.30 264.39 893.08 264.98Q892.86 265.56 892.86 266.22L892.86 271M903.89 258.34L902.24 261.24L900.94 261.22L902.32 258.34L903.89 258.34M902.37 271L900.85 271L900.85 262.52L902.37 262.52L902.37 271M905.86 272.97L905.06 272.97L906.21 271.11Q905.82 271.08 905.56 270.79Q905.30 270.50 905.30 270.09Q905.30 269.62 905.62 269.35Q905.94 269.08 906.34 269.08Q906.78 269.08 907.10 269.35Q907.41 269.62 907.41 270.12Q907.41 270.57 907.06 271.14Q906.72 271.72 905.97 272.81L905.86 272.97M915.14 271L913.62 271L913.62 258.84L915.14 258.84L915.14 265.91L918.51 262.52L920.50 262.52L916.59 266.38L920.58 271L918.64 271L915.14 266.92L915.14 271M924.02 271L922.50 271L922.50 258.84L924.02 258.84L924.02 263.75L924.11 263.75Q924.22 263.56 924.49 263.22Q924.75 262.89 925.25 262.62Q925.74 262.36 926.50 262.36Q927.42 262.36 928.08 262.78Q928.74 263.21 929.08 263.93Q929.42 264.65 929.42 265.54L929.42 271L927.90 271L927.90 265.64Q927.90 264.79 927.43 264.23Q926.96 263.67 926.06 263.67Q925.34 263.67 924.90 264.03Q924.45 264.39 924.23 264.98Q924.02 265.56 924.02 266.22L924.02 271M934.43 271.16Q933.17 271.16 932.42 270.38Q931.66 269.59 931.66 268.20L931.66 262.52L933.18 262.52L933.18 268.12Q933.18 268.95 933.64 269.40Q934.10 269.85 934.85 269.85Q935.62 269.85 936.08 269.45Q936.54 269.05 936.75 268.42Q936.96 267.80 936.96 267.14L936.96 262.52L938.48 262.52L938.48 271L936.96 271L936.96 269.78L936.86 269.78Q936.77 269.98 936.50 270.30Q936.22 270.63 935.73 270.90Q935.23 271.16 934.43 271.16M948.69 271L947.07 271L943.84 262.52L945.42 262.52L947.90 269.14L950.34 262.52L951.94 262.52L948.69 271M956.62 271.16Q955.36 271.16 954.61 270.38Q953.86 269.59 953.86 268.20L953.86 262.52L955.38 262.52L955.38 268.12Q955.38 268.95 955.83 269.40Q956.29 269.85 957.04 269.85Q957.81 269.85 958.27 269.45Q958.74 269.05 958.94 268.42Q959.15 267.80 959.15 267.14L959.15 262.52L960.45 262.52Q961.07 262.52 961.07 261.86L961.07 260.90L962.42 260.90L962.42 261.86Q962.42 262.60 962.03 263.05Q961.65 263.50 960.86 263.50L960.67 263.50L960.67 271L959.15 271L959.15 269.78L959.06 269.78Q958.96 269.98 958.69 270.30Q958.42 270.63 957.92 270.90Q957.42 271.16 956.62 271.16M957.10 274.63Q956.66 274.63 956.36 274.32Q956.06 274.01 956.06 273.59Q956.06 273.16 956.36 272.86Q956.66 272.55 957.10 272.55Q957.55 272.55 957.85 272.86Q958.14 273.16 958.14 273.59Q958.14 274.02 957.85 274.33Q957.55 274.63 957.10 274.63M967.33 271.16Q966.29 271.16 965.50 270.78Q964.72 270.41 964.20 269.78Q963.68 269.14 963.42 268.36Q963.15 267.58 963.15 266.76Q963.15 265.94 963.41 265.17Q963.66 264.39 964.18 263.75Q964.70 263.11 965.49 262.74Q966.27 262.36 967.33 262.36Q968.35 262.36 969.02 262.66Q969.70 262.97 970.10 263.42Q970.51 263.88 970.71 264.34Q970.91 264.79 970.98 265.10Q971.04 265.40 971.04 265.40L969.57 265.40Q969.57 265.40 969.49 265.14Q969.41 264.87 969.18 264.54Q968.96 264.20 968.51 263.94Q968.06 263.67 967.33 263.67Q966.45 263.67 965.85 264.11Q965.25 264.55 964.95 265.26Q964.66 265.96 964.66 266.76Q964.66 267.56 964.95 268.26Q965.25 268.97 965.85 269.41Q966.45 269.85 967.33 269.85Q968.06 269.85 968.51 269.58Q968.96 269.32 969.18 268.98Q969.41 268.65 969.49 268.38Q969.57 268.12 969.57 268.12L971.04 268.12Q971.04 268.12 970.98 268.42Q970.91 268.73 970.71 269.18Q970.51 269.64 970.10 270.10Q969.70 270.55 969.02 270.86Q968.35 271.16 967.33 271.16M974.05 272.97L973.25 272.97L974.40 271.11Q974.02 271.08 973.75 270.79Q973.49 270.50 973.49 270.09Q973.49 269.62 973.81 269.35Q974.13 269.08 974.53 269.08Q974.98 269.08 975.29 269.35Q975.60 269.62 975.60 270.12Q975.60 270.57 975.26 271.14Q974.91 271.72 974.16 272.81L974.05 272.97M985.33 271.16Q984.37 271.16 983.65 270.78Q982.93 270.41 982.45 269.78Q981.97 269.14 981.73 268.36Q981.49 267.58 981.49 266.76Q981.49 265.94 981.73 265.16Q981.97 264.38 982.45 263.74Q982.93 263.11 983.65 262.74Q984.37 262.36 985.33 262.36Q986.13 262.36 986.67 262.62Q987.22 262.87 987.55 263.22Q987.89 263.56 988.06 263.86L988.16 263.86L988.16 261.59L985.94 261.59L985.94 260.38L988.16 260.38L988.16 258.84L989.68 258.84L989.68 260.38L991.14 260.38L991.14 261.59L989.68 261.59L989.68 271L988.16 271L988.16 269.66L988.06 269.66Q987.89 269.96 987.55 270.31Q987.22 270.66 986.67 270.91Q986.13 271.16 985.33 271.16M985.58 269.86Q986.43 269.86 987 269.41Q987.57 268.95 987.85 268.24Q988.13 267.53 988.13 266.76Q988.13 265.98 987.85 265.27Q987.57 264.57 987 264.11Q986.43 263.66 985.58 263.66Q984.74 263.66 984.16 264.11Q983.58 264.57 983.30 265.27Q983.02 265.98 983.02 266.76Q983.02 267.53 983.30 268.24Q983.58 268.95 984.16 269.41Q984.74 269.86 985.58 269.86M993.87 260.90Q993.44 260.90 993.16 260.62Q992.88 260.33 992.88 259.93Q992.88 259.51 993.16 259.22Q993.44 258.94 993.87 258.94Q994.29 258.94 994.58 259.22Q994.86 259.51 994.86 259.93Q994.86 260.33 994.58 260.62Q994.29 260.90 993.87 260.90M994.64 271L993.12 271L993.12 262.52L994.64 262.52L994.64 271M1004.46 259.26L1003.17 259.27L1001.52 256.38L1003.09 256.38L1004.46 259.26M999.78 261.32L998.40 261.32L1000.34 258.97L1001.63 258.97L1003.57 261.32L1002.19 261.32L1000.98 259.85L999.78 261.32M1001.04 271.16Q1000 271.16 999.24 270.78Q998.48 270.41 997.99 269.77Q997.50 269.13 997.26 268.35Q997.02 267.58 997.02 266.76Q997.02 265.96 997.26 265.18Q997.49 264.39 997.98 263.75Q998.46 263.11 999.21 262.74Q999.95 262.36 1000.98 262.36Q1002.06 262.36 1002.90 262.86Q1003.73 263.35 1004.21 264.33Q1004.69 265.30 1004.69 266.78L1004.69 267.22L998.56 267.22Q998.61 267.94 998.90 268.54Q999.20 269.14 999.74 269.50Q1000.29 269.86 1001.04 269.86Q1001.70 269.86 1002.10 269.65Q1002.51 269.43 1002.75 269.14Q1002.99 268.86 1003.08 268.64Q1003.17 268.42 1003.17 268.42L1004.59 268.42Q1004.59 268.42 1004.51 268.70Q1004.43 268.98 1004.22 269.38Q1004.02 269.78 1003.62 270.19Q1003.22 270.60 1002.59 270.88Q1001.97 271.16 1001.04 271.16M998.58 266.04L1003.20 266.04Q1003.17 265.21 1002.85 264.69Q1002.53 264.17 1002.03 263.91Q1001.54 263.66 1000.98 263.66Q999.97 263.66 999.33 264.30Q998.69 264.95 998.58 266.04M1009.62 271.16Q1008.35 271.16 1007.60 270.38Q1006.85 269.59 1006.85 268.20L1006.85 262.52L1008.37 262.52L1008.37 268.12Q1008.37 268.95 1008.82 269.40Q1009.28 269.85 1010.03 269.85Q1010.80 269.85 1011.26 269.45Q1011.73 269.05 1011.94 268.42Q1012.14 267.80 1012.14 267.14L1012.14 262.52L1013.66 262.52L1013.66 271L1012.14 271L1012.14 269.78L1012.05 269.78Q1011.95 269.98 1011.68 270.30Q1011.41 270.63 1010.91 270.90Q1010.42 271.16 1009.62 271.16M1021.26 271L1019.74 271L1019.74 258.84L1021.26 258.84L1021.26 265.91L1024.64 262.52L1026.62 262.52L1022.72 266.38L1026.70 271L1024.77 271L1021.26 266.92L1021.26 271M1029.46 260.90Q1029.02 260.90 1028.74 260.62Q1028.46 260.33 1028.46 259.93Q1028.46 259.51 1028.74 259.22Q1029.02 258.94 1029.46 258.94Q1029.87 258.94 1030.16 259.22Q1030.45 259.51 1030.45 259.93Q1030.45 260.33 1030.16 260.62Q1029.87 260.90 1029.46 260.90M1030.22 271L1028.70 271L1028.70 262.52L1030.22 262.52L1030.22 271M1035.36 261.32L1033.98 261.32L1035.92 258.65L1037.22 258.65L1039.15 261.32L1037.78 261.32L1036.56 259.61L1035.36 261.32M1036.62 271.16Q1035.58 271.16 1034.82 270.78Q1034.06 270.41 1033.58 269.77Q1033.09 269.13 1032.85 268.35Q1032.61 267.58 1032.61 266.76Q1032.61 265.96 1032.84 265.18Q1033.07 264.39 1033.56 263.75Q1034.05 263.11 1034.79 262.74Q1035.54 262.36 1036.56 262.36Q1037.65 262.36 1038.48 262.86Q1039.31 263.35 1039.79 264.33Q1040.27 265.30 1040.27 266.78L1040.27 267.22L1034.14 267.22Q1034.19 267.94 1034.49 268.54Q1034.78 269.14 1035.33 269.50Q1035.87 269.86 1036.62 269.86Q1037.28 269.86 1037.69 269.65Q1038.10 269.43 1038.34 269.14Q1038.58 268.86 1038.66 268.64Q1038.75 268.42 1038.75 268.42L1040.18 268.42Q1040.18 268.42 1040.10 268.70Q1040.02 268.98 1039.81 269.38Q1039.60 269.78 1039.20 270.19Q1038.80 270.60 1038.18 270.88Q1037.55 271.16 1036.62 271.16M1034.16 266.04L1038.78 266.04Q1038.75 265.21 1038.43 264.69Q1038.11 264.17 1037.62 263.91Q1037.12 263.66 1036.56 263.66Q1035.55 263.66 1034.91 264.30Q1034.27 264.95 1034.16 266.04M1036.56 274.63Q1036.11 274.63 1035.82 274.32Q1035.52 274.01 1035.52 273.59Q1035.52 273.16 1035.82 272.86Q1036.11 272.55 1036.56 272.55Q1037.01 272.55 1037.30 272.86Q1037.60 273.16 1037.60 273.59Q1037.60 274.02 1037.30 274.33Q1037.01 274.63 1036.56 274.63M1043.95 271L1042.43 271L1042.43 262.52L1043.95 262.52L1043.95 263.75L1044.05 263.75Q1044.16 263.56 1044.42 263.22Q1044.69 262.89 1045.18 262.62Q1045.68 262.36 1046.43 262.36Q1047.36 262.36 1048.02 262.78Q1048.67 263.21 1049.02 263.93Q1049.36 264.65 1049.36 265.54L1049.36 271L1047.84 271L1047.84 265.64Q1047.84 264.79 1047.37 264.23Q1046.90 263.67 1046 263.67Q1045.28 263.67 1044.83 264.03Q1044.38 264.39 1044.17 264.98Q1043.95 265.56 1043.95 266.22" />

  <path fill="#FCD34D" d="M860.56 331.26Q858.22 331.26 856.46 330.42Q854.71 329.57 853.52 328.15Q852.34 326.74 851.75 324.98Q851.17 323.23 851.17 321.38Q851.17 319.53 851.75 317.77Q852.34 316 853.52 314.58Q854.71 313.16 856.46 312.33Q858.22 311.50 860.56 311.50Q862.51 311.50 863.91 311.99Q865.31 312.49 866.25 313.27Q867.19 314.05 867.75 314.93Q868.30 315.82 868.59 316.60Q868.88 317.38 868.97 317.87Q869.06 318.36 869.06 318.36L865.55 318.36Q865.55 318.36 865.46 318Q865.37 317.64 865.09 317.08Q864.82 316.52 864.27 315.97Q863.73 315.43 862.83 315.06Q861.93 314.70 860.61 314.70Q859.15 314.70 858.06 315.26Q856.97 315.82 856.24 316.78Q855.51 317.74 855.16 318.94Q854.81 320.13 854.81 321.38Q854.81 322.63 855.16 323.81Q855.51 324.99 856.24 325.96Q856.97 326.92 858.06 327.49Q859.15 328.06 860.61 328.06Q861.93 328.06 862.83 327.69Q863.73 327.31 864.27 326.76Q864.82 326.22 865.09 325.67Q865.37 325.12 865.46 324.75Q865.55 324.37 865.55 324.37L869.06 324.37Q869.06 324.37 868.97 324.86Q868.88 325.36 868.59 326.15Q868.30 326.94 867.75 327.81Q867.19 328.69 866.25 329.48Q865.31 330.27 863.91 330.77Q862.51 331.26 860.56 331.26M875.56 331L872.10 331L872.10 311.24L875.56 311.24L875.56 319.20L875.71 319.20Q875.92 318.83 876.36 318.30Q876.81 317.77 877.59 317.36Q878.37 316.96 879.56 316.96Q881.15 316.96 882.17 317.68Q883.20 318.39 883.71 319.56Q884.22 320.73 884.22 322.08L884.22 331L880.76 331L880.76 322.55Q880.76 321.43 880.13 320.63Q879.51 319.82 878.26 319.82Q877.30 319.82 876.70 320.30Q876.10 320.78 875.83 321.54Q875.56 322.29 875.56 323.12L875.56 331M891.81 331.26Q889.65 331.26 888.54 329.93Q887.44 328.61 887.44 326.53L887.44 317.22L890.87 317.22L890.87 325.96Q890.87 327.07 891.47 327.74Q892.07 328.40 893.16 328.40Q894.12 328.40 894.72 327.91Q895.32 327.41 895.59 326.63Q895.86 325.85 895.86 325.02L895.86 317.22L899.32 317.22L899.32 331L895.86 331L895.86 329.02L895.71 329.02Q895.45 329.49 894.97 330.01Q894.49 330.53 893.72 330.90Q892.95 331.26 891.81 331.26M915.23 312.41L913.15 312.41L913.15 311.58Q913.15 311.27 913.28 310.98Q913.41 310.69 913.75 310.51L914.14 310.33Q914.71 310.04 915 309.75Q915.29 309.45 915.29 309.06Q915.29 308.72 915.03 308.44Q914.77 308.17 914.27 308.17Q913.78 308.17 913.54 308.41Q913.31 308.64 913.26 308.90Q913.21 309.16 913.21 309.24L911.13 309.24Q911.10 308.56 911.41 307.90Q911.72 307.24 912.43 306.79Q913.13 306.35 914.22 306.35Q915.73 306.35 916.61 307.13Q917.50 307.91 917.50 308.98Q917.50 309.86 916.92 310.49Q916.35 311.11 915.34 311.60L915.23 311.68L915.23 312.41M907.59 315.43L904.78 315.43L908.08 311.47L910.87 311.47L914.17 315.43L911.36 315.43L909.46 313.14L907.59 315.43M908.53 316.96Q909.85 316.96 910.71 317.39Q911.57 317.82 912.06 318.32Q912.56 318.83 912.74 319.14L912.89 319.14L912.89 317.22L916.35 317.22L916.35 331L912.89 331L912.89 329.08L912.74 329.08Q912.56 329.39 912.06 329.91Q911.57 330.43 910.71 330.84Q909.85 331.26 908.53 331.26Q906.99 331.26 905.85 330.65Q904.70 330.04 903.94 329.01Q903.17 327.98 902.79 326.71Q902.42 325.44 902.42 324.11Q902.42 322.78 902.79 321.51Q903.17 320.24 903.94 319.21Q904.70 318.18 905.85 317.57Q906.99 316.96 908.53 316.96M909.44 319.79Q908.27 319.79 907.47 320.43Q906.68 321.07 906.29 322.06Q905.90 323.04 905.90 324.11Q905.90 325.18 906.29 326.16Q906.68 327.15 907.47 327.79Q908.27 328.43 909.44 328.43Q910.61 328.43 911.39 327.79Q912.17 327.15 912.56 326.16Q912.95 325.18 912.95 324.11Q912.95 323.04 912.56 322.06Q912.17 321.07 911.39 320.43Q910.61 319.79 909.44 319.79M923.22 331L919.76 331L919.76 317.22L923.22 317.22L923.22 319.20L923.37 319.20Q923.58 318.83 924.02 318.30Q924.46 317.77 925.24 317.36Q926.02 316.96 927.22 316.96Q928.81 316.96 929.83 317.68Q930.86 318.39 931.37 319.56Q931.87 320.73 931.87 322.08L931.87 331L928.42 331L928.42 322.55Q928.42 321.43 927.79 320.63Q927.17 319.82 925.92 319.82Q924.96 319.82 924.36 320.30Q923.76 320.78 923.49 321.54Q923.22 322.29 923.22 323.12L923.22 331M949.16 331.26Q947.84 331.26 946.98 330.83Q946.12 330.40 945.64 329.88Q945.16 329.36 944.98 329.08L944.80 329.08L944.80 331L941.34 331L941.34 311.24L944.80 311.24L944.80 319.14L944.98 319.14Q945.16 318.83 945.64 318.31Q946.12 317.79 946.98 317.38Q947.84 316.96 949.16 316.96Q950.72 316.96 951.87 317.57Q953.01 318.18 953.77 319.21Q954.52 320.24 954.90 321.51Q955.27 322.78 955.27 324.11Q955.27 325.44 954.90 326.71Q954.52 327.98 953.77 329.01Q953.01 330.04 951.87 330.65Q950.72 331.26 949.16 331.26M948.25 328.43Q949.45 328.43 950.23 327.79Q951.01 327.15 951.40 326.16Q951.79 325.18 951.79 324.11Q951.79 323.04 951.40 322.06Q951.01 321.07 950.23 320.43Q949.45 319.79 948.25 319.79Q947.08 319.79 946.30 320.43Q945.52 321.07 945.13 322.06Q944.74 323.04 944.74 324.11Q944.74 325.18 945.13 326.16Q945.52 327.15 946.30 327.79Q947.08 328.43 948.25 328.43M960.50 315.09Q959.59 315.09 958.99 314.49Q958.39 313.89 958.39 313.06Q958.39 312.23 958.99 311.63Q959.59 311.03 960.50 311.03Q961.38 311.03 962 311.63Q962.61 312.23 962.61 313.06Q962.61 313.89 962 314.49Q961.38 315.09 960.50 315.09M962.24 331L958.78 331L958.78 317.22L962.24 317.22L962.24 331M960.50 337.24Q959.64 337.24 959.10 336.67Q958.55 336.10 958.55 335.32Q958.55 334.51 959.10 333.94Q959.64 333.37 960.50 333.37Q961.33 333.37 961.88 333.94Q962.42 334.51 962.42 335.32Q962.42 336.10 961.88 336.67Q961.33 337.24 960.50 337.24M975.63 331L972.17 331L972.17 311.24L975.63 311.24L975.63 319.20L975.79 319.20Q976 318.83 976.44 318.30Q976.88 317.77 977.66 317.36Q978.44 316.96 979.64 316.96Q981.22 316.96 982.25 317.68Q983.28 318.39 983.78 319.56Q984.29 320.73 984.29 322.08L984.29 331L980.83 331L980.83 322.55Q980.83 321.43 980.21 320.63Q979.58 319.82 978.34 319.82Q977.37 319.82 976.78 320.30Q976.18 320.78 975.90 321.54Q975.63 322.29 975.63 323.12L975.63 331M1000.75 312.02L998.10 312.05L995.31 307.37L998.62 307.37L1000.75 312.02M992.45 315.40L989.65 315.40L992.92 311.45L995.73 311.45L999.01 315.40L996.20 315.40L994.33 313.14L992.45 315.40M994.33 331.26Q992.04 331.26 990.47 330.25Q988.89 329.23 988.07 327.61Q987.25 325.98 987.25 324.11Q987.25 322.24 988.07 320.61Q988.89 318.99 990.47 317.97Q992.04 316.96 994.33 316.96Q996.61 316.96 998.19 317.97Q999.76 318.99 1000.58 320.61Q1001.40 322.24 1001.40 324.11Q1001.40 325.98 1000.58 327.61Q999.76 329.23 998.19 330.25Q996.61 331.26 994.33 331.26M994.33 328.37Q995.47 328.37 996.28 327.78Q997.08 327.18 997.50 326.20Q997.91 325.23 997.91 324.11Q997.91 322.97 997.50 322Q997.08 321.04 996.28 320.44Q995.47 319.85 994.33 319.85Q993.18 319.85 992.38 320.44Q991.57 321.04 991.15 322Q990.74 322.97 990.74 324.11Q990.74 325.23 991.15 326.20Q991.57 327.18 992.38 327.78Q993.18 328.37 994.33 328.37M1016.01 331.26Q1014.32 331.26 1013.23 330.81Q1012.14 330.35 1011.50 329.66Q1010.86 328.97 1010.55 328.30Q1010.24 327.62 1010.15 327.17Q1010.06 326.71 1010.06 326.71L1013.33 326.71Q1013.33 326.71 1013.42 327Q1013.51 327.28 1013.79 327.66Q1014.06 328.04 1014.63 328.32Q1015.20 328.61 1016.14 328.61Q1017.26 328.61 1017.75 328.13Q1018.25 327.65 1018.25 327.05Q1018.25 326.48 1017.82 326.13Q1017.39 325.77 1016.56 325.59L1014.66 325.20Q1013.51 324.97 1012.53 324.51Q1011.54 324.06 1010.91 323.26Q1010.29 322.47 1010.29 321.22Q1010.29 319.38 1011.69 318.17Q1013.10 316.96 1015.52 316.96Q1017.05 316.96 1018.05 317.38Q1019.05 317.79 1019.66 318.42Q1020.27 319.04 1020.57 319.66Q1020.87 320.29 1020.96 320.72Q1021.05 321.15 1021.05 321.15L1017.88 321.15Q1017.88 321.15 1017.80 320.90Q1017.73 320.65 1017.48 320.34Q1017.23 320.03 1016.75 319.78Q1016.27 319.53 1015.46 319.53Q1014.37 319.53 1013.92 320Q1013.46 320.47 1013.46 320.99Q1013.46 321.56 1013.96 321.87Q1014.45 322.19 1015.23 322.34L1017.02 322.73Q1018.95 323.12 1020.18 324.08Q1021.42 325.05 1021.42 326.87Q1021.42 328.09 1020.78 329.09Q1020.14 330.09 1018.94 330.68Q1017.73 331.26 1016.01 331.26M1030.86 331.26Q1028.59 331.26 1027.01 330.25Q1025.42 329.23 1024.60 327.61Q1023.78 325.98 1023.78 324.11Q1023.78 322.24 1024.60 320.61Q1025.42 318.99 1027.01 317.97Q1028.59 316.96 1030.86 316.96L1034.24 316.96Q1035.28 316.96 1035.28 315.89L1035.28 314.15L1038.11 314.15L1038.11 316Q1038.11 317.22 1037.53 317.95Q1036.94 318.68 1035.80 318.81Q1036.84 319.82 1037.38 321.20Q1037.93 322.58 1037.93 324.11Q1037.93 325.98 1037.11 327.61Q1036.29 329.23 1034.72 330.25Q1033.14 331.26 1030.86 331.26M1030.86 328.37Q1032.03 328.37 1032.82 327.78Q1033.61 327.18 1034.03 326.20Q1034.44 325.23 1034.44 324.11Q1034.44 322.97 1034.03 322Q1033.61 321.04 1032.82 320.44Q1032.03 319.85 1030.86 319.85Q1029.71 319.85 1028.91 320.44Q1028.10 321.04 1027.68 322Q1027.27 322.97 1027.27 324.11Q1027.27 325.23 1027.68 326.20Q1028.10 327.18 1028.91 327.78Q1029.71 328.37 1030.86 328.37" />
  <path fill="#94A3B8" d="M856.48 364.16Q855.09 364.16 854.03 363.64Q852.98 363.12 852.28 362.25Q851.58 361.38 851.23 360.30Q850.88 359.22 850.88 358.08Q850.88 356.94 851.23 355.86Q851.58 354.77 852.28 353.90Q852.98 353.02 854.03 352.51Q855.09 352 856.48 352Q857.63 352 858.46 352.30Q859.28 352.59 859.83 353.06Q860.38 353.52 860.73 354.05Q861.07 354.58 861.24 355.04Q861.41 355.50 861.46 355.80Q861.52 356.10 861.52 356.10L859.95 356.10Q859.95 356.10 859.89 355.83Q859.82 355.57 859.63 355.18Q859.44 354.78 859.06 354.38Q858.67 353.98 858.05 353.72Q857.42 353.46 856.50 353.46Q855.49 353.46 854.74 353.85Q853.98 354.24 853.48 354.90Q852.98 355.57 852.73 356.39Q852.48 357.22 852.48 358.08Q852.48 358.94 852.73 359.77Q852.98 360.59 853.48 361.26Q853.98 361.92 854.74 362.31Q855.49 362.70 856.50 362.70Q857.42 362.70 858.05 362.43Q858.67 362.16 859.06 361.77Q859.44 361.38 859.63 360.98Q859.82 360.59 859.89 360.32Q859.95 360.05 859.95 360.05L861.52 360.05Q861.52 360.05 861.46 360.34Q861.41 360.64 861.24 361.11Q861.07 361.58 860.73 362.10Q860.38 362.62 859.83 363.10Q859.28 363.57 858.46 363.86Q857.63 364.16 856.48 364.16M865.20 364L863.68 364L863.68 351.84L865.20 351.84L865.20 356.75L865.30 356.75Q865.41 356.56 865.67 356.22Q865.94 355.89 866.43 355.62Q866.93 355.36 867.68 355.36Q868.61 355.36 869.26 355.78Q869.92 356.21 870.26 356.93Q870.61 357.65 870.61 358.54L870.61 364L869.09 364L869.09 358.64Q869.09 357.79 868.62 357.23Q868.14 356.67 867.25 356.67Q866.53 356.67 866.08 357.03Q865.63 357.39 865.42 357.98Q865.20 358.56 865.20 359.22L865.20 364M876.70 364.16Q875.66 364.16 874.90 363.78Q874.14 363.41 873.66 362.77Q873.17 362.13 872.93 361.35Q872.69 360.58 872.69 359.76Q872.69 358.96 872.92 358.18Q873.15 357.39 873.64 356.75Q874.13 356.11 874.87 355.74Q875.62 355.36 876.64 355.36Q877.73 355.36 878.56 355.86Q879.39 356.35 879.87 357.33Q880.35 358.30 880.35 359.78L880.35 360.22L874.22 360.22Q874.27 360.94 874.57 361.54Q874.86 362.14 875.41 362.50Q875.95 362.86 876.70 362.86Q877.36 362.86 877.77 362.65Q878.18 362.43 878.42 362.14Q878.66 361.86 878.74 361.64Q878.83 361.42 878.83 361.42L880.26 361.42Q880.26 361.42 880.18 361.70Q880.10 361.98 879.89 362.38Q879.68 362.78 879.28 363.19Q878.88 363.60 878.26 363.88Q877.63 364.16 876.70 364.16M874.24 359.04L878.86 359.04Q878.83 358.21 878.51 357.69Q878.19 357.17 877.70 356.91Q877.20 356.66 876.64 356.66Q875.63 356.66 874.99 357.30Q874.35 357.95 874.24 359.04M886.37 364.16Q885.33 364.16 884.54 363.78Q883.76 363.41 883.24 362.78Q882.72 362.14 882.46 361.36Q882.19 360.58 882.19 359.76Q882.19 358.94 882.45 358.17Q882.70 357.39 883.22 356.75Q883.74 356.11 884.53 355.74Q885.31 355.36 886.37 355.36Q887.39 355.36 888.06 355.66Q888.74 355.97 889.14 356.42Q889.55 356.88 889.75 357.34Q889.95 357.79 890.02 358.10Q890.08 358.40 890.08 358.40L888.61 358.40Q888.61 358.40 888.53 358.14Q888.45 357.87 888.22 357.54Q888 357.20 887.55 356.94Q887.10 356.67 886.37 356.67Q885.49 356.67 884.89 357.11Q884.29 357.55 883.99 358.26Q883.70 358.96 883.70 359.76Q883.70 360.56 883.99 361.26Q884.29 361.97 884.89 362.41Q885.49 362.85 886.37 362.85Q887.10 362.85 887.55 362.58Q888 362.32 888.22 361.98Q888.45 361.65 888.53 361.38Q888.61 361.12 888.61 361.12L890.08 361.12Q890.08 361.12 890.02 361.42Q889.95 361.73 889.75 362.18Q889.55 362.64 889.14 363.10Q888.74 363.55 888.06 363.86Q887.39 364.16 886.37 364.16M893.84 364L892.32 364L892.32 351.84L893.84 351.84L893.84 358.91L897.22 355.52L899.20 355.52L895.30 359.38L899.28 364L897.34 364L893.84 359.92L893.84 364M902.72 364L901.20 364L901.22 351.84L902.72 351.84L902.72 364M906.11 353.90Q905.68 353.90 905.40 353.62Q905.12 353.33 905.12 352.93Q905.12 352.51 905.40 352.22Q905.68 351.94 906.11 351.94Q906.53 351.94 906.82 352.22Q907.10 352.51 907.10 352.93Q907.10 353.33 906.82 353.62Q906.53 353.90 906.11 353.90M906.88 364L905.36 364L905.36 355.52L906.88 355.52L906.88 364M912.45 364.16Q911.47 364.16 910.84 363.89Q910.21 363.62 909.84 363.21Q909.47 362.80 909.30 362.39Q909.12 361.98 909.07 361.71Q909.02 361.44 909.02 361.44L910.56 361.44Q910.56 361.44 910.62 361.66Q910.67 361.87 910.86 362.15Q911.04 362.43 911.43 362.65Q911.82 362.86 912.48 362.86Q913.23 362.86 913.65 362.50Q914.06 362.14 914.06 361.62Q914.06 361.15 913.74 360.88Q913.41 360.61 912.80 360.46L911.65 360.19Q911.01 360.03 910.45 359.76Q909.89 359.49 909.54 359.02Q909.20 358.54 909.20 357.84Q909.20 356.75 910.02 356.06Q910.83 355.36 912.14 355.36Q913.02 355.36 913.60 355.61Q914.18 355.86 914.52 356.22Q914.86 356.59 915.03 356.96Q915.20 357.33 915.25 357.58Q915.30 357.82 915.30 357.82L913.82 357.82Q913.82 357.82 913.78 357.64Q913.73 357.46 913.56 357.22Q913.39 356.99 913.06 356.81Q912.72 356.62 912.16 356.62Q911.39 356.62 911.04 356.98Q910.69 357.33 910.69 357.74Q910.69 358.14 911.02 358.39Q911.34 358.64 911.87 358.77L913.04 359.04Q914.13 359.30 914.84 359.88Q915.55 360.46 915.55 361.55Q915.55 362.26 915.18 362.86Q914.82 363.46 914.13 363.81Q913.44 364.16 912.45 364.16M920.91 364.16Q919.60 364.16 918.94 363.49Q918.27 362.82 918.27 361.60L918.27 356.77L916.75 356.77L916.75 355.52L918.27 355.52L918.27 353.39L919.79 353.39L919.79 355.52L921.86 355.52L921.86 356.77L919.79 356.77L919.79 361.60Q919.79 362.24 920.14 362.54Q920.50 362.83 921.17 362.83Q921.52 362.83 921.84 362.78Q922.16 362.74 922.16 362.74L922.16 364.03Q922.16 364.03 921.79 364.10Q921.42 364.16 920.91 364.16M932.22 361.97L930.94 361.97L930.94 359.63L928.61 359.63L928.61 358.35L930.94 358.35L930.94 356.02L932.22 356.02L932.22 358.35L934.56 358.35L934.56 359.63L932.22 359.63L932.22 361.97M942.51 364L940.85 364L945.02 352.16L946.99 352.16L951.18 364L949.52 364L948.53 361.17L943.50 361.17L942.51 364M946.02 353.95L943.98 359.76L948.05 359.76L946.02 353.95M954.75 364L953.18 364L953.18 352.16L954.75 352.16L954.75 364M964.43 364.16Q963.12 364.16 962.46 363.49Q961.79 362.82 961.79 361.60L961.79 356.77L960.27 356.77L960.27 355.52L961.79 355.52L961.79 353.39L963.31 353.39L963.31 355.52L965.38 355.52L965.38 356.77L963.31 356.77L963.31 361.60Q963.31 362.24 963.66 362.54Q964.02 362.83 964.69 362.83Q965.04 362.83 965.36 362.78Q965.68 362.74 965.68 362.74L965.68 364.03Q965.68 364.03 965.31 364.10Q964.94 364.16 964.43 364.16M970.45 364.16Q969.18 364.16 968.43 363.38Q967.68 362.59 967.68 361.20L967.68 355.52L969.20 355.52L969.20 361.12Q969.20 361.95 969.66 362.40Q970.11 362.85 970.86 362.85Q971.63 362.85 972.10 362.45Q972.56 362.05 972.77 361.42Q972.98 360.80 972.98 360.14L972.98 355.52L974.27 355.52Q974.90 355.52 974.90 354.86L974.90 353.90L976.24 353.90L976.24 354.86Q976.24 355.60 975.86 356.05Q975.47 356.50 974.69 356.50L974.50 356.50L974.50 364L972.98 364L972.98 362.78L972.88 362.78Q972.78 362.98 972.51 363.30Q972.24 363.63 971.74 363.90Q971.25 364.16 970.45 364.16M984.86 364L983.25 364L980.02 355.52L981.60 355.52L984.08 362.14L986.51 355.52L988.11 355.52L984.86 364M998.32 349.36L996.67 352.26L995.38 352.24L996.75 349.36L998.32 349.36M992.38 354.30L991.01 354.30L992.94 351.95L994.24 351.95L996.18 354.30L994.80 354.30L993.58 352.83L992.38 354.30M993.23 355.36Q994.03 355.36 994.58 355.62Q995.12 355.87 995.46 356.22Q995.79 356.56 995.97 356.86L996.06 356.86L996.06 355.52L997.58 355.52L997.58 364L996.06 364L996.06 362.66L995.97 362.66Q995.79 362.96 995.46 363.31Q995.12 363.66 994.58 363.91Q994.03 364.16 993.23 364.16Q992.27 364.16 991.55 363.78Q990.83 363.41 990.35 362.78Q989.87 362.14 989.63 361.36Q989.39 360.58 989.39 359.76Q989.39 358.94 989.63 358.16Q989.87 357.38 990.35 356.74Q990.83 356.11 991.55 355.74Q992.27 355.36 993.23 355.36M993.49 356.66Q992.64 356.66 992.06 357.11Q991.49 357.57 991.21 358.27Q990.93 358.98 990.93 359.76Q990.93 360.53 991.21 361.24Q991.49 361.95 992.06 362.41Q992.64 362.86 993.49 362.86Q994.34 362.86 994.90 362.41Q995.47 361.95 995.75 361.24Q996.03 360.53 996.03 359.76Q996.03 358.98 995.75 358.27Q995.47 357.57 994.90 357.11Q994.34 356.66 993.49 356.66M1001.44 364L999.92 364L999.92 355.52L1001.44 355.52L1001.44 356.75L1001.54 356.75Q1001.65 356.56 1001.91 356.22Q1002.18 355.89 1002.67 355.62Q1003.17 355.36 1003.92 355.36Q1004.85 355.36 1005.50 355.78Q1006.16 356.21 1006.50 356.93Q1006.85 357.65 1006.85 358.54L1006.85 364L1005.33 364L1005.33 358.64Q1005.33 357.79 1004.86 357.23Q1004.38 356.67 1003.49 356.67Q1002.77 356.67 1002.32 357.03Q1001.87 357.39 1001.66 357.98Q1001.44 358.56 1001.44 359.22" />
</svg>