<svg width="400" height="140" viewBox="0 0 400 140" fill="none" xmlns="http://www.w3.org/2000/svg">
  <defs>
    
    <linearGradient id="docBg" x1="4" y1="4" x2="76" y2="96" gradientUnits="userSpaceOnUse">
      <stop offset="0" stop-color="#20E3B2"/>
      <stop offset="0.5" stop-color="#2F80ED"/>
      <stop offset="1" stop-color="#8B5CF6"/>
    </linearGradient>
    <linearGradient id="docBorder" x1="4" y1="4" x2="76" y2="96" gradientUnits="userSpaceOnUse">
      <stop stop-color="#99F6E4"/>
      <stop offset="1" stop-color="#C4B5FD"/>
    </linearGradient>
    <linearGradient id="foldGrad" x1="52" y1="4" x2="76" y2="32" gradientUnits="userSpaceOnUse">
      <stop stop-color="#2F80ED"/>
      <stop offset="1" stop-color="#1E3A5F"/>
    </linearGradient>
  </defs>

  <!-- Background card -->
  <rect width="400" height="140" rx="32" fill="#08223F"/>

  <!-- Icon: Document with compass needle -->
  <g transform="translate(24,20)">
    <rect x="4" y="4" width="72" height="92" rx="12" fill="url(#docBg)" stroke="url(#docBorder)" stroke-width="2"/>
    <path d="M52 4V24C52 28.4 55.6 32 60 32H76" fill="url(#foldGrad)" stroke="#20E3B2" stroke-width="1.5"/>
    <rect x="16" y="38" width="48" height="4" rx="2" fill="rgba(255,255,255,0.5)"/>
    <rect x="16" y="48" width="40" height="4" rx="2" fill="rgba(255,255,255,0.35)"/>
    <rect x="16" y="58" width="44" height="4" rx="2" fill="rgba(255,255,255,0.35)"/>
    <rect x="16" y="68" width="32" height="4" rx="2" fill="rgba(255,255,255,0.35)"/>
    <path d="M40 14L43.5 22.5L52 24.5L46 30.5L47.5 39L40 35L32.5 39L34 30.5L28 24.5L36.5 22.5L40 14Z" fill="#FBBF24"/>
    <path d="M28 80L36 88L52 72" stroke="#20E3B2" stroke-width="4" stroke-linecap="round" stroke-linejoin="round"/>
  </g>

  <!-- Main text: H? S? Du H?c -->
  <path fill="white" d="M135.11 46L129.92 46L129.92 23.80L135.11 23.80L135.11 32.41L143.09 32.41L143.09 23.80L148.28 23.80L148.28 46L143.09 46L143.09 36.85L135.11 36.85L135.11 46M170.96 17.71L167.27 17.74L163.91 12.34L168.59 12.34L170.96 17.71M160.58 21.64L156.68 21.64L160.64 16.93L164.66 16.93L168.62 21.64L164.72 21.64L162.65 19.12L160.58 21.64M162.65 46.30Q159.80 46.30 157.67 45.33Q155.54 44.35 154.11 42.72Q152.69 41.08 151.97 39.04Q151.25 37 151.25 34.87Q151.25 32.74 151.97 30.71Q152.69 28.69 154.11 27.07Q155.54 25.45 157.67 24.48Q159.80 23.50 162.65 23.50Q165.47 23.50 167.60 24.48Q169.73 25.45 171.15 27.07Q172.58 28.69 173.30 30.71Q174.02 32.74 174.02 34.87Q174.02 37 173.30 39.04Q172.58 41.08 171.15 42.72Q169.73 44.35 167.60 45.33Q165.47 46.30 162.65 46.30M162.65 41.65Q164.60 41.65 165.94 40.66Q167.27 39.67 167.94 38.13Q168.62 36.58 168.62 34.87Q168.62 33.19 167.94 31.65Q167.27 30.10 165.94 29.11Q164.60 28.12 162.65 28.12Q160.67 28.12 159.33 29.11Q158 30.10 157.34 31.65Q156.68 33.19 156.68 34.87Q156.68 36.58 157.34 38.13Q158 39.67 159.33 40.66Q160.67 41.65 162.65 41.65M192.47 46.30Q190.22 46.30 188.65 45.77Q187.07 45.25 186.03 44.41Q185 43.57 184.38 42.64Q183.77 41.71 183.48 40.87Q183.20 40.03 183.11 39.51Q183.02 38.98 183.02 38.98L188.27 38.98Q188.27 38.98 188.39 39.45Q188.51 39.91 188.94 40.51Q189.38 41.11 190.26 41.58Q191.15 42.04 192.65 42.04Q194.51 42.04 195.34 41.29Q196.16 40.54 196.16 39.58Q196.16 38.71 195.54 38.20Q194.93 37.69 193.55 37.42L190.58 36.91Q188.72 36.58 187.09 35.86Q185.45 35.14 184.44 33.82Q183.44 32.50 183.44 30.40Q183.44 28.33 184.47 26.79Q185.51 25.24 187.43 24.37Q189.35 23.50 191.96 23.50Q194 23.50 195.44 24Q196.88 24.49 197.84 25.25Q198.80 26.02 199.38 26.88Q199.97 27.73 200.25 28.51Q200.54 29.29 200.63 29.77Q200.72 30.25 200.72 30.25L195.59 30.25Q195.59 30.25 195.48 29.88Q195.38 29.50 195 29Q194.63 28.51 193.88 28.12Q193.13 27.73 191.84 27.73Q190.04 27.73 189.29 28.50Q188.54 29.26 188.54 30.10Q188.54 31.03 189.37 31.51Q190.19 31.99 191.45 32.23L194.60 32.77Q196.43 33.10 197.96 33.88Q199.49 34.66 200.42 35.98Q201.35 37.30 201.35 39.25Q201.35 41.26 200.31 42.87Q199.28 44.47 197.30 45.38Q195.32 46.30 192.47 46.30M215.06 46.30Q212.21 46.30 210.08 45.33Q207.95 44.35 206.53 42.72Q205.10 41.08 204.38 39.04Q203.66 37 203.66 34.87Q203.66 32.74 204.38 30.71Q205.10 28.69 206.53 27.07Q207.95 25.45 210.08 24.48Q212.21 23.50 215.06 23.50Q215.48 23.50 215.87 23.53L219.80 23.53Q221.51 23.53 221.51 21.79L221.51 20.08L225.83 20.08L225.83 22.36Q225.83 24.13 225.08 25.07Q224.33 26.02 222.71 26.20Q224.57 27.85 225.50 30.16Q226.43 32.47 226.43 34.87Q226.43 37 225.71 39.04Q224.99 41.08 223.56 42.72Q222.14 44.35 220.01 45.33Q217.88 46.30 215.06 46.30M215.06 41.65Q217.01 41.65 218.35 40.66Q219.68 39.67 220.36 38.13Q221.03 36.58 221.03 34.87Q221.03 33.19 220.36 31.65Q219.68 30.10 218.35 29.11Q217.01 28.12 215.06 28.12Q213.08 28.12 211.75 29.11Q210.41 30.10 209.75 31.65Q209.09 33.19 209.09 34.87Q209.09 36.58 209.75 38.13Q210.41 39.67 211.75 40.66Q213.08 41.65 215.06 41.65M245.09 46L236.30 46L236.30 23.80L245.09 23.80Q247.82 23.80 249.89 24.75Q251.96 25.69 253.33 27.28Q254.69 28.87 255.38 30.85Q256.07 32.83 256.07 34.90Q256.07 36.97 255.38 38.95Q254.69 40.93 253.33 42.52Q251.96 44.11 249.89 45.05Q247.82 46 245.09 46M244.85 28.36L241.49 28.36L241.49 41.38L244.85 41.38Q246.92 41.38 248.26 40.42Q249.59 39.46 250.22 37.98Q250.85 36.49 250.85 34.84Q250.85 33.25 250.22 31.75Q249.59 30.25 248.26 29.30Q246.92 28.36 244.85 28.36M268.25 46.30Q266.48 46.30 264.83 45.80Q263.18 45.31 261.88 44.23Q260.57 43.15 259.81 41.41Q259.04 39.67 259.04 37.21L259.04 23.80L264.23 23.80L264.23 37.21Q264.23 38.98 265.20 40.20Q266.18 41.41 268.25 41.41Q270.32 41.41 271.30 40.20Q272.27 38.98 272.27 37.21L272.27 23.80L277.46 23.80L277.46 37.21Q277.46 39.67 276.69 41.41Q275.93 43.15 274.63 44.23Q273.32 45.31 271.67 45.80Q270.02 46.30 268.25 46.30M293.39 46L288.20 46L288.20 23.80L293.39 23.80L293.39 32.41L301.37 32.41L301.37 23.80L306.56 23.80L306.56 46L301.37 46L301.37 36.85L293.39 36.85L293.39 46M320.93 46.30Q318.08 46.30 315.95 45.33Q313.82 44.35 312.39 42.72Q310.97 41.08 310.25 39.04Q309.53 37 309.53 34.87Q309.53 32.74 310.25 30.71Q310.97 28.69 312.39 27.07Q313.82 25.45 315.95 24.48Q318.08 23.50 320.93 23.50Q323.75 23.50 325.88 24.48Q328.01 25.45 329.43 27.07Q330.86 28.69 331.58 30.71Q332.30 32.74 332.30 34.87Q332.30 37 331.58 39.04Q330.86 41.08 329.43 42.72Q328.01 44.35 325.88 45.33Q323.75 46.30 320.93 46.30M320.93 41.65Q322.88 41.65 324.21 40.66Q325.55 39.67 326.22 38.13Q326.90 36.58 326.90 34.87Q326.90 33.19 326.22 31.65Q325.55 30.10 324.21 29.11Q322.88 28.12 320.93 28.12Q318.95 28.12 317.61 29.11Q316.28 30.10 315.62 31.65Q314.96 33.19 314.96 34.87Q314.96 36.58 315.62 38.13Q316.28 39.67 317.61 40.66Q318.95 41.65 320.93 41.65M320.90 53.59Q319.79 53.59 319.08 52.85Q318.38 52.12 318.38 51.07Q318.38 50.02 319.08 49.28Q319.79 48.55 320.90 48.55Q322.01 48.55 322.73 49.28Q323.45 50.02 323.45 51.07Q323.45 52.12 322.73 52.85Q322.01 53.59 320.90 53.59M345.56 46.30Q342.80 46.30 340.70 45.33Q338.60 44.35 337.20 42.72Q335.81 41.08 335.10 39.04Q334.40 37 334.40 34.87Q334.40 32.77 335.10 30.73Q335.81 28.69 337.20 27.07Q338.60 25.45 340.70 24.48Q342.80 23.50 345.56 23.50Q347.93 23.50 349.59 24.09Q351.26 24.67 352.38 25.62Q353.51 26.56 354.18 27.60Q354.86 28.63 355.19 29.56Q355.52 30.49 355.62 31.09Q355.73 31.69 355.73 31.69L350.60 31.69Q350.60 31.69 350.43 31.15Q350.27 30.61 349.77 29.91Q349.28 29.20 348.29 28.66Q347.30 28.12 345.62 28.12Q343.67 28.12 342.36 29.11Q341.06 30.10 340.41 31.65Q339.77 33.19 339.77 34.87Q339.77 36.55 340.41 38.11Q341.06 39.67 342.36 40.66Q343.67 41.65 345.62 41.65Q347.30 41.65 348.29 41.11Q349.28 40.57 349.77 39.88Q350.27 39.19 350.43 38.65Q350.60 38.11 350.60 38.11L355.73 38.11Q355.73 38.11 355.62 38.70Q355.52 39.28 355.19 40.23Q354.86 41.17 354.18 42.20Q353.51 43.24 352.38 44.19Q351.26 45.13 349.59 45.72Q347.93 46.30 345.56 46.30" />

  <!-- Subtitle badge -->
  <rect x="128" y="64" width="248" height="26" rx="13" fill="rgba(45,212,191,0.12)" stroke="rgba(153,246,228,0.2)" stroke-width="1"/>
  <path fill="#CCFBF1" d="M157.96 82L156.27 82L156.27 75.33L153.77 75.33L153.77 73.86L160.46 73.86L160.46 75.33L157.96 75.33L157.96 82M164.99 82.11Q164.10 82.11 163.35 81.77Q162.59 81.43 162.14 80.71Q161.68 80 161.68 78.85L161.68 73.86L163.37 73.86L163.37 78.85Q163.37 79.56 163.77 80.04Q164.16 80.52 164.99 80.52Q165.81 80.52 166.21 80.04Q166.60 79.56 166.60 78.85L166.60 73.86L167.77 73.86Q168.21 73.86 168.21 73.42L168.21 72.64L169.58 72.64L169.58 73.47Q169.58 74.05 169.27 74.38Q168.96 74.72 168.36 74.72L168.30 74.72L168.30 78.85Q168.30 80 167.84 80.71Q167.39 81.43 166.63 81.77Q165.87 82.11 164.99 82.11M165.03 84.72Q164.65 84.72 164.40 84.46Q164.15 84.20 164.15 83.84Q164.15 83.47 164.40 83.22Q164.65 82.97 165.03 82.97Q165.41 82.97 165.66 83.22Q165.90 83.47 165.90 83.84Q165.90 84.20 165.66 84.46Q165.41 84.72 165.03 84.72M178.05 82L172.37 82L172.37 73.86L174.06 73.86L174.06 80.53L178.05 80.53L178.05 82M183.58 73.05L182.34 73.06L181.14 71.07L182.69 71.07L183.58 73.05M180.81 82L179.03 82L181.80 73.86L184.05 73.86L186.82 82L185.04 82L184.51 80.41L181.34 80.41L180.81 82M182.93 75.53L181.80 78.93L184.05 78.93L182.93 75.53M189.57 82L187.90 82L187.90 73.86L190.19 73.86L192.05 78.05L193.96 73.86L196.18 73.86L196.18 82L194.50 82L194.50 76.46L192.83 80.10L191.26 80.10L189.57 76.43L189.57 82M201.90 82L200.20 82L200.20 73.86L201.90 73.86L201.90 77.11L205.06 77.11L205.06 73.86L206.76 73.86L206.76 82L205.06 82L205.06 78.58L201.90 78.58L201.90 82M214.95 71.59L213.71 71.61L212.51 69.63L214.06 69.63L214.95 71.59M211.29 73.02L209.98 73.02L211.40 71.33L212.73 71.33L214.15 73.02L212.84 73.02L212.07 72.09L211.29 73.02M212.06 82.11Q211.05 82.11 210.28 81.75Q209.51 81.39 208.98 80.80Q208.46 80.20 208.20 79.45Q207.94 78.70 207.94 77.92Q207.94 77.14 208.20 76.40Q208.46 75.65 208.98 75.06Q209.51 74.47 210.28 74.11Q211.05 73.75 212.06 73.75Q213.08 73.75 213.85 74.11Q214.62 74.47 215.14 75.06Q215.66 75.65 215.91 76.40Q216.17 77.14 216.17 77.92Q216.17 78.70 215.91 79.45Q215.66 80.20 215.14 80.80Q214.62 81.39 213.85 81.75Q213.08 82.11 212.06 82.11M212.06 80.58Q212.83 80.58 213.36 80.20Q213.88 79.81 214.15 79.20Q214.41 78.59 214.41 77.92Q214.41 77.25 214.15 76.64Q213.88 76.04 213.36 75.65Q212.83 75.27 212.06 75.27Q211.29 75.27 210.77 75.65Q210.24 76.04 209.98 76.64Q209.72 77.25 209.72 77.92Q209.72 78.59 209.98 79.20Q210.24 79.81 210.77 80.20Q211.29 80.58 212.06 80.58M222.93 82.11Q222.13 82.11 221.58 81.92Q221.02 81.72 220.66 81.42Q220.29 81.12 220.07 80.78Q219.85 80.45 219.74 80.15Q219.64 79.84 219.61 79.65Q219.58 79.46 219.58 79.46L221.30 79.46Q221.30 79.46 221.35 79.65Q221.40 79.83 221.56 80.08Q221.73 80.33 222.07 80.51Q222.41 80.69 222.99 80.69Q223.71 80.69 224.05 80.39Q224.39 80.09 224.39 79.67Q224.39 79.29 224.13 79.07Q223.87 78.85 223.33 78.74L222.25 78.53Q221.59 78.41 221.02 78.15Q220.45 77.89 220.10 77.42Q219.75 76.95 219.75 76.21Q219.75 75.47 220.12 74.91Q220.50 74.36 221.17 74.05Q221.85 73.75 222.76 73.75Q223.62 73.75 224.19 74Q224.75 74.25 225.09 74.60Q225.42 74.96 225.58 75.32Q225.74 75.69 225.79 75.93Q225.84 76.17 225.84 76.17L224.17 76.17Q224.17 76.17 224.13 76.02Q224.09 75.86 223.95 75.66Q223.81 75.47 223.52 75.31Q223.22 75.16 222.72 75.16Q222.03 75.16 221.72 75.46Q221.41 75.76 221.41 76.11Q221.41 76.48 221.72 76.68Q222.03 76.87 222.52 76.97L223.68 77.20Q224.34 77.33 224.88 77.61Q225.44 77.90 225.76 78.38Q226.08 78.85 226.08 79.56Q226.08 80.28 225.72 80.86Q225.36 81.44 224.65 81.77Q223.95 82.11 222.93 82.11M231.16 82.11Q230.14 82.11 229.37 81.75Q228.60 81.39 228.08 80.80Q227.56 80.20 227.30 79.45Q227.04 78.70 227.04 77.92Q227.04 77.14 227.30 76.40Q227.56 75.65 228.08 75.06Q228.60 74.47 229.37 74.11Q230.14 73.75 231.16 73.75Q231.29 73.75 231.42 73.76L232.95 73.76Q233.53 73.76 233.53 73.17L233.53 72.53L234.96 72.53L234.96 73.32Q234.96 73.94 234.70 74.28Q234.43 74.62 233.85 74.67Q234.55 75.28 234.91 76.14Q235.27 77.01 235.27 77.92Q235.27 78.70 235.01 79.45Q234.75 80.20 234.23 80.80Q233.72 81.39 232.95 81.75Q232.18 82.11 231.16 82.11M231.16 80.58Q231.93 80.58 232.45 80.20Q232.98 79.81 233.25 79.20Q233.51 78.59 233.51 77.92Q233.51 77.25 233.25 76.64Q232.98 76.04 232.45 75.65Q231.93 75.27 231.16 75.27Q230.38 75.27 229.86 75.65Q229.34 76.04 229.08 76.64Q228.81 77.25 228.81 77.92Q228.81 78.59 229.08 79.20Q229.34 79.81 229.86 80.20Q230.38 80.58 231.16 80.58M241.37 79.80Q240.82 79.80 240.41 79.55Q239.99 79.29 239.75 78.87Q239.52 78.45 239.52 77.94Q239.52 77.42 239.75 77.01Q239.99 76.59 240.41 76.33Q240.82 76.08 241.37 76.08Q241.90 76.08 242.32 76.33Q242.74 76.59 242.98 77.01Q243.22 77.42 243.22 77.94Q243.22 78.45 242.98 78.87Q242.74 79.29 242.32 79.55Q241.90 79.80 241.37 79.80M249.47 82L247.78 82L247.78 73.86L249.47 73.86L249.47 77.30L252.38 73.86L254.47 73.86L251.08 77.77L254.60 82L252.43 82L249.47 78.38L249.47 82M259.51 73.06L258.28 73.07L257.08 71.08L258.63 71.08L259.51 73.06M259.70 82L258.01 82L258.01 79.22L255.15 73.86L257 73.86L258.85 77.48L260.70 73.86L262.56 73.86L259.70 79.22L259.70 82M269.95 82L268.26 82L268.26 75.33L265.76 75.33L265.76 73.86L272.45 73.86L272.45 75.33L269.95 75.33L269.95 82M275.32 82L273.63 82L273.63 73.86L275.32 73.86L275.32 77.11L278.49 77.11L278.49 73.86L280.18 73.86L280.18 82L278.49 82L278.49 78.58L275.32 78.58L275.32 82M286.99 71.07L285.79 73.06L284.55 73.05L285.44 71.07L286.99 71.07M283.04 82L281.26 82L284.03 73.86L286.29 73.86L289.06 82L287.28 82L286.75 80.41L283.57 80.41L283.04 82M285.17 75.53L284.03 78.93L286.29 78.93L285.17 75.53M291.82 82L290.14 82L290.14 73.86L291.69 73.86L295.20 79.05L295.20 73.86L296.88 73.86L296.88 82L295.31 82L291.82 76.95L291.82 82M302.16 82.11Q301.14 82.11 300.37 81.76Q299.60 81.41 299.09 80.81Q298.57 80.21 298.32 79.46Q298.07 78.72 298.07 77.94Q298.07 77.16 298.33 76.41Q298.58 75.66 299.10 75.06Q299.61 74.47 300.39 74.11Q301.17 73.75 302.21 73.75Q303.03 73.75 303.62 73.95Q304.21 74.16 304.60 74.48Q305 74.81 305.23 75.17Q305.47 75.53 305.60 75.86Q305.72 76.18 305.76 76.38Q305.80 76.59 305.80 76.59L304.12 76.59Q304.12 76.59 304.05 76.39Q303.99 76.19 303.79 75.92Q303.59 75.65 303.21 75.45Q302.83 75.25 302.21 75.25Q301.41 75.25 300.88 75.64Q300.34 76.03 300.08 76.64Q299.81 77.25 299.81 77.91Q299.81 78.59 300.08 79.21Q300.36 79.83 300.89 80.22Q301.42 80.61 302.23 80.61Q303.11 80.61 303.62 80.16Q304.13 79.71 304.23 78.94L302.12 78.94L302.12 77.61L305.90 77.61L305.90 78.24Q305.90 79.51 305.41 80.38Q304.92 81.24 304.08 81.68Q303.24 82.11 302.16 82.11M312.60 82.11Q311.81 82.11 311.26 81.91Q310.72 81.71 310.38 81.39Q310.04 81.08 309.84 80.72Q309.65 80.36 309.58 80.04Q309.51 79.71 309.51 79.50L311.11 79.50Q311.11 79.73 311.25 80.01Q311.38 80.30 311.69 80.50Q312 80.71 312.58 80.71Q313.17 80.71 313.56 80.41Q313.95 80.10 313.95 79.58Q313.95 79.12 313.62 78.82Q313.28 78.51 312.66 78.51L311.56 78.51L311.56 77.20L312.68 77.20Q313.20 77.20 313.52 76.91Q313.84 76.62 313.84 76.19Q313.84 75.74 313.48 75.44Q313.12 75.14 312.58 75.14Q312.07 75.14 311.78 75.36Q311.49 75.58 311.36 75.87Q311.23 76.17 311.23 76.39L309.66 76.39Q309.66 76.19 309.73 75.86Q309.80 75.53 309.99 75.17Q310.18 74.81 310.51 74.48Q310.84 74.16 311.35 73.95Q311.86 73.75 312.60 73.75Q313.34 73.75 314 74.02Q314.67 74.29 315.08 74.80Q315.50 75.31 315.50 76.04Q315.50 76.53 315.30 76.89Q315.11 77.25 314.82 77.48Q314.53 77.71 314.25 77.81L314.25 77.88Q314.80 78.07 315.22 78.51Q315.65 78.94 315.65 79.68Q315.65 80.45 315.22 80.99Q314.80 81.54 314.11 81.82Q313.41 82.11 312.60 82.11M317.90 83.99L316.39 83.99L320.22 72.88L321.73 72.88L317.90 83.99M328.41 82L322.39 82L322.39 80.83L323.80 79.64Q324.68 78.90 325.30 78.38Q325.93 77.86 326.26 77.41Q326.59 76.96 326.59 76.44Q326.59 76.05 326.40 75.78Q326.22 75.51 325.93 75.37Q325.63 75.23 325.31 75.23Q324.93 75.23 324.67 75.38Q324.41 75.52 324.26 75.75Q324.12 75.97 324.05 76.21Q323.98 76.46 323.98 76.63L322.36 76.63Q322.36 76.17 322.53 75.67Q322.71 75.17 323.07 74.73Q323.43 74.30 324.01 74.03Q324.58 73.75 325.37 73.75Q326.17 73.75 326.83 74.06Q327.49 74.38 327.89 74.96Q328.30 75.54 328.30 76.33Q328.30 77.08 327.93 77.69Q327.56 78.30 326.90 78.88Q326.24 79.46 325.38 80.13L324.92 80.52L328.41 80.52L328.41 82M332.90 82.11Q332.09 82.11 331.46 81.78Q330.83 81.45 330.39 80.87Q329.95 80.30 329.72 79.54Q329.49 78.78 329.49 77.93Q329.49 77.07 329.72 76.31Q329.95 75.55 330.39 74.98Q330.83 74.40 331.46 74.07Q332.09 73.75 332.90 73.75Q333.72 73.75 334.35 74.07Q334.98 74.40 335.42 74.98Q335.86 75.55 336.09 76.31Q336.31 77.07 336.31 77.93Q336.31 78.78 336.09 79.54Q335.86 80.30 335.42 80.87Q334.98 81.45 334.35 81.78Q333.72 82.11 332.90 82.11M332.90 80.60Q333.63 80.60 334.10 79.93Q334.57 79.26 334.57 77.93Q334.57 76.60 334.10 75.93Q333.63 75.26 332.90 75.26Q332.18 75.26 331.71 75.93Q331.24 76.60 331.24 77.93Q331.24 79.26 331.71 79.93Q332.18 80.60 332.90 80.60M343.41 82L337.39 82L337.39 80.83L338.80 79.64Q339.68 78.90 340.31 78.38Q340.93 77.86 341.26 77.41Q341.59 76.96 341.59 76.44Q341.59 76.05 341.41 75.78Q341.22 75.51 340.93 75.37Q340.64 75.23 340.32 75.23Q339.93 75.23 339.68 75.38Q339.42 75.52 339.27 75.75Q339.12 75.97 339.05 76.21Q338.99 76.46 338.99 76.63L337.36 76.63Q337.36 76.17 337.54 75.67Q337.71 75.17 338.07 74.73Q338.44 74.30 339.01 74.03Q339.58 73.75 340.37 73.75Q341.18 73.75 341.84 74.06Q342.50 74.38 342.90 74.96Q343.30 75.54 343.30 76.33Q343.30 77.08 342.93 77.69Q342.56 78.30 341.90 78.88Q341.24 79.46 340.38 80.13L339.92 80.52L343.41 80.52L343.41 82M347.48 82L345.79 82Q345.84 80.73 346.16 79.66Q346.48 78.59 346.92 77.74Q347.36 76.89 347.79 76.27Q348.22 75.66 348.50 75.33L344.48 75.33L344.48 73.86L350.39 73.86L350.39 75.07Q350.39 75.07 350.11 75.38Q349.83 75.70 349.42 76.29Q349 76.89 348.57 77.74Q348.15 78.59 347.84 79.66Q347.53 80.73 347.48 82" />

  <!-- Bottom hint: purpose -->
  <path fill="rgba(153,246,228,0.5)" d="M132.06 112.10Q131.16 112.10 130.49 111.78Q129.81 111.45 129.35 110.91Q128.90 110.36 128.68 109.69Q128.45 109.01 128.45 108.30Q128.45 107.59 128.68 106.91Q128.90 106.23 129.35 105.69Q129.81 105.14 130.49 104.82Q131.16 104.50 132.06 104.50Q132.81 104.50 133.35 104.69Q133.89 104.88 134.25 105.18Q134.61 105.48 134.82 105.82Q135.04 106.16 135.15 106.46Q135.26 106.76 135.29 106.95Q135.33 107.14 135.33 107.14L133.98 107.14Q133.98 107.14 133.94 107Q133.91 106.86 133.81 106.64Q133.70 106.43 133.49 106.22Q133.28 106.01 132.94 105.87Q132.59 105.73 132.08 105.73Q131.52 105.73 131.10 105.94Q130.68 106.16 130.40 106.53Q130.12 106.90 129.99 107.36Q129.85 107.82 129.85 108.30Q129.85 108.78 129.99 109.23Q130.12 109.69 130.40 110.06Q130.68 110.43 131.10 110.65Q131.52 110.87 132.08 110.87Q132.59 110.87 132.94 110.72Q133.28 110.58 133.49 110.37Q133.70 110.16 133.81 109.95Q133.91 109.74 133.94 109.59Q133.98 109.45 133.98 109.45L135.33 109.45Q135.33 109.45 135.29 109.64Q135.26 109.83 135.15 110.14Q135.04 110.44 134.82 110.78Q134.61 111.11 134.25 111.42Q133.89 111.72 133.35 111.91Q132.81 112.10 132.06 112.10M138.34 106L137.26 106L138.52 104.24L139.60 104.24L140.86 106L139.78 106L139.06 104.95L138.34 106M139.06 112.10Q138.18 112.10 137.57 111.71Q136.97 111.32 136.66 110.69Q136.34 110.07 136.34 109.35Q136.34 108.63 136.66 108Q136.97 107.38 137.57 106.99Q138.18 106.60 139.06 106.60Q139.94 106.60 140.54 106.99Q141.15 107.38 141.47 108Q141.78 108.63 141.78 109.35Q141.78 110.07 141.47 110.69Q141.15 111.32 140.54 111.71Q139.94 112.10 139.06 112.10M139.06 110.99Q139.50 110.99 139.81 110.76Q140.12 110.53 140.28 110.16Q140.44 109.78 140.44 109.35Q140.44 108.91 140.28 108.54Q140.12 108.17 139.81 107.94Q139.50 107.71 139.06 107.71Q138.62 107.71 138.31 107.94Q138 108.17 137.84 108.54Q137.68 108.91 137.68 109.35Q137.68 109.78 137.84 110.16Q138 110.53 138.31 110.76Q138.62 110.99 139.06 110.99M144.25 112L142.92 112L142.92 106.70L144.25 106.70L144.25 107.46L144.31 107.46Q144.39 107.32 144.56 107.11Q144.73 106.91 145.03 106.75Q145.33 106.60 145.79 106.60Q146.40 106.60 146.80 106.88Q147.19 107.15 147.39 107.60Q147.58 108.05 147.58 108.57L147.58 112L146.25 112L146.25 108.75Q146.25 108.32 146.01 108.01Q145.77 107.70 145.29 107.70Q144.92 107.70 144.69 107.89Q144.46 108.07 144.36 108.36Q144.25 108.65 144.25 108.97L144.25 112M151.44 114.12Q150.73 114.12 150.27 113.94Q149.80 113.75 149.53 113.48Q149.26 113.22 149.13 112.95QNaN 112.68 148.96 112.50Q148.92 112.32 148.92 112.32L150.22 112.32Q150.22 112.32 150.26 112.43Q150.30 112.54 150.43 112.69Q150.55 112.83 150.79 112.94Q151.03 113.05 151.43 113.05Q152.13 113.05 152.44 112.65Q152.75 112.25 152.75 111.68L152.75 111.09L152.69 111.09Q152.58 111.26 152.38 111.46Q152.17 111.66 151.85 111.80Q151.52 111.94 151.06 111.94Q150.47 111.94 150.03 111.71Q149.59 111.48 149.29 111.10Q148.99 110.72 148.85 110.25Q148.70 109.77 148.70 109.27Q148.70 108.77 148.85 108.30Q148.99 107.82 149.29 107.44Q149.59 107.05 150.03 106.83Q150.47 106.60 151.06 106.60Q151.52 106.60 151.85 106.74Q152.17 106.88 152.38 107.08Q152.58 107.27 152.69 107.44L152.75 107.44L152.75 106.70L154.08 106.70L154.08 111.67Q154.08 112.36 153.79 112.92Q153.50 113.47 152.92 113.80Q152.33 114.12 151.44 114.12M151.41 110.87Q151.86 110.87 152.16 110.64Q152.46 110.40 152.61 110.03Q152.76 109.67 152.76 109.27Q152.76 108.86 152.61 108.50Q152.46 108.13 152.16 107.90Q151.86 107.67 151.41 107.67Q150.95 107.67 150.65 107.90Q150.34 108.13 150.19 108.50Q150.04 108.86 150.04 109.27Q150.04 109.67 150.19 110.03Q150.34 110.40 150.65 110.64Q150.95 110.87 151.41 110.87M160.25 112.10Q159.57 112.10 159.06 111.86Q158.55 111.63 158.21 111.23Q157.87 110.84 157.71 110.35Q157.54 109.86 157.54 109.35Q157.54 108.84 157.71 108.35Q157.87 107.86 158.21 107.47Q158.54 107.07 159.05 106.83Q159.56 106.60 160.25 106.60Q160.93 106.60 161.38 106.80Q161.83 107 162.10 107.30Q162.36 107.60 162.49 107.89Q162.62 108.19 162.66 108.39Q162.70 108.59 162.70 108.59L161.45 108.59Q161.45 108.59 161.41 108.45Q161.37 108.32 161.25 108.14Q161.13 107.96 160.90 107.82Q160.66 107.68 160.27 107.68Q159.81 107.68 159.50 107.92Q159.18 108.15 159.02 108.53Q158.86 108.91 158.86 109.35Q158.86 109.79 159.02 110.17Q159.18 110.55 159.50 110.78Q159.81 111.02 160.27 111.02Q160.66 111.02 160.90 110.88Q161.13 110.74 161.25 110.56Q161.37 110.38 161.41 110.25Q161.45 110.11 161.45 110.11L162.70 110.11Q162.70 110.11 162.66 110.31Q162.62 110.51 162.49 110.81Q162.36 111.10 162.10 111.40Q161.83 111.70 161.38 111.90Q160.93 112.10 160.25 112.10M165.65 112.10Q164.82 112.10 164.40 111.59Q163.97 111.08 163.97 110.28L163.97 106.70L165.29 106.70L165.29 110.06Q165.29 110.49 165.52 110.75Q165.75 111 166.17 111Q166.54 111 166.77 110.81QNaN 110.62 167.11 110.32Q167.21 110.02 167.21 109.70L167.21 106.70L168.54 106.70L168.54 112L167.21 112L167.21 111.24L167.15 111.24Q167.05 111.42 166.87 111.62Q166.68 111.82 166.39 111.96Q166.09 112.10 165.65 112.10M166.24 114.40Q165.91 114.40 165.70 114.18Q165.49 113.96 165.49 113.66Q165.49 113.35 165.70 113.13Q165.91 112.91 166.24 112.91Q166.56 112.91 166.77 113.13Q166.98 113.35 166.98 113.66Q166.98 113.96 166.77 114.18Q166.56 114.40 166.24 114.40M173.57 112L172.24 112L172.24 104.40L173.57 104.40L173.57 107.46L173.63 107.46Q173.71 107.32 173.88 107.11Q174.05 106.91 174.35 106.75Q174.65 106.60 175.11 106.60Q175.72 106.60 176.12 106.88Q176.51 107.15 176.71 107.60Q176.90 108.05 176.90 108.57L176.90 112L175.57 112L175.57 108.75Q175.57 108.32 175.33 108.01Q175.09 107.70 174.61 107.70Q174.24 107.70 174.01 107.89Q173.78 108.07 173.68 108.36Q173.57 108.65 173.57 108.97L173.57 112M181.46 104.11Q181.19 104.11 181 104.02Q180.80 103.92 180.66 103.80Q180.52 103.67 180.40 103.58Q180.27 103.48 180.13 103.48Q179.97 103.48 179.91 103.64Q179.84 103.79 179.84 104.05L179.08 104.05Q179.08 103.73 179.16 103.41Q179.24 103.08 179.45 102.86Q179.66 102.64 180.05 102.64Q180.33 102.64 180.52 102.73Q180.71 102.83 180.86 102.95QNaN 103.08 181.13 103.17Q181.25 103.27 181.38 103.27Q181.53 103.27 181.60 103.12Q181.67 102.97 181.67 102.70L182.42 102.70Q182.42 103.02 182.35 103.35Q182.27 103.68 182.06 103.89Q181.85 104.11 181.46 104.11M180.03 106L178.95 106L180.21 104.48L181.29 104.48L182.55 106L181.47 106L180.75 105.13L180.03 106M180.76 112.10Q179.88 112.10 179.28 111.71Q178.67 111.32 178.36 110.69Q178.04 110.07 178.04 109.35Q178.04 108.63 178.36 108Q178.67 107.38 179.28 106.99Q179.88 106.60 180.76 106.60Q181.64 106.60 182.25 106.99Q182.85 107.38 183.17 108Q183.48 108.63 183.48 109.35Q183.48 110.07 183.17 110.69Q182.85 111.32 182.25 111.71Q181.64 112.10 180.76 112.10M180.76 110.99Q181.20 110.99 181.51 110.76Q181.82 110.53 181.98 110.16Q182.14 109.78 182.14 109.35Q182.14 108.91 181.98 108.54Q181.82 108.17 181.51 107.94Q181.20 107.71 180.76 107.71Q180.32 107.71 180.01 107.94Q179.70 108.17 179.54 108.54Q179.38 108.91 179.38 109.35Q179.38 109.78 179.54 110.16Q179.70 110.53 180.01 110.76Q180.32 110.99 180.76 110.99M189.35 112.10Q188.81 112.10 188.46 111.94Q188.11 111.78 187.92 111.52Q187.72 111.26 187.64 110.95Q187.56 110.64 187.56 110.34L187.56 107.77L186.65 107.77L186.65 106.70L187.56 106.70L187.56 105.38L188.89 105.38L188.89 106.70L190.08 106.70L190.08 107.77L188.89 107.77L188.89 110.31Q188.89 111.02 189.69 111.02Q189.88 111.02 190.05 111Q190.21 110.97 190.21 110.97L190.21 112.01Q190.21 112.01 189.96 112.06Q189.70 112.10 189.35 112.10M192.63 112L191.30 112L191.30 106.70L192.62 106.70L192.62 107.43L192.67 107.43Q192.81 107.12 193.13 106.86Q193.45 106.60 194.09 106.60Q194.29 106.60 194.42 106.63Q194.55 106.65 194.55 106.65L194.55 107.94Q194.55 107.94 194.41 107.92Q194.26 107.90 194.05 107.90Q193.35 107.90 192.99 108.29Q192.63 108.68 192.63 109.55L192.63 112M197.84 112.10Q196.96 112.10 196.36 111.71Q195.75 111.32 195.44 110.69Q195.12 110.07 195.12 109.35Q195.12 108.63 195.44 108Q195.75 107.38 196.36 106.99Q196.96 106.60 197.84 106.60L199.14 106.60Q199.53 106.60 199.53 106.19L199.53 105.52L200.63 105.52L200.63 106.23Q200.63 106.70 200.41 106.98Q200.18 107.26 199.73 107.31Q200.14 107.70 200.35 108.23Q200.56 108.76 200.56 109.35Q200.56 110.07 200.25 110.69Q199.93 111.32 199.33 111.71Q198.72 112.10 197.84 112.10M197.84 110.99Q198.28 110.99 198.59 110.76Q198.90 110.53 199.06 110.16Q199.22 109.78 199.22 109.35Q199.22 108.91 199.06 108.54Q198.90 108.17 198.59 107.94Q198.28 107.71 197.84 107.71Q197.40 107.71 197.09 107.94Q196.78 108.17 196.62 108.54Q196.46 108.91 196.46 109.35Q196.46 109.78 196.62 110.16Q196.78 110.53 197.09 110.76Q197.40 110.99 197.84 110.99M198.07 114.40Q197.74 114.40 197.53 114.18Q197.32 113.96 197.32 113.66Q197.32 113.35 197.53 113.13Q197.74 112.91 198.07 112.91Q198.39 112.91 198.60 113.13Q198.81 113.35 198.81 113.66Q198.81 113.96 198.60 114.18Q198.39 114.40 198.07 114.40M206.43 112.10Q205.89 112.10 205.54 111.94Q205.19 111.78 205 111.52Q204.80 111.26 204.72 110.95Q204.64 110.64 204.64 110.34L204.64 107.77L203.73 107.77L203.73 106.70L204.64 106.70L204.64 105.38L205.97 105.38L205.97 106.70L207.16 106.70L207.16 107.77L205.97 107.77L205.97 110.31Q205.97 111.02 206.77 111.02Q206.96 111.02 207.13 111Q207.29 110.97 207.29 110.97L207.29 112.01Q207.29 112.01 207.04 112.06Q206.78 112.10 206.43 112.10M210.17 112.10Q209.34 112.10 208.92 111.59Q208.49 111.08 208.49 110.28L208.49 106.70L209.81 106.70L209.81 110.06Q209.81 110.49 210.04 110.75Q210.27 111 210.69 111Q211.06 111 211.29 110.81Q211.52 110.62 211.63 110.32Q211.73 110.02 211.73 109.70L211.73 106.70L212.70 106.70Q213.09 106.70 213.09 106.29L213.09 105.62L214.18 105.62L214.18 106.33Q214.18 106.84 213.92 107.13Q213.65 107.42 213.13 107.42L213.06 107.42L213.06 112L211.73 112L211.73 111.24L211.67 111.24Q211.57 111.42 211.39 111.62Q211.20 111.82 210.91 111.96Q210.61 112.10 210.17 112.10M210.70 114.40Q210.37 114.40 210.16 114.18Q209.95 113.96 209.95 113.66Q209.95 113.35 210.16 113.13Q210.37 112.91 210.70 112.91Q211.02 112.91 211.23 113.13Q211.44 113.35 211.44 113.66Q211.44 113.96 211.23 114.18Q211.02 114.40 210.70 114.40M218.09 112L216.76 112L216.77 104.40L218.09 104.40L218.09 112M222.61 105.93L221.60 105.94L220.52 104.14L221.79 104.14L222.61 105.93M221.69 106.60Q222.20 106.60 222.53 106.77Q222.86 106.93 223.05 107.13Q223.24 107.32 223.31 107.44L223.37 107.44L223.37 106.70L224.70 106.70L224.70 112L223.37 112L223.37 111.26L223.31 111.26Q223.24 111.38 223.05 111.58Q222.86 111.78 222.53 111.94Q222.20 112.10 221.69 112.10Q221.10 112.10 220.66 111.86Q220.22 111.63 219.93 111.23Q219.63 110.84 219.49 110.35Q219.34 109.86 219.34 109.35Q219.34 108.84 219.49 108.35Q219.63 107.86 219.93 107.47Q220.22 107.07 220.66 106.83Q221.10 106.60 221.69 106.60M222.04 107.69Q221.59 107.69 221.29 107.94Q220.98 108.18 220.83 108.56Q220.68 108.94 220.68 109.35Q220.68 109.76 220.83 110.14Q220.98 110.52 221.29 110.77Q221.59 111.01 222.04 111.01Q222.49 111.01 222.79 110.77Q223.09 110.52 223.24 110.14Q223.39 109.76 223.39 109.35Q223.39 108.94 223.24 108.56Q223.09 108.18 222.79 107.94Q222.49 107.69 222.04 107.69M227.34 112L226.01 112L226.01 106.70L227.34 106.70L227.34 107.44L227.39 107.44Q227.49 107.26 227.67 107.06Q227.85 106.87 228.14 106.73Q228.42 106.60 228.84 106.60Q229.43 106.60 229.81 106.88Q230.19 107.16 230.37 107.60L230.39 107.60Q230.59 107.22 230.99 106.91Q231.38 106.60 232.04 106.60Q232.60 106.60 232.98 106.86Q233.35 107.11 233.54 107.54Q233.72 107.97 233.72 108.47L233.72 112L232.39 112L232.39 108.75Q232.39 108.29 232.17 108Q231.94 107.70 231.50 107.70Q231.15 107.70 230.94 107.89Q230.72 108.07 230.63 108.35Q230.53 108.63 230.53 108.92L230.53 112L229.20 112L229.20 108.75Q229.20 108.29 228.98 108Q228.76 107.70 228.31 107.70Q227.96 107.70 227.75 107.89Q227.53 108.07 227.44 108.36Q227.34 108.64 227.34 108.92L227.34 112M238.69 112L237.36 112L237.36 104.40L238.69 104.40L238.69 107.46L238.75 107.46Q238.83 107.32 NaN 107.11Q239.17 106.91 239.47 106.75Q239.77 106.60 240.23 106.60Q240.84 106.60 241.24 106.88Q241.63 107.15 241.83 107.60Q242.02 108.05 242.02 108.57L242.02 112L240.69 112L240.69 108.75Q240.69 108.32 240.45 108.01Q240.21 107.70 239.73 107.70Q239.36 107.70 239.13 107.89Q238.90 108.07 238.80 108.36Q238.69 108.65 238.69 108.97L238.69 112M248.35 104.70L247.33 104.71L246.26 102.91L247.53 102.91L248.35 104.70M245.16 106L244.08 106L245.34 104.48L246.42 104.48L247.68 106L246.60 106L245.88 105.13L245.16 106M245.88 112.10QNaN 112.10 244.40 111.71Q243.79 111.32 243.48 110.69Q243.16 110.07 243.16 109.35Q243.16 108.63 243.48 108Q243.79 107.38 244.40 106.99QNaN 106.60 245.88 106.60Q246.76 106.60 247.37 106.99Q247.97 107.38 248.29 108Q248.60 108.63 248.60 109.35Q248.60 110.07 248.29 110.69Q247.97 111.32 247.37 111.71Q246.76 112.10 245.88 112.10M245.88 110.99Q246.32 110.99 246.63 110.76Q246.94 110.53 247.10 110.16Q247.26 109.78 247.26 109.35Q247.26 108.91 247.10 108.54Q246.94 108.17 246.63 107.94Q246.32 107.71 245.88 107.71Q245.44 107.71 245.13 107.94Q244.82 108.17 244.66 108.54Q244.50 108.91 244.50 109.35Q244.50 109.78 244.66 110.16Q244.82 110.53 245.13 110.76Q245.44 110.99 245.88 110.99M254.22 112.10Q253.57 112.10 253.15 111.92Q252.73 111.75 252.49 111.48Q252.24 111.22 252.12 110.96QNaN 110.70 251.97 110.53Q251.93 110.35 251.93 110.35L253.19 110.35Q253.19 110.35 253.23 110.46Q253.26 110.57 253.37 110.72Q253.47 110.86 253.69 110.97Q253.91 111.08 254.27 111.08Q254.70 111.08 254.89 110.89Q255.08 110.71 255.08 110.48Q255.08 110.26 254.92 110.13Q254.75 109.99 254.43 109.92L253.70 109.77Q253.26 109.68 252.88 109.50Q252.50 109.33 252.26 109.03Q252.02 108.72 252.02 108.24Q252.02 107.53 252.56 107.06Q253.10 106.60 254.03 106.60Q254.62 106.60 255.01 106.76Q255.39 106.92 255.63 107.16Q255.86 107.40 255.98 107.64Q256.09 107.88 256.13 108.05Q256.16 108.21 256.16 108.21L254.94 108.21Q254.94 108.21 254.91 108.11Q254.88 108.02 254.79 107.90Q254.69 107.78 254.51 107.69Q254.32 107.59 254.01 107.59Q253.59 107.59 253.42 107.77Q253.24 107.95 253.24 108.15Q253.24 108.37 253.43 108.49Q253.62 108.61 253.92 108.67L254.61 108.82Q255.35 108.97 255.83 109.34Q256.30 109.71 256.30 110.41Q256.30 110.88 256.06 111.27Q255.81 111.65 255.35 111.88Q254.88 112.10 254.22 112.10M259.93 112.10Q259.06 112.10 258.45 111.71Q257.84 111.32 257.53 110.69Q257.21 110.07 257.21 109.35Q257.21 108.63 257.53 108Q257.84 107.38 258.45 106.99Q259.06 106.60 259.93 106.60L261.23 106.60Q261.63 106.60 261.63 106.19L261.63 105.52L262.72 105.52L262.72 106.23Q262.72 106.70 262.50 106.98Q262.27 107.26 261.83 107.31Q262.23 107.70 262.44 108.23Q262.65 108.76 262.65 109.35Q262.65 110.07 262.34 110.69Q262.02 111.32 261.42 111.71Q260.81 112.10 259.93 112.10M259.93 110.99Q260.38 110.99 260.69 110.76Q260.99 110.53 261.15 110.16Q261.31 109.78 261.31 109.35Q261.31 108.91 261.15 108.54Q260.99 108.17 260.69 107.94Q260.38 107.71 259.93 107.71Q259.49 107.71 259.18 107.94Q258.87 108.17 258.71 108.54Q258.55 108.91 258.55 109.35Q258.55 109.78 258.71 110.16Q258.87 110.53 259.18 110.76Q259.49 110.99 259.93 110.99M268.46 112.10Q267.87 112.10 267.43 111.86Q266.99 111.63 266.70 111.23Q266.40 110.84 266.26 110.35Q266.11 109.86 266.11 109.35Q266.11 108.84 266.26 108.35Q266.40 107.86 266.70 107.47Q266.99 107.07 267.43 106.83Q267.87 106.60 268.46 106.60Q268.97 106.60 269.30 106.77Q269.63 106.93 269.82 107.13Q270.01 107.32 270.08 107.44L270.14 107.44L270.14 104.40L271.47 104.40L271.47 112L270.14 112L270.14 111.26L270.08 111.26Q270.01 111.38 269.82 111.58Q269.63 111.78 269.30 111.94Q268.97 112.10 268.46 112.10M268.81 111.01Q269.26 111.01 269.56 110.77Q269.86 110.52 270.01 110.14Q270.16 109.76 270.16 109.35Q270.16 108.94 270.01 108.56Q269.86 108.18 269.56 107.94Q269.26 107.69 268.81 107.69Q268.36 107.69 268.06 107.94Q267.75 108.18 267.60 108.56Q267.45 108.94 267.45 109.35Q267.45 109.76 267.60 110.14Q267.75 110.52 268.06 110.77Q268.36 111.01 268.81 111.01M274.49 112.10Q273.66 112.10 273.24 111.59Q272.81 111.08 272.81 110.28L272.81 106.70L274.13 106.70L274.13 110.06Q274.13 110.49 274.36 110.75Q274.59 111 275.01 111Q275.38 111 275.61 110.81Q275.84 110.62 275.95 110.32Q276.05 110.02 276.05 109.70L276.05 106.70L277.38 106.70L277.38 112L276.05 112L276.05 111.24L275.99 111.24Q275.89 111.42 275.71 111.62Q275.52 111.82 275.23 111.96Q274.93 112.10 274.49 112.10M282.35 112L281.02 112L281.02 104.40L282.35 104.40L282.35 107.46L282.41 107.46Q282.49 107.32 282.66 107.11Q282.83 106.91 283.13 106.75Q283.43 106.60 283.89 106.60Q284.50 106.60 284.90 106.88Q285.29 107.15 285.49 107.60Q285.68 108.05 285.68 108.57L285.68 112L284.35 112L284.35 108.75Q284.35 108.32 284.11 108.01Q283.87 107.70 283.39 107.70Q283.02 107.70 282.79 107.89Q282.56 108.07 282.46 108.36Q282.35 108.65 282.35 108.97L282.35 112M289.54 112.10Q288.66 112.10 288.06 111.71Q287.45 111.32 287.14 110.69Q286.82 110.07 286.82 109.35Q286.82 108.63 287.14 108Q287.45 107.38 288.06 106.99Q288.66 106.60 289.54 106.60Q290.42 106.60 291.03 106.99Q291.63 107.38 291.95 108Q292.26 108.63 292.26 109.35Q292.26 110.07 291.95 110.69Q291.63 111.32 291.03 111.71Q290.42 112.10 289.54 112.10M289.54 110.99Q289.98 110.99 290.29 110.76Q290.60 110.53 290.76 110.16Q290.92 109.78 290.92 109.35Q290.92 108.91 290.76 108.54Q290.60 108.17 290.29 107.94Q289.98 107.71 289.54 107.71Q289.10 107.71 288.79 107.94Q288.48 108.17 288.32 108.54Q288.16 108.91 288.16 109.35Q288.16 109.78 288.32 110.16Q288.48 110.53 288.79 110.76Q289.10 110.99 289.54 110.99M289.54 114.40Q289.21 114.40 NaN 114.18Q288.79 113.96 288.79 113.66Q288.79 113.35 NaN 113.13Q289.21 112.91 289.54 112.91Q289.86 112.91 290.07 113.13Q290.28 113.35 290.28 113.66Q290.28 113.96 290.07 114.18Q289.86 114.40 289.54 114.40M296.02 112.10Q295.34 112.10 294.83 111.86Q294.32 111.63 293.98 111.23Q293.64 110.84 293.48 110.35Q293.31 109.86 293.31 109.35Q293.31 108.84 293.48 108.35Q293.64 107.86 293.98 107.47Q294.31 107.07 294.82 106.83Q295.33 106.60 296.02 106.60Q296.70 106.60 297.15 106.80Q297.60 107 297.87 107.30Q298.13 107.60 298.26 107.89Q298.39 108.19 298.43 108.39Q298.47 108.59 298.47 108.59L297.22 108.59Q297.22 108.59 297.18 108.45Q297.14 108.32 297.02 108.14Q296.90 107.96 296.67 107.82Q296.43 107.68 296.04 107.68Q295.58 107.68 295.27 107.92Q294.95 108.15 294.79 108.53Q294.63 108.91 294.63 109.35Q294.63 109.79 294.79 110.17Q294.95 110.55 295.27 110.78Q295.58 111.02 296.04 111.02Q296.43 111.02 296.67 110.88Q296.90 110.74 297.02 110.56Q297.14 110.38 297.18 110.25Q297.22 110.11 297.22 110.11L298.47 110.11Q298.47 110.11 298.43 110.31Q298.39 110.51 298.26 110.81Q298.13 111.10 297.87 111.40Q297.60 111.70 297.15 111.90Q296.70 112.10 296.02 112.10M303.39 112L302.03 112L302.03 104.60L303.39 104.60L303.39 107.64L306.48 107.64L306.48 104.60L307.84 104.60L307.84 112L306.48 112L306.48 108.82L303.39 108.82L303.39 112M312.36 105.93L311.35 105.94L310.27 104.14L311.54 104.14L312.36 105.93M311.44 106.60Q311.95 106.60 312.28 106.77Q312.61 106.93 312.80 107.13Q312.99 107.32 313.06 107.44L313.12 107.44L313.12 106.70L314.45 106.70L314.45 112L313.12 112L313.12 111.26L313.06 111.26Q312.99 111.38 312.80 111.58Q312.61 111.78 312.28 111.94Q311.95 112.10 311.44 112.10Q310.85 112.10 310.41 111.86Q309.97 111.63 309.68 111.23Q309.38 110.84 309.24 110.35Q309.09 109.86 309.09 109.35Q309.09 108.84 309.24 108.35Q309.38 107.86 309.68 107.47Q309.97 107.07 310.41 106.83Q310.85 106.60 311.44 106.60M311.79 107.69Q311.34 107.69 311.04 107.94Q310.73 108.18 310.58 108.56Q310.43 108.94 310.43 109.35Q310.43 109.76 310.58 110.14Q310.73 110.52 311.04 110.77Q311.34 111.01 311.79 111.01Q312.24 111.01 312.54 110.77Q312.84 110.52 312.99 110.14Q313.14 109.76 313.14 109.35Q313.14 108.94 312.99 108.56Q312.84 108.18 312.54 107.94Q312.24 107.69 311.79 107.69M317.09 112L315.76 112L315.76 106.70L317.09 106.70L317.09 107.46L317.15 107.46Q317.23 107.32 317.40 107.11Q317.57 106.91 317.87 106.75Q318.17 106.60 318.63 106.60Q319.24 106.60 319.64 106.88Q320.03 107.15 320.23 107.60Q320.42 108.05 320.42 108.57L320.42 112L319.09 112L319.09 108.75Q319.09 108.32 318.85 108.01Q318.61 107.70 318.13 107.70Q317.76 107.70 317.53 107.89Q317.30 108.07 317.20 108.36Q317.09 108.65 317.09 108.97L317.09 112M327.48 112.10Q326.57 112.10 325.88 111.78Q325.19 111.45 324.73 110.91Q324.26 110.36 324.03 109.68Q323.79 109 323.79 108.29Q323.79 107.58 324.03 106.91Q324.26 106.23 324.73 105.69Q325.19 105.15 325.88 104.83Q326.57 104.50 327.48 104.50Q328.39 104.50 329.08 104.83Q329.77 105.15 330.24 105.69Q330.70 106.23 330.94 106.91Q331.17 107.58 331.17 108.29Q331.17 108.99 330.95 109.66Q330.72 110.33 330.27 110.86L331.33 112L329.82 112L329.43 111.59Q329.03 111.83 328.55 111.97Q328.06 112.10 327.48 112.10M327.48 110.87Q327.78 110.87 328.04 110.81Q328.30 110.74 328.52 110.62L327.37 109.40L328.23 108.66L329.34 109.86Q329.55 109.52 329.66 109.11Q329.77 108.71 329.77 108.29Q329.77 107.64 329.51 107.06Q329.24 106.47 328.74 106.10Q328.23 105.73 327.48 105.73Q326.73 105.73 326.22 106.10Q325.71 106.47 325.45 107.06Q325.19 107.64 325.19 108.29Q325.19 108.95 325.45 109.54Q325.71 110.13 326.22 110.50Q326.73 110.87 327.48 110.87M333.89 112.10Q333.06 112.10 332.64 111.59Q332.21 111.08 332.21 110.28L332.21 106.70L333.53 106.70L333.53 110.06Q333.53 110.49 333.76 110.75Q333.99 111 334.41 111Q334.78 111 335.01 110.81Q335.24 110.62 335.35 110.32Q335.45 110.02 335.45 109.70L335.45 106.70L336.78 106.70L336.78 112L335.45 112L335.45 111.24L335.39 111.24Q335.29 111.42 335.11 111.62Q334.92 111.82 334.63 111.96Q334.33 112.10 333.89 112.10M343.99 102.91L342.92 104.71L341.90 104.70L342.72 102.91L343.99 102.91M339.95 106L338.87 106L340.14 104.48L341.21 104.48L342.48 106L341.40 106L340.67 105.13L339.95 106M340.68 112.10Q339.80 112.10 339.20 111.71Q338.59 111.32 338.28 110.69Q337.96 110.07 337.96 109.35Q337.96 108.63 338.28 108Q338.59 107.38 339.20 106.99Q339.80 106.60 340.68 106.60Q341.56 106.60 342.17 106.99Q342.77 107.38 343.09 108Q343.40 108.63 343.40 109.35Q343.40 110.07 343.09 110.69Q342.77 111.32 342.17 111.71Q341.56 112.10 340.68 112.10M340.68 110.99Q341.12 110.99 341.43 110.76Q341.74 110.53 341.90 110.16Q342.06 109.78 342.06 109.35Q342.06 108.91 341.90 108.54Q341.74 108.17 341.43 107.94Q341.12 107.71 340.68 107.71Q340.24 107.71 339.93 107.94Q339.62 108.17 339.46 108.54Q339.30 108.91 339.30 109.35Q339.30 109.78 339.46 110.16Q339.62 110.53 339.93 110.76Q340.24 110.99 340.68 110.99M347.16 112.10Q346.48 112.10 345.97 111.86Q345.46 111.63 345.12 111.23Q344.78 110.84 344.62 110.35Q344.45 109.86 344.45 109.35Q344.45 108.84 344.62 108.35Q344.78 107.86 345.12 107.47Q345.45 107.07 345.96 106.83Q346.47 106.60 347.16 106.60Q347.84 106.60 348.29 106.80Q348.74 107 349.01 107.30Q349.27 107.60 349.40 107.89Q349.53 108.19 349.57 108.39Q349.61 108.59 349.61 108.59L348.36 108.59Q348.36 108.59 348.32 108.45Q348.28 108.32 348.16 108.14Q348.04 107.96 347.81 107.82Q347.57 107.68 347.18 107.68Q346.72 107.68 346.41 107.92Q346.09 108.15 345.93 108.53Q345.77 108.91 345.77 109.35Q345.77 109.79 345.93 110.17Q346.09 110.55 346.41 110.78Q346.72 111.02 347.18 111.02Q347.57 111.02 347.81 110.88Q348.04 110.74 348.16 110.56Q348.28 110.38 348.32 110.25Q348.36 110.11 348.36 110.11L349.61 110.11Q349.61 110.11 349.57 110.31Q349.53 110.51 349.40 110.81Q349.27 111.10 349.01 111.40Q348.74 111.70 348.29 111.90Q347.84 112.10 347.16 112.10" />
</svg>