<svg width="400" height="140" viewBox="0 0 400 140" fill="none" xmlns="http://www.w3.org/2000/svg">
  <defs>
    
    <linearGradient id="docBg" x1="4" y1="4" x2="76" y2="96" gradientUnits="userSpaceOnUse">
      <stop offset="0" stop-color="#20E3B2"/>
      <stop offset="0.5" stop-color="#2F80ED"/>
      <stop offset="1" stop-color="#8B5CF6"/>
    </linearGradient>
    <linearGradient id="docBorder" x1="4" y1="4" x2="76" y2="96" gradientUnits="userSpaceOnUse">
      <stop stop-color="#99F6E4"/>
      <stop offset="1" stop-color="#C4B5FD"/>
    </linearGradient>
    <linearGradient id="foldGrad" x1="52" y1="4" x2="76" y2="32" gradientUnits="userSpaceOnUse">
      <stop stop-color="#2F80ED"/>
      <stop offset="1" stop-color="#1E3A5F"/>
    </linearGradient>
  </defs>

  <!-- Background card -->
  <rect width="400" height="140" rx="32" fill="#08223F"/>

  <!-- Icon: Document with compass needle -->
  <g transform="translate(24,20)">
    <rect x="4" y="4" width="72" height="92" rx="12" fill="url(#docBg)" stroke="url(#docBorder)" stroke-width="2"/>
    <path d="M52 4V24C52 28.4 55.6 32 60 32H76" fill="url(#foldGrad)" stroke="#20E3B2" stroke-width="1.5"/>
    <rect x="16" y="38" width="48" height="4" rx="2" fill="rgba(255,255,255,0.5)"/>
    <rect x="16" y="48" width="40" height="4" rx="2" fill="rgba(255,255,255,0.35)"/>
    <rect x="16" y="58" width="44" height="4" rx="2" fill="rgba(255,255,255,0.35)"/>
    <rect x="16" y="68" width="32" height="4" rx="2" fill="rgba(255,255,255,0.35)"/>
    <path d="M40 14L43.5 22.5L52 24.5L46 30.5L47.5 39L40 35L32.5 39L34 30.5L28 24.5L36.5 22.5L40 14Z" fill="#FBBF24"/>
    <path d="M28 80L36 88L52 72" stroke="#20E3B2" stroke-width="4" stroke-linecap="round" stroke-linejoin="round"/>
  </g>

  <!-- Main text: H? S? Du H?c -->
  <path fill="white" d="M135.11 46L129.92 46L129.92 23.80L135.11 23.80L135.11 32.41L143.09 32.41L143.09 23.80L148.28 23.80L148.28 46L143.09 46L143.09 36.85L135.11 36.85L135.11 46M170.96 17.71L167.27 17.74L163.91 12.34L168.59 12.34L170.96 17.71M160.58 21.64L156.68 21.64L160.64 16.93L164.66 16.93L168.62 21.64L164.72 21.64L162.65 19.12L160.58 21.64M162.65 46.30Q159.80 46.30 157.67 45.33Q155.54 44.35 154.11 42.72Q152.69 41.08 151.97 39.04Q151.25 37 151.25 34.87Q151.25 32.74 151.97 30.71Q152.69 28.69 154.11 27.07Q155.54 25.45 157.67 24.48Q159.80 23.50 162.65 23.50Q165.47 23.50 167.60 24.48Q169.73 25.45 171.15 27.07Q172.58 28.69 173.30 30.71Q174.02 32.74 174.02 34.87Q174.02 37 173.30 39.04Q172.58 41.08 171.15 42.72Q169.73 44.35 167.60 45.33Q165.47 46.30 162.65 46.30M162.65 41.65Q164.60 41.65 165.94 40.66Q167.27 39.67 167.94 38.13Q168.62 36.58 168.62 34.87Q168.62 33.19 167.94 31.65Q167.27 30.10 165.94 29.11Q164.60 28.12 162.65 28.12Q160.67 28.12 159.33 29.11Q158 30.10 157.34 31.65Q156.68 33.19 156.68 34.87Q156.68 36.58 157.34 38.13Q158 39.67 159.33 40.66Q160.67 41.65 162.65 41.65M192.47 46.30Q190.22 46.30 188.65 45.77Q187.07 45.25 186.03 44.41Q185 43.57 184.38 42.64Q183.77 41.71 183.48 40.87Q183.20 40.03 183.11 39.51Q183.02 38.98 183.02 38.98L188.27 38.98Q188.27 38.98 188.39 39.45Q188.51 39.91 188.94 40.51Q189.38 41.11 190.26 41.58Q191.15 42.04 192.65 42.04Q194.51 42.04 195.34 41.29Q196.16 40.54 196.16 39.58Q196.16 38.71 195.54 38.20Q194.93 37.69 193.55 37.42L190.58 36.91Q188.72 36.58 187.09 35.86Q185.45 35.14 184.44 33.82Q183.44 32.50 183.44 30.40Q183.44 28.33 184.47 26.79Q185.51 25.24 187.43 24.37Q189.35 23.50 191.96 23.50Q194 23.50 195.44 24Q196.88 24.49 197.84 25.25Q198.80 26.02 199.38 26.88Q199.97 27.73 200.25 28.51Q200.54 29.29 200.63 29.77Q200.72 30.25 200.72 30.25L195.59 30.25Q195.59 30.25 195.48 29.88Q195.38 29.50 195 29Q194.63 28.51 193.88 28.12Q193.13 27.73 191.84 27.73Q190.04 27.73 189.29 28.50Q188.54 29.26 188.54 30.10Q188.54 31.03 189.37 31.51Q190.19 31.99 191.45 32.23L194.60 32.77Q196.43 33.10 197.96 33.88Q199.49 34.66 200.42 35.98Q201.35 37.30 201.35 39.25Q201.35 41.26 200.31 42.87Q199.28 44.47 197.30 45.38Q195.32 46.30 192.47 46.30M215.06 46.30Q212.21 46.30 210.08 45.33Q207.95 44.35 206.53 42.72Q205.10 41.08 204.38 39.04Q203.66 37 203.66 34.87Q203.66 32.74 204.38 30.71Q205.10 28.69 206.53 27.07Q207.95 25.45 210.08 24.48Q212.21 23.50 215.06 23.50Q215.48 23.50 215.87 23.53L219.80 23.53Q221.51 23.53 221.51 21.79L221.51 20.08L225.83 20.08L225.83 22.36Q225.83 24.13 225.08 25.07Q224.33 26.02 222.71 26.20Q224.57 27.85 225.50 30.16Q226.43 32.47 226.43 34.87Q226.43 37 225.71 39.04Q224.99 41.08 223.56 42.72Q222.14 44.35 220.01 45.33Q217.88 46.30 215.06 46.30M215.06 41.65Q217.01 41.65 218.35 40.66Q219.68 39.67 220.36 38.13Q221.03 36.58 221.03 34.87Q221.03 33.19 220.36 31.65Q219.68 30.10 218.35 29.11Q217.01 28.12 215.06 28.12Q213.08 28.12 211.75 29.11Q210.41 30.10 209.75 31.65Q209.09 33.19 209.09 34.87Q209.09 36.58 209.75 38.13Q210.41 39.67 211.75 40.66Q213.08 41.65 215.06 41.65M245.09 46L236.30 46L236.30 23.80L245.09 23.80Q247.82 23.80 249.89 24.75Q251.96 25.69 253.33 27.28Q254.69 28.87 255.38 30.85Q256.07 32.83 256.07 34.90Q256.07 36.97 255.38 38.95Q254.69 40.93 253.33 42.52Q251.96 44.11 249.89 45.05Q247.82 46 245.09 46M244.85 28.36L241.49 28.36L241.49 41.38L244.85 41.38Q246.92 41.38 248.26 40.42Q249.59 39.46 250.22 37.98Q250.85 36.49 250.85 34.84Q250.85 33.25 250.22 31.75Q249.59 30.25 248.26 29.30Q246.92 28.36 244.85 28.36M268.25 46.30Q266.48 46.30 264.83 45.80Q263.18 45.31 261.88 44.23Q260.57 43.15 259.81 41.41Q259.04 39.67 259.04 37.21L259.04 23.80L264.23 23.80L264.23 37.21Q264.23 38.98 265.20 40.20Q266.18 41.41 268.25 41.41Q270.32 41.41 271.30 40.20Q272.27 38.98 272.27 37.21L272.27 23.80L277.46 23.80L277.46 37.21Q277.46 39.67 276.69 41.41Q275.93 43.15 274.63 44.23Q273.32 45.31 271.67 45.80Q270.02 46.30 268.25 46.30M293.39 46L288.20 46L288.20 23.80L293.39 23.80L293.39 32.41L301.37 32.41L301.37 23.80L306.56 23.80L306.56 46L301.37 46L301.37 36.85L293.39 36.85L293.39 46M320.93 46.30Q318.08 46.30 315.95 45.33Q313.82 44.35 312.39 42.72Q310.97 41.08 310.25 39.04Q309.53 37 309.53 34.87Q309.53 32.74 310.25 30.71Q310.97 28.69 312.39 27.07Q313.82 25.45 315.95 24.48Q318.08 23.50 320.93 23.50Q323.75 23.50 325.88 24.48Q328.01 25.45 329.43 27.07Q330.86 28.69 331.58 30.71Q332.30 32.74 332.30 34.87Q332.30 37 331.58 39.04Q330.86 41.08 329.43 42.72Q328.01 44.35 325.88 45.33Q323.75 46.30 320.93 46.30M320.93 41.65Q322.88 41.65 324.21 40.66Q325.55 39.67 326.22 38.13Q326.90 36.58 326.90 34.87Q326.90 33.19 326.22 31.65Q325.55 30.10 324.21 29.11Q322.88 28.12 320.93 28.12Q318.95 28.12 317.61 29.11Q316.28 30.10 315.62 31.65Q314.96 33.19 314.96 34.87Q314.96 36.58 315.62 38.13Q316.28 39.67 317.61 40.66Q318.95 41.65 320.93 41.65M320.90 53.59Q319.79 53.59 319.08 52.85Q318.38 52.12 318.38 51.07Q318.38 50.02 319.08 49.28Q319.79 48.55 320.90 48.55Q322.01 48.55 322.73 49.28Q323.45 50.02 323.45 51.07Q323.45 52.12 322.73 52.85Q322.01 53.59 320.90 53.59M345.56 46.30Q342.80 46.30 340.70 45.33Q338.60 44.35 337.20 42.72Q335.81 41.08 335.10 39.04Q334.40 37 334.40 34.87Q334.40 32.77 335.10 30.73Q335.81 28.69 337.20 27.07Q338.60 25.45 340.70 24.48Q342.80 23.50 345.56 23.50Q347.93 23.50 349.59 24.09Q351.26 24.67 352.38 25.62Q353.51 26.56 354.18 27.60Q354.86 28.63 355.19 29.56Q355.52 30.49 355.62 31.09Q355.73 31.69 355.73 31.69L350.60 31.69Q350.60 31.69 350.43 31.15Q350.27 30.61 349.77 29.91Q349.28 29.20 348.29 28.66Q347.30 28.12 345.62 28.12Q343.67 28.12 342.36 29.11Q341.06 30.10 340.41 31.65Q339.77 33.19 339.77 34.87Q339.77 36.55 340.41 38.11Q341.06 39.67 342.36 40.66Q343.67 41.65 345.62 41.65Q347.30 41.65 348.29 41.11Q349.28 40.57 349.77 39.88Q350.27 39.19 350.43 38.65Q350.60 38.11 350.60 38.11L355.73 38.11Q355.73 38.11 355.62 38.70Q355.52 39.28 355.19 40.23Q354.86 41.17 354.18 42.20Q353.51 43.24 352.38 44.19Q351.26 45.13 349.59 45.72Q347.93 46.30 345.56 46.30" />

  <!-- Subtitle badge -->
  <rect x="128" y="64" width="248" height="26" rx="13" fill="rgba(45,212,191,0.12)" stroke="rgba(153,246,228,0.2)" stroke-width="1"/>
  <path fill="#CCFBF1" d="M157.96 82L156.27 82L156.27 75.33L153.77 75.33L153.77 73.86L160.46 73.86L160.46 75.33L157.96 75.33L157.96 82M164.99 82.11Q164.10 82.11 163.35 81.77Q162.59 81.43 162.14 80.71Q161.68 80 161.68 78.85L161.68 73.86L163.37 73.86L163.37 78.85Q163.37 79.56 163.77 80.04Q164.16 80.52 164.99 80.52Q165.81 80.52 166.21 80.04Q166.60 79.56 166.60 78.85L166.60 73.86L167.77 73.86Q168.21 73.86 168.21 73.42L168.21 72.64L169.58 72.64L169.58 73.47Q169.58 74.05 169.27 74.38Q168.96 74.72 168.36 74.72L168.30 74.72L168.30 78.85Q168.30 80 167.84 80.71Q167.39 81.43 166.63 81.77Q165.87 82.11 164.99 82.11M165.03 84.72Q164.65 84.72 164.40 84.46Q164.15 84.20 164.15 83.84Q164.15 83.47 164.40 83.22Q164.65 82.97 165.03 82.97Q165.41 82.97 165.66 83.22Q165.90 83.47 165.90 83.84Q165.90 84.20 165.66 84.46Q165.41 84.72 165.03 84.72M178.05 82L172.37 82L172.37 73.86L174.06 73.86L174.06 80.53L178.05 80.53L178.05 82M183.58 73.05L182.34 73.06L181.14 71.07L182.69 71.07L183.58 73.05M180.81 82L179.03 82L181.80 73.86L184.05 73.86L186.82 82L185.04 82L184.51 80.41L181.34 80.41L180.81 82M182.93 75.53L181.80 78.93L184.05 78.93L182.93 75.53M189.57 82L187.90 82L187.90 73.86L190.19 73.86L192.05 78.05L193.96 73.86L196.18 73.86L196.18 82L194.50 82L194.50 76.46L192.83 80.10L191.26 80.10L189.57 76.43L189.57 82M201.90 82L200.20 82L200.20 73.86L201.90 73.86L201.90 77.11L205.06 77.11L205.06 73.86L206.76 73.86L206.76 82L205.06 82L205.06 78.58L201.90 78.58L201.90 82M214.95 71.59L213.71 71.61L212.51 69.63L214.06 69.63L214.95 71.59M211.29 73.02L209.98 73.02L211.40 71.33L212.73 71.33L214.15 73.02L212.84 73.02L212.07 72.09L211.29 73.02M212.06 82.11Q211.05 82.11 210.28 81.75Q209.51 81.39 208.98 80.80Q208.46 80.20 208.20 79.45Q207.94 78.70 207.94 77.92Q207.94 77.14 208.20 76.40Q208.46 75.65 208.98 75.06Q209.51 74.47 210.28 74.11Q211.05 73.75 212.06 73.75Q213.08 73.75 213.85 74.11Q214.62 74.47 215.14 75.06Q215.66 75.65 215.91 76.40Q216.17 77.14 216.17 77.92Q216.17 78.70 215.91 79.45Q215.66 80.20 215.14 80.80Q214.62 81.39 213.85 81.75Q213.08 82.11 212.06 82.11M212.06 80.58Q212.83 80.58 213.36 80.20Q213.88 79.81 214.15 79.20Q214.41 78.59 214.41 77.92Q214.41 77.25 214.15 76.64Q213.88 76.04 213.36 75.65Q212.83 75.27 212.06 75.27Q211.29 75.27 210.77 75.65Q210.24 76.04 209.98 76.64Q209.72 77.25 209.72 77.92Q209.72 78.59 209.98 79.20Q210.24 79.81 210.77 80.20Q211.29 80.58 212.06 80.58M222.93 82.11Q222.13 82.11 221.58 81.92Q221.02 81.72 220.66 81.42Q220.29 81.12 220.07 80.78Q219.85 80.45 219.74 80.15Q219.64 79.84 219.61 79.65Q219.58 79.46 219.58 79.46L221.30 79.46Q221.30 79.46 221.35 79.65Q221.40 79.83 221.56 80.08Q221.73 80.33 222.07 80.51Q222.41 80.69 222.99 80.69Q223.71 80.69 224.05 80.39Q224.39 80.09 224.39 79.67Q224.39 79.29 224.13 79.07Q223.87 78.85 223.33 78.74L222.25 78.53Q221.59 78.41 221.02 78.15Q220.45 77.89 220.10 77.42Q219.75 76.95 219.75 76.21Q219.75 75.47 220.12 74.91Q220.50 74.36 221.17 74.05Q221.85 73.75 222.76 73.75Q223.62 73.75 224.19 74Q224.75 74.25 225.09 74.60Q225.42 74.96 225.58 75.32Q225.74 75.69 225.79 75.93Q225.84 76.17 225.84 76.17L224.17 76.17Q224.17 76.17 224.13 76.02Q224.09 75.86 223.95 75.66Q223.81 75.47 223.52 75.31Q223.22 75.16 222.72 75.16Q222.03 75.16 221.72 75.46Q221.41 75.76 221.41 76.11Q221.41 76.48 221.72 76.68Q222.03 76.87 222.52 76.97L223.68 77.20Q224.34 77.33 224.88 77.61Q225.44 77.90 225.76 78.38Q226.08 78.85 226.08 79.56Q226.08 80.28 225.72 80.86Q225.36 81.44 224.65 81.77Q223.95 82.11 222.93 82.11M231.16 82.11Q230.14 82.11 229.37 81.75Q228.60 81.39 228.08 80.80Q227.56 80.20 227.30 79.45Q227.04 78.70 227.04 77.92Q227.04 77.14 227.30 76.40Q227.56 75.65 228.08 75.06Q228.60 74.47 229.37 74.11Q230.14 73.75 231.16 73.75Q231.29 73.75 231.42 73.76L232.95 73.76Q233.53 73.76 233.53 73.17L233.53 72.53L234.96 72.53L234.96 73.32Q234.96 73.94 234.70 74.28Q234.43 74.62 233.85 74.67Q234.55 75.28 234.91 76.14Q235.27 77.01 235.27 77.92Q235.27 78.70 235.01 79.45Q234.75 80.20 234.23 80.80Q233.72 81.39 232.95 81.75Q232.18 82.11 231.16 82.11M231.16 80.58Q231.93 80.58 232.45 80.20Q232.98 79.81 233.25 79.20Q233.51 78.59 233.51 77.92Q233.51 77.25 233.25 76.64Q232.98 76.04 232.45 75.65Q231.93 75.27 231.16 75.27Q230.38 75.27 229.86 75.65Q229.34 76.04 229.08 76.64Q228.81 77.25 228.81 77.92Q228.81 78.59 229.08 79.20Q229.34 79.81 229.86 80.20Q230.38 80.58 231.16 80.58M241.37 79.80Q240.82 79.80 240.41 79.55Q239.99 79.29 239.75 78.87Q239.52 78.45 239.52 77.94Q239.52 77.42 239.75 77.01Q239.99 76.59 240.41 76.33Q240.82 76.08 241.37 76.08Q241.90 76.08 242.32 76.33Q242.74 76.59 242.98 77.01Q243.22 77.42 243.22 77.94Q243.22 78.45 242.98 78.87Q242.74 79.29 242.32 79.55Q241.90 79.80 241.37 79.80M249.47 82L247.78 82L247.78 73.86L249.47 73.86L249.47 77.30L252.38 73.86L254.47 73.86L251.08 77.77L254.60 82L252.43 82L249.47 78.38L249.47 82M259.51 73.06L258.28 73.07L257.08 71.08L258.63 71.08L259.51 73.06M259.70 82L258.01 82L258.01 79.22L255.15 73.86L257 73.86L258.85 77.48L260.70 73.86L262.56 73.86L259.70 79.22L259.70 82M269.95 82L268.26 82L268.26 75.33L265.76 75.33L265.76 73.86L272.45 73.86L272.45 75.33L269.95 75.33L269.95 82M275.32 82L273.63 82L273.63 73.86L275.32 73.86L275.32 77.11L278.49 77.11L278.49 73.86L280.18 73.86L280.18 82L278.49 82L278.49 78.58L275.32 78.58L275.32 82M286.99 71.07L285.79 73.06L284.55 73.05L285.44 71.07L286.99 71.07M283.04 82L281.26 82L284.03 73.86L286.29 73.86L289.06 82L287.28 82L286.75 80.41L283.57 80.41L283.04 82M285.17 75.53L284.03 78.93L286.29 78.93L285.17 75.53M291.82 82L290.14 82L290.14 73.86L291.69 73.86L295.20 79.05L295.20 73.86L296.88 73.86L296.88 82L295.31 82L291.82 76.95L291.82 82M302.16 82.11Q301.14 82.11 300.37 81.76Q299.60 81.41 299.09 80.81Q298.57 80.21 298.32 79.46Q298.07 78.72 298.07 77.94Q298.07 77.16 298.33 76.41Q298.58 75.66 299.10 75.06Q299.61 74.47 300.39 74.11Q301.17 73.75 302.21 73.75Q303.03 73.75 303.62 73.95Q304.21 74.16 304.60 74.48Q305 74.81 305.23 75.17Q305.47 75.53 305.60 75.86Q305.72 76.18 305.76 76.38Q305.80 76.59 305.80 76.59L304.12 76.59Q304.12 76.59 304.05 76.39Q303.99 76.19 303.79 75.92Q303.59 75.65 303.21 75.45Q302.83 75.25 302.21 75.25Q301.41 75.25 300.88 75.64Q300.34 76.03 300.08 76.64Q299.81 77.25 299.81 77.91Q299.81 78.59 300.08 79.21Q300.36 79.83 300.89 80.22Q301.42 80.61 302.23 80.61Q303.11 80.61 303.62 80.16Q304.13 79.71 304.23 78.94L302.12 78.94L302.12 77.61L305.90 77.61L305.90 78.24Q305.90 79.51 305.41 80.38Q304.92 81.24 304.08 81.68Q303.24 82.11 302.16 82.11M312.60 82.11Q311.81 82.11 311.26 81.91Q310.72 81.71 310.38 81.39Q310.04 81.08 309.84 80.72Q309.65 80.36 309.58 80.04Q309.51 79.71 309.51 79.50L311.11 79.50Q311.11 79.73 311.25 80.01Q311.38 80.30 311.69 80.50Q312 80.71 312.58 80.71Q313.17 80.71 313.56 80.41Q313.95 80.10 313.95 79.58Q313.95 79.12 313.62 78.82Q313.28 78.51 312.66 78.51L311.56 78.51L311.56 77.20L312.68 77.20Q313.20 77.20 313.52 76.91Q313.84 76.62 313.84 76.19Q313.84 75.74 313.48 75.44Q313.12 75.14 312.58 75.14Q312.07 75.14 311.78 75.36Q311.49 75.58 311.36 75.87Q311.23 76.17 311.23 76.39L309.66 76.39Q309.66 76.19 309.73 75.86Q309.80 75.53 309.99 75.17Q310.18 74.81 310.51 74.48Q310.84 74.16 311.35 73.95Q311.86 73.75 312.60 73.75Q313.34 73.75 314 74.02Q314.67 74.29 315.08 74.80Q315.50 75.31 315.50 76.04Q315.50 76.53 315.30 76.89Q315.11 77.25 314.82 77.48Q314.53 77.71 314.25 77.81L314.25 77.88Q314.80 78.07 315.22 78.51Q315.65 78.94 315.65 79.68Q315.65 80.45 315.22 80.99Q314.80 81.54 314.11 81.82Q313.41 82.11 312.60 82.11M317.90 83.99L316.39 83.99L320.22 72.88L321.73 72.88L317.90 83.99M328.41 82L322.39 82L322.39 80.83L323.80 79.64Q324.68 78.90 325.30 78.38Q325.93 77.86 326.26 77.41Q326.59 76.96 326.59 76.44Q326.59 76.05 326.40 75.78Q326.22 75.51 325.93 75.37Q325.63 75.23 325.31 75.23Q324.93 75.23 324.67 75.38Q324.41 75.52 324.26 75.75Q324.12 75.97 324.05 76.21Q323.98 76.46 323.98 76.63L322.36 76.63Q322.36 76.17 322.53 75.67Q322.71 75.17 323.07 74.73Q323.43 74.30 324.01 74.03Q324.58 73.75 325.37 73.75Q326.17 73.75 326.83 74.06Q327.49 74.38 327.89 74.96Q328.30 75.54 328.30 76.33Q328.30 77.08 327.93 77.69Q327.56 78.30 326.90 78.88Q326.24 79.46 325.38 80.13L324.92 80.52L328.41 80.52L328.41 82M332.90 82.11Q332.09 82.11 331.46 81.78Q330.83 81.45 330.39 80.87Q329.95 80.30 329.72 79.54Q329.49 78.78 329.49 77.93Q329.49 77.07 329.72 76.31Q329.95 75.55 330.39 74.98Q330.83 74.40 331.46 74.07Q332.09 73.75 332.90 73.75Q333.72 73.75 334.35 74.07Q334.98 74.40 335.42 74.98Q335.86 75.55 336.09 76.31Q336.31 77.07 336.31 77.93Q336.31 78.78 336.09 79.54Q335.86 80.30 335.42 80.87Q334.98 81.45 334.35 81.78Q333.72 82.11 332.90 82.11M332.90 80.60Q333.63 80.60 334.10 79.93Q334.57 79.26 334.57 77.93Q334.57 76.60 334.10 75.93Q333.63 75.26 332.90 75.26Q332.18 75.26 331.71 75.93Q331.24 76.60 331.24 77.93Q331.24 79.26 331.71 79.93Q332.18 80.60 332.90 80.60M343.41 82L337.39 82L337.39 80.83L338.80 79.64Q339.68 78.90 340.31 78.38Q340.93 77.86 341.26 77.41Q341.59 76.96 341.59 76.44Q341.59 76.05 341.41 75.78Q341.22 75.51 340.93 75.37Q340.64 75.23 340.32 75.23Q339.93 75.23 339.68 75.38Q339.42 75.52 339.27 75.75Q339.12 75.97 339.05 76.21Q338.99 76.46 338.99 76.63L337.36 76.63Q337.36 76.17 337.54 75.67Q337.71 75.17 338.07 74.73Q338.44 74.30 339.01 74.03Q339.58 73.75 340.37 73.75Q341.18 73.75 341.84 74.06Q342.50 74.38 342.90 74.96Q343.30 75.54 343.30 76.33Q343.30 77.08 342.93 77.69Q342.56 78.30 341.90 78.88Q341.24 79.46 340.38 80.13L339.92 80.52L343.41 80.52L343.41 82M347.48 82L345.79 82Q345.84 80.73 346.16 79.66Q346.48 78.59 346.92 77.74Q347.36 76.89 347.79 76.27Q348.22 75.66 348.50 75.33L344.48 75.33L344.48 73.86L350.39 73.86L350.39 75.07Q350.39 75.07 350.11 75.38Q349.83 75.70 349.42 76.29Q349 76.89 348.57 77.74Q348.15 78.59 347.84 79.66Q347.53 80.73 347.48 82" />

</svg>