<svg width="430" height="150" viewBox="0 0 430 150" fill="none" xmlns="http://www.w3.org/2000/svg">
  <rect width="430" height="150" rx="34" fill="#08223F"/>
  <rect x="18" y="20" width="110" height="110" rx="32" fill="url(#markBg)"/>
  <path d="M33 87C44 47 92 24 123 38" stroke="url(#orbit)" stroke-width="5" stroke-linecap="round"/>
  <text x="73" y="87" text-anchor="middle" fill="white" font-family="Arial Black, Arial, sans-serif" font-size="42" font-weight="900" letter-spacing="-4">D26</text>
  <path d="M92 30L98 43L112 45L102 55L104 69L92 62L80 69L82 55L72 45L86 43L92 30Z" fill="#FBBF24"/>
  <text x="150" y="56" fill="#99F6E4" font-family="Arial, sans-serif" font-size="17" font-weight="900" letter-spacing="2.5">KOREA D2-6</text>
  <text x="148" y="99" fill="white" font-family="Arial Black, Arial, sans-serif" font-size="40" font-weight="900" letter-spacing="-1.5">D26</text>
  <rect x="238" y="68" width="126" height="38" rx="19" fill="#E7F7F3"/>
  <text x="301" y="94" text-anchor="middle" fill="#0F766E" font-family="Arial, sans-serif" font-size="18" font-weight="900">SCHOOLS</text>
  <rect x="150" y="112" width="154" height="24" rx="12" fill="rgba(45, 212, 191, 0.14)" stroke="rgba(153, 246, 228, 0.28)"/>
  <text x="227" y="129" text-anchor="middle" fill="#CCFBF1" font-family="Arial, sans-serif" font-size="12" font-weight="900">Tuyển sinh 03/2027</text>
  <defs>
    <linearGradient id="markBg" x1="20" y1="22" x2="128" y2="130" gradientUnits="userSpaceOnUse">
      <stop stop-color="#20E3B2"/>
      <stop offset="0.52" stop-color="#2F80ED"/>
      <stop offset="1" stop-color="#8B5CF6"/>
    </linearGradient>
    <linearGradient id="orbit" x1="33" y1="60" x2="123" y2="60" gradientUnits="userSpaceOnUse">
      <stop stop-color="#FBBF24"/>
      <stop offset="1" stop-color="#CCFBF1"/>
    </linearGradient>
  </defs>
</svg>
