<svg width="1400" height="420" viewBox="0 0 1400 420" fill="none" xmlns="http://www.w3.org/2000/svg">
  <rect width="1400" height="420" rx="86" fill="#071B34"/>
  <rect x="42" y="42" width="336" height="336" rx="84" fill="url(#markBg)"/>
  <path d="M82 242C112 132 240 69 349 115" stroke="url(#markOrbit)" stroke-width="9" stroke-linecap="round"/>
  <text x="210" y="246" text-anchor="middle" fill="white" font-family="Arial Black, Arial, sans-serif" font-size="120" font-weight="900" letter-spacing="-12">D26</text>
  <path d="M268 94L281 119L309 123L289 142L294 169L268 156L243 169L248 142L228 123L256 119L268 94Z" fill="#FBBF24"/>
  <text x="458" y="181" fill="#CCFBF1" font-family="Arial, sans-serif" font-size="44" font-weight="900" letter-spacing="6">KOREA D2-6</text>
  <text x="456" y="292" fill="white" font-family="Arial Black, Arial, sans-serif" font-size="132" font-weight="900" letter-spacing="-10">D26</text>
  <rect x="744" y="236" width="176" height="56" rx="28" fill="#E7F7F3"/>
  <text x="832" y="274" text-anchor="middle" fill="#0F766E" font-family="Arial, sans-serif" font-size="26" font-weight="900">SCHOOLS</text>
  <path d="M940 151H1290" stroke="#99F6E4" stroke-width="10" stroke-linecap="round"/>
  <path d="M940 210H1218" stroke="#60A5FA" stroke-width="10" stroke-linecap="round"/>
  <path d="M940 269H1270" stroke="#FBBF24" stroke-width="10" stroke-linecap="round"/>
  <defs>
    <linearGradient id="markBg" x1="48" y1="50" x2="371" y2="371" gradientUnits="userSpaceOnUse">
      <stop stop-color="#20E3B2"/>
      <stop offset="0.52" stop-color="#2F80ED"/>
      <stop offset="1" stop-color="#8B5CF6"/>
    </linearGradient>
    <linearGradient id="markOrbit" x1="82" y1="170" x2="349" y2="170" gradientUnits="userSpaceOnUse">
      <stop stop-color="#FBBF24"/>
      <stop offset="1" stop-color="#CCFBF1"/>
    </linearGradient>
  </defs>
</svg>
